<svg width="60" height="60" viewBox="0 0 60 60" fill="none" xmlns="http://www.w3.org/2000/svg">
<circle cx="30" cy="30" r="30" fill="#314394"/>
<g clip-path="url(#clip0_3_110)">
<path d="M40.7999 28.8H31.2001V19.1999C31.2001 18.5377 30.6624 18 29.9999 18C29.3377 18 28.8 18.5377 28.8 19.1999V28.8H19.1999C18.5377 28.8 18 29.3377 18 29.9999C18 30.6624 18.5377 31.2001 19.1999 31.2001H28.8V40.7999C28.8 41.4624 29.3377 42.0001 29.9999 42.0001C30.6624 42.0001 31.2001 41.4624 31.2001 40.7999V31.2001H40.7999C41.4624 31.2001 42.0001 30.6624 42.0001 29.9999C42.0001 29.3377 41.4624 28.8 40.7999 28.8Z" fill="white"/>
</g>
<defs>
<clipPath id="clip0_3_110">
<rect width="24" height="24" fill="white" transform="translate(18 18)"/>
</clipPath>
</defs>
</svg>
