<svg width="24" height="23" viewBox="0 0 24 23" fill="none" xmlns="http://www.w3.org/2000/svg">
<path d="M18.3897 3.4442C18.4001 3.44493 18.4106 3.44566 18.4212 3.44566C18.4393 3.44566 18.4573 3.4442 18.4749 3.44172C18.9475 3.45144 19.3257 3.83683 19.3263 4.30936C19.3263 4.41249 19.3673 4.51139 19.4402 4.58431C19.5131 4.65724 19.612 4.6982 19.7151 4.6982C19.8183 4.6982 19.9172 4.65724 19.9901 4.58431C20.063 4.51139 20.104 4.41249 20.104 4.30936C20.103 3.53645 19.5649 2.86775 18.8101 2.70143V2.3278C18.8101 2.22468 18.7691 2.12577 18.6962 2.05285C18.6233 1.97993 18.5243 1.93896 18.4212 1.93896C18.3181 1.93896 18.2192 1.97993 18.1463 2.05285C18.0734 2.12577 18.0324 2.22468 18.0324 2.3278V2.71907C17.2342 2.93249 16.7178 3.70467 16.8254 4.52391C16.9331 5.34319 17.6314 5.9557 18.4577 5.9557C18.9375 5.9557 19.3263 6.34468 19.3263 6.82451C19.3263 7.30409 18.9375 7.69307 18.4577 7.69307C17.9779 7.69307 17.5891 7.30409 17.5891 6.82451C17.5891 6.72138 17.5481 6.62248 17.4752 6.54956C17.4023 6.47664 17.3034 6.43567 17.2002 6.43567C17.0971 6.43567 16.9982 6.47664 16.9253 6.54956C16.8524 6.62248 16.8114 6.72138 16.8114 6.82451C16.8124 7.56952 17.3128 8.22131 18.0324 8.41476V8.84082C18.0324 8.94395 18.0734 9.04285 18.1463 9.11577C18.2192 9.18869 18.3181 9.22966 18.4212 9.22966C18.5243 9.22966 18.6233 9.18869 18.6962 9.11577C18.7691 9.04285 18.8101 8.94395 18.8101 8.84082V8.43259C19.6312 8.2528 20.1851 7.4831 20.0945 6.64735C20.0041 5.81159 19.2983 5.17817 18.4577 5.17837C17.9912 5.17856 17.6079 4.81024 17.5895 4.34412C17.5712 3.878 17.9245 3.48066 18.3897 3.4444V3.4442Z" fill="#344CB7"/>
<path d="M18.4799 0.0378418C16.0878 0.0378418 14.0464 1.59873 13.2816 3.68873H3.63082C3.41705 3.68873 3.24348 3.88145 3.24198 4.09507L3.15012 17.7355H0.399093C0.184357 17.7355 0 17.891 0 18.1061V19.837C0.00495767 21.4667 1.28841 22.8053 2.91628 22.879V22.8876H14.9216V22.8762C15.0188 22.8798 15.0589 22.8876 15.1204 22.8876H15.1288C16.8136 22.8849 18.1781 21.5183 18.1781 19.8334V11.0815C18.2753 11.0869 18.3782 11.0897 18.4789 11.0897C21.5229 11.0897 24.0001 8.60786 24.0001 5.56361C24.0001 2.51959 21.5241 0.0378904 18.4799 0.0378904V0.0378418ZM3.06423 22.1099H3.0618C1.80391 22.1082 0.78341 21.0911 0.777723 19.8331V18.5132H12.054V19.8276C12.0543 20.2294 12.134 20.6272 12.2885 20.9981C12.443 21.3691 12.6693 21.7058 12.9543 21.989C12.9951 22.0298 13.0458 22.0613 13.0886 22.1099H3.06423ZM17.4005 19.8331C17.4007 21.0888 16.384 22.1074 15.1284 22.1099H15.1211C13.8603 22.1076 12.8379 21.0884 12.8317 19.8279V18.1061C12.8333 18.057 12.8248 18.008 12.8067 17.9623C12.7886 17.9165 12.7613 17.875 12.7265 17.8402C12.6917 17.8055 12.6502 17.7783 12.6044 17.7602C12.5586 17.7422 12.5096 17.7338 12.4605 17.7355H3.92779L4.01703 4.46645H13.0658C12.9969 4.82235 12.9612 5.18389 12.9593 5.5464C12.9585 6.31275 13.1184 7.07076 13.4286 7.77152H9.75597C9.54104 7.77152 9.36714 7.94567 9.36714 8.16036C9.36714 8.37514 9.54104 8.54919 9.75597 8.54919H13.8505C14.2475 9.17344 14.7667 9.71097 15.3767 10.1295C15.9868 10.5479 16.6752 10.8387 17.4005 10.9844V19.8331ZM18.4799 10.3122C15.8606 10.3122 13.7369 8.18884 13.7371 5.56929C13.7371 2.94979 15.8605 0.826355 18.4801 0.826355C21.0994 0.826355 23.2228 2.94999 23.2228 5.56929C23.2199 8.18748 21.0983 10.3094 18.4799 10.3122Z" fill="black"/>
<path d="M7.26002 10.3594C6.57373 10.3594 6.0155 10.8999 6.0155 11.5644C6.0155 12.2289 6.57368 12.7695 7.26002 12.7695C7.94637 12.7695 8.50479 12.2289 8.50479 11.5644C8.50479 10.8999 7.94637 10.3594 7.26002 10.3594ZM7.26002 11.9918C7.00242 11.9918 6.79318 11.8001 6.79318 11.5644C6.79318 11.3286 7.00257 11.137 7.26002 11.137C7.51748 11.137 7.72712 11.3288 7.72712 11.5644C7.72712 11.8001 7.51748 11.9918 7.26002 11.9918ZM9.36713 11.5627C9.36713 11.7774 9.54104 11.9516 9.75597 11.9516H14.9399C15.0431 11.9516 15.142 11.9106 15.2149 11.8377C15.2878 11.7647 15.3288 11.6658 15.3288 11.5627C15.3288 11.4596 15.2878 11.3607 15.2149 11.2878C15.142 11.2148 15.0431 11.1739 14.9399 11.1739H9.75597C9.54104 11.1739 9.36713 11.348 9.36713 11.5627ZM7.26002 6.97925C6.57373 6.97925 6.0155 7.51997 6.0155 8.1845C6.0155 8.84902 6.57368 9.38955 7.26002 9.38955C7.94637 9.38955 8.50479 8.84902 8.50479 8.1845C8.50479 7.51997 7.94637 6.97925 7.26002 6.97925ZM7.26002 8.61188C7.00242 8.61188 6.79318 8.42013 6.79318 8.1845C6.79318 7.94886 7.00257 7.75692 7.26002 7.75692C7.51748 7.75692 7.72712 7.94867 7.72712 8.1845C7.72712 8.42013 7.51748 8.61207 7.26002 8.61207V8.61188ZM7.26002 13.7391C6.57373 13.7391 6.0155 14.2796 6.0155 14.9441C6.0155 15.6087 6.57368 16.1492 7.26002 16.1492C7.94637 16.1492 8.50479 15.6087 8.50479 14.9441C8.50479 14.2796 7.94637 13.7391 7.26002 13.7391ZM7.26002 15.3715C7.00242 15.3715 6.79318 15.18 6.79318 14.9441C6.79318 14.7086 7.00257 14.5168 7.26002 14.5168C7.51748 14.5168 7.72712 14.7086 7.72712 14.9441C7.72712 15.1798 7.51748 15.3715 7.26002 15.3715ZM14.9399 14.5762H9.75597C9.54104 14.5762 9.36713 14.7503 9.36713 14.965C9.36713 15.1798 9.54104 15.3539 9.75597 15.3539H14.9399C15.0431 15.3539 15.142 15.3129 15.2149 15.24C15.2878 15.1671 15.3288 15.0682 15.3288 14.965C15.3288 14.8619 15.2878 14.763 15.2149 14.6901C15.142 14.6172 15.0431 14.5762 14.9399 14.5762Z" fill="black"/>
</svg>
