<svg width="24" height="24" viewBox="0 0 24 24" fill="none" xmlns="http://www.w3.org/2000/svg">
<path fill-rule="evenodd" clip-rule="evenodd" d="M13.9536 7.21031C15.1907 8.45991 16.3296 9.86658 17.1454 11.3402H13.8776C12.9272 9.91261 11.3036 8.97178 9.46 8.97178C6.53097 8.97178 4.15656 11.3462 4.15656 14.2752C4.15656 17.2043 6.53097 19.5787 9.46 19.5787C10.1593 19.5787 10.8268 19.443 11.4381 19.1971V22.0776H7.16669C5.00913 22.0776 3.15255 21.1591 1.84347 19.4441C-1.20275 15.4533 1.49706 10.7147 4.96642 7.21031C5.02966 7.21852 5.09416 7.22278 5.1596 7.22278H13.7605C13.825 7.22273 13.8895 7.21857 13.9536 7.21031ZM9.46 10.5735C7.4156 10.5735 5.75833 12.2308 5.75833 14.2752C5.75833 16.3196 7.41564 17.9769 9.46 17.9769C10.1875 17.9769 10.8659 17.7668 11.4381 17.4044V12.8416C11.4381 12.3459 11.6797 11.9056 12.0512 11.632C11.3835 10.9773 10.469 10.5735 9.46 10.5735ZM9.085 12.075V12.3955C8.88796 12.4473 8.70825 12.5506 8.56431 12.6948C7.84005 13.4191 8.36336 14.6501 9.37385 14.6501C9.54902 14.6501 9.68899 14.6303 9.82539 14.7667C10.0781 15.0194 9.89111 15.4418 9.54616 15.4418C9.32603 15.4418 9.12653 15.4761 8.98178 15.2761C8.92299 15.1971 8.83541 15.1444 8.73804 15.1294C8.64067 15.1145 8.54134 15.1386 8.46158 15.1964C8.38181 15.2542 8.32803 15.3411 8.31189 15.4383C8.29576 15.5354 8.31856 15.6351 8.37536 15.7155C8.54383 15.9483 8.80038 16.1135 9.085 16.1702V16.4753C9.085 16.5748 9.12451 16.6701 9.19484 16.7405C9.26516 16.8108 9.36055 16.8503 9.46 16.8503C9.55946 16.8503 9.65484 16.8108 9.72517 16.7405C9.79549 16.6701 9.835 16.5748 9.835 16.4753V16.1547C10.0321 16.1029 10.2118 15.9996 10.3557 15.8554C11.08 15.1312 10.5567 13.9001 9.54616 13.9001C9.37094 13.9001 9.23102 13.92 9.09461 13.7835C8.84191 13.5308 9.02885 13.1085 9.37385 13.1085C9.59936 13.1085 9.79469 13.0737 9.93822 13.2727C9.9961 13.3531 10.0836 13.4073 10.1814 13.4232C10.2792 13.4391 10.3793 13.4156 10.4597 13.3577C10.5401 13.2998 10.5943 13.2123 10.6102 13.1145C10.6261 13.0167 10.6026 12.9166 10.5447 12.8362C10.3739 12.6003 10.1205 12.4375 9.835 12.3801V12.075C9.835 11.9755 9.79549 11.8802 9.72517 11.8098C9.65484 11.7395 9.55946 11.7 9.46 11.7C9.36055 11.7 9.26516 11.7395 9.19484 11.8098C9.12451 11.8802 9.085 11.9755 9.085 12.075ZM12.9395 12.0901C12.5257 12.0901 12.1881 12.4277 12.1881 12.8415V22.8267C12.1881 23.2405 12.5256 23.5781 12.9395 23.5781H22.7299C23.1438 23.5781 23.4813 23.2406 23.4813 22.8267V12.8415C23.4813 12.4277 23.1438 12.0901 22.7299 12.0901H12.9395ZM21.5371 15.3861C21.9794 15.5409 22.2967 15.962 22.2967 16.4572C22.2967 16.9524 21.9794 17.3735 21.5371 17.5283V21.833C21.5371 21.9325 21.4976 22.0279 21.4272 22.0982C21.3569 22.1685 21.2615 22.208 21.1621 22.208C21.0626 22.208 20.9672 22.1685 20.8969 22.0982C20.8266 22.0279 20.7871 21.9325 20.7871 21.833V17.5283C20.3447 17.3735 20.0274 16.9524 20.0274 16.4572C20.0274 15.962 20.3447 15.5409 20.7871 15.3861V13.8353C20.7871 13.7358 20.8266 13.6405 20.8969 13.5701C20.9672 13.4998 21.0626 13.4603 21.1621 13.4603C21.2615 13.4603 21.3569 13.4998 21.4272 13.5701C21.4976 13.6405 21.5371 13.7358 21.5371 13.8353V15.3861ZM14.8824 15.3861V13.8353C14.8824 13.7358 14.8429 13.6405 14.7725 13.5701C14.7022 13.4998 14.6068 13.4603 14.5074 13.4603C14.4079 13.4603 14.3125 13.4998 14.2422 13.5701C14.1719 13.6405 14.1324 13.7358 14.1324 13.8353V15.3861C13.69 15.5409 13.3727 15.962 13.3727 16.4572C13.3727 16.9524 13.69 17.3735 14.1324 17.5283V21.833C14.1324 21.9325 14.1719 22.0279 14.2422 22.0982C14.3125 22.1685 14.4079 22.208 14.5074 22.208C14.6068 22.208 14.7022 22.1685 14.7725 22.0982C14.8429 22.0279 14.8824 21.9325 14.8824 21.833V17.5283C15.3247 17.3735 15.642 16.9524 15.642 16.4572C15.642 15.9619 15.3247 15.5409 14.8824 15.3861ZM18.2097 18.673V13.8353C18.2097 13.7358 18.1702 13.6405 18.0999 13.5701C18.0296 13.4998 17.9342 13.4603 17.8347 13.4603C17.7353 13.4603 17.6399 13.4998 17.5696 13.5701C17.4992 13.6405 17.4597 13.7358 17.4597 13.8353V18.673C17.0174 18.8279 16.7001 19.2489 16.7001 19.7442C16.7001 20.2394 17.0174 20.6604 17.4597 20.8153V21.833C17.4597 21.9325 17.4992 22.0279 17.5696 22.0982C17.6399 22.1685 17.7353 22.208 17.8347 22.208C17.9342 22.208 18.0296 22.1685 18.0999 22.0982C18.1702 22.0279 18.2097 21.9325 18.2097 21.833V20.8153C18.6521 20.6604 18.9694 20.2394 18.9694 19.7442C18.9694 19.2489 18.6521 18.8279 18.2097 18.673ZM5.15955 4.97536H13.7604C14.1722 4.97536 14.5091 5.3123 14.5091 5.72405C14.5091 6.13584 14.1722 6.47273 13.7604 6.47273H5.15955C4.74775 6.47273 4.41086 6.13584 4.41086 5.72405C4.41086 5.3123 4.74775 4.97536 5.15955 4.97536ZM5.39491 4.22536C5.25414 3.9698 5.06092 3.67819 4.72844 3.20363C3.60658 1.60228 3.83397 1.05984 6.57433 2.07272C7.7246 2.49787 7.24028 0.421875 9.46 0.421875C11.6798 0.421875 11.1954 2.49787 12.3457 2.07272C15.086 1.05984 15.3134 1.60233 14.1916 3.20363C13.8591 3.67823 13.6659 3.9698 13.5251 4.22536H5.39491Z" fill="#9D9D9D"/>
</svg>
