<svg width="22" height="22" viewBox="0 0 22 22" fill="none" xmlns="http://www.w3.org/2000/svg">
<path d="M10.1 2.45V8.4C10.1 8.85087 9.92089 9.28327 9.60208 9.60208C9.28327 9.92089 8.85087 10.1 8.4 10.1H2.45C1.99913 10.1 1.56673 9.92089 1.24792 9.60208C0.929107 9.28327 0.75 8.85087 0.75 8.4V2.45C0.75 1.99913 0.929107 1.56673 1.24792 1.24792C1.56673 0.929107 1.99913 0.75 2.45 0.75H8.4C8.85087 0.75 9.28327 0.929107 9.60208 1.24792C9.92089 1.56673 10.1 1.99913 10.1 2.45ZM20.3 0.75H14.35C13.8991 0.75 13.4667 0.929107 13.1479 1.24792C12.8291 1.56673 12.65 1.99913 12.65 2.45V8.4C12.65 8.85087 12.8291 9.28327 13.1479 9.60208C13.4667 9.92089 13.8991 10.1 14.35 10.1H20.3C20.7509 10.1 21.1833 9.92089 21.5021 9.60208C21.8209 9.28327 22 8.85087 22 8.4V2.45C22 1.99913 21.8209 1.56673 21.5021 1.24792C21.1833 0.929107 20.7509 0.75 20.3 0.75ZM8.4 12.65H2.45C1.99913 12.65 1.56673 12.8291 1.24792 13.1479C0.929107 13.4667 0.75 13.8991 0.75 14.35V20.3C0.75 20.7509 0.929107 21.1833 1.24792 21.5021C1.56673 21.8209 1.99913 22 2.45 22H8.4C8.85087 22 9.28327 21.8209 9.60208 21.5021C9.92089 21.1833 10.1 20.7509 10.1 20.3V14.35C10.1 13.8991 9.92089 13.4667 9.60208 13.1479C9.28327 12.8291 8.85087 12.65 8.4 12.65ZM17.325 12.65C16.4004 12.65 15.4965 12.9242 14.7277 13.4379C13.9589 13.9516 13.3597 14.6817 13.0059 15.536C12.652 16.3902 12.5594 17.3302 12.7398 18.237C12.9202 19.1439 13.3655 19.9769 14.0193 20.6307C14.6731 21.2845 15.5061 21.7298 16.413 21.9102C17.3198 22.0906 18.2598 21.998 19.114 21.6441C19.9683 21.2903 20.6984 20.6911 21.2121 19.9223C21.7258 19.1535 22 18.2496 22 17.325C22 16.0851 21.5075 14.896 20.6307 14.0193C19.754 13.1425 18.5649 12.65 17.325 12.65Z" fill="#9D9D9D"/>
</svg>
