<svg width="30" height="30" viewBox="0 0 30 30" fill="none" xmlns="http://www.w3.org/2000/svg">
<circle cx="15" cy="15" r="15" fill="#DCEBFF"/>
<path d="M16.0991 14.9998L20.7716 10.3272C21.0757 10.0233 21.0757 9.53188 20.7716 9.22798C20.4677 8.92404 19.9763 8.92404 19.6724 9.22798L14.9998 13.9005L10.3273 9.22798C10.0233 8.92404 9.532 8.92404 9.22806 9.22798C8.92398 9.53191 8.92398 10.0233 9.22806 10.3272L13.9004 14.9998L9.2281 19.6723C8.92402 19.9763 8.92402 20.4677 9.2281 20.7716C9.30019 20.8439 9.38586 20.9013 9.48019 20.9403C9.57451 20.9794 9.67563 20.9995 9.77773 20.9994C9.97671 20.9994 10.1758 20.9232 10.3274 20.7716L14.9998 16.0991L19.6724 20.7716C19.7445 20.8439 19.8301 20.9012 19.9245 20.9403C20.0188 20.9794 20.1199 20.9995 20.222 20.9994C20.421 20.9994 20.62 20.9232 20.7716 20.7716C21.0757 20.4677 21.0757 19.9763 20.7716 19.6723L16.0991 14.9998Z" fill="black"/>
</svg>
