<svg xmlns="http://www.w3.org/2000/svg" viewBox="0 0 32 32" id="email">
  <path d="M28 11h-3V2a1 1 0 0 0-1-1H8a1 1 0 0 0-1 1v9H4a3 3 0 0 0-3 3v14a3 3 0 0 0 3 3h24a3 3 0 0 0 3-3V14a3 3 0 0 0-3-3Zm-.41 2L25 15.59V13ZM23 3v14.59l-4.29 4.29a3.94 3.94 0 0 1-5.42 0L9 17.59V3ZM7 15.59 4.41 13H7ZM28 29H4a1 1 0 0 1-1-1V14.41L9.59 21l-4.3 4.29a1 1 0 0 0 0 1.42 1 1 0 0 0 1.42 0l4.29-4.3.88.88a5.82 5.82 0 0 0 8.24 0l.88-.88 4.29 4.3a1 1 0 0 0 1.42 0 1 1 0 0 0 0-1.42L22.41 21 29 14.41V28a1 1 0 0 1-1 1Z"></path>
  <path d="M12 7h8a1 1 0 0 0 0-2h-8a1 1 0 0 0 0 2zm0 4h8a1 1 0 0 0 0-2h-8a1 1 0 0 0 0 2zm0 4h8a1 1 0 0 0 0-2h-8a1 1 0 0 0 0 2z"></path>
</svg>