<svg width="24" height="24" viewBox="0 0 24 24" fill="none" xmlns="http://www.w3.org/2000/svg">
<path d="M17.9318 6.15002L14.4859 7.52814C14.4401 7.54641 14.3984 7.57351 14.3631 7.6079C14.3279 7.64229 14.2997 7.68329 14.2803 7.72855C14.2609 7.77382 14.2505 7.82248 14.2499 7.87173C14.2493 7.92099 14.2584 7.96989 14.2766 8.01564C14.2949 8.06139 14.322 8.10309 14.3564 8.13837C14.3908 8.17364 14.4318 8.2018 14.477 8.22123C14.5223 8.24066 14.571 8.25099 14.6202 8.25161C14.6695 8.25224 14.7184 8.24316 14.7641 8.22489L16.2911 7.61252L16.7734 8.81889L14.8324 9.78939C14.7757 9.8177 14.7272 9.85988 14.6913 9.91201C14.6553 9.96414 14.6332 10.0245 14.6269 10.0875L14.2875 13.5H10.875C10.7755 13.5 10.6802 13.5395 10.6098 13.6099C10.5395 13.6802 10.5 13.7756 10.5 13.875C10.5 13.9745 10.5395 14.0699 10.6098 14.1402C10.6802 14.2105 10.7755 14.25 10.875 14.25H14.2826L14.5148 16.8053C14.5232 16.8984 14.5661 16.9851 14.6351 17.0482C14.7042 17.1114 14.7943 17.1464 14.8879 17.1465H14.9224C14.9714 17.142 15.0191 17.1279 15.0627 17.105C15.1063 17.0821 15.145 17.0509 15.1765 17.013C15.208 16.9752 15.2318 16.9315 15.2464 16.8844C15.261 16.8374 15.2662 16.7879 15.2618 16.7389L15.0019 13.875L15.3525 10.3665L19.6125 8.23914C19.9189 8.08781 20.164 7.8358 20.3067 7.52532C20.4495 7.21484 20.4812 6.86473 20.3966 6.53364L19.6763 3.65889C19.5981 3.36818 19.4089 3.1198 19.1493 2.96723C18.8898 2.81466 18.5808 2.77011 18.2887 2.84317C17.9967 2.91623 17.745 3.10105 17.5879 3.35785C17.4308 3.61464 17.3808 3.92286 17.4487 4.21614L17.9318 6.15002ZM18.4661 3.55127C18.5686 3.52575 18.6769 3.54195 18.7674 3.59631C18.8579 3.65066 18.9232 3.73872 18.9487 3.84114L19.6672 6.71589C19.7095 6.88141 19.6935 7.0564 19.6221 7.21157C19.5507 7.36675 19.4282 7.49267 19.275 7.56827L17.4469 8.48214L16.9875 7.33389L18.5141 6.72339C18.5985 6.68979 18.6678 6.62672 18.7092 6.5459C18.7505 6.46507 18.7612 6.37197 18.7391 6.28389L18.1766 4.03389C18.1512 3.93151 18.1674 3.82323 18.2217 3.73276C18.2759 3.6423 18.3638 3.57704 18.4661 3.55127Z" fill="black"/>
<path d="M10.2927 20.9625C10.3783 20.9197 10.4443 20.8458 10.4772 20.756C10.5101 20.6661 10.5074 20.567 10.4697 20.4791L9.46354 18.1316L11.4544 16.7096L12.3053 18.8374C12.4713 19.2555 12.7594 19.6138 13.132 19.8658C13.5047 20.1178 13.9446 20.2517 14.3944 20.25H18C18.0006 20.7471 18.1984 21.2236 18.5499 21.5751C18.9014 21.9267 19.3779 22.1244 19.875 22.125C19.9745 22.125 20.0699 22.0855 20.1402 22.0151C20.2105 21.9448 20.25 21.8494 20.25 21.75V17.625C20.25 17.5255 20.2105 17.4301 20.1402 17.3598C20.0699 17.2895 19.9745 17.25 19.875 17.25H18.75C18.676 17.2501 18.6036 17.272 18.5419 17.313L17.5365 17.9835L15.0533 17.6287C14.9548 17.6146 14.8548 17.6402 14.7752 17.6998C14.6956 17.7595 14.6429 17.8483 14.6288 17.9467C14.6147 18.0452 14.6402 18.1452 14.6999 18.2248C14.7595 18.3044 14.8483 18.3571 14.9468 18.3712L17.3775 18.7185L17.7683 19.5H14.3933C14.0933 19.501 13.7999 19.4116 13.5515 19.2433C13.3031 19.0751 13.1112 18.8358 13.0009 18.5569L11.9723 15.9855C11.9512 15.9327 11.9183 15.8854 11.8763 15.8472C11.8342 15.809 11.784 15.7809 11.7295 15.7649C11.6749 15.7489 11.6175 15.7456 11.5614 15.7551C11.5054 15.7646 11.4523 15.7867 11.406 15.8197L8.78104 17.6947C8.7114 17.7444 8.66086 17.8165 8.6378 17.8989C8.61475 17.9813 8.62056 18.0691 8.65429 18.1477L9.63979 20.4476L8.74654 20.895L7.16254 18.6311C6.96665 18.354 6.87106 18.0184 6.89151 17.6797C6.91196 17.3409 7.04724 17.0193 7.27504 16.7677L9.65291 14.1259C9.68832 14.0866 9.71501 14.0402 9.73123 13.9899C9.74745 13.9395 9.75284 13.8863 9.74704 13.8337L9.37204 10.4587C9.3664 10.4078 9.35038 10.3586 9.32496 10.3141C9.29955 10.2695 9.26529 10.2307 9.22429 10.2L7.87916 9.19123V7.35936L9.58166 8.21061C9.63395 8.23667 9.69161 8.25015 9.75004 8.24998H10.5C10.5 8.64781 10.6581 9.02934 10.9394 9.31064C11.2207 9.59195 11.6022 9.74998 12 9.74998C12.3979 9.74998 12.7794 9.59195 13.0607 9.31064C13.342 9.02934 13.5 8.64781 13.5 8.24998V7.67248C13.7357 7.4622 13.9244 7.20453 14.0536 6.91631C14.1829 6.6281 14.2498 6.31585 14.25 5.99998V5.38873C14.6625 5.1793 14.9923 4.83688 15.1861 4.41682C15.3798 3.99677 15.4263 3.52363 15.3178 3.07392C15.2094 2.62421 14.9525 2.22421 14.5886 1.9386C14.2247 1.65298 13.7751 1.49845 13.3125 1.49998H12.7932C11.7939 1.49899 10.8097 1.25648 9.92441 0.793106C9.88025 0.769878 9.83189 0.755697 9.78218 0.751396C9.73246 0.747094 9.68239 0.752758 9.6349 0.768055C9.5874 0.783352 9.54343 0.807974 9.50557 0.84048C9.46771 0.872985 9.43672 0.91272 9.41441 0.957356L8.99629 1.79398C8.72946 2.32522 8.65875 2.93362 8.79665 3.51189C8.93455 4.09017 9.27219 4.60119 9.75004 4.95486V5.99998C9.75019 6.55424 9.95597 7.08872 10.3275 7.49998H9.84004L7.68754 6.42448C7.62607 6.38899 7.5558 6.37167 7.48488 6.37454C7.41396 6.3774 7.34531 6.40033 7.28691 6.44067C7.22851 6.481 7.18275 6.53708 7.15496 6.60239C7.12717 6.6677 7.11848 6.73956 7.12991 6.80961V8.69998L5.31529 7.56598C4.96362 7.346 4.66897 7.04596 4.45541 6.69036L3.04466 4.33761C2.98503 4.23194 2.96877 4.10724 2.99931 3.98981C3.02984 3.87238 3.10479 3.77141 3.20835 3.70817C3.3119 3.64494 3.43596 3.6244 3.55437 3.65088C3.67278 3.67736 3.77628 3.74879 3.84304 3.85011L5.31191 6.19986C5.35384 6.26781 5.41657 6.32041 5.49079 6.34986L6.16579 6.61948C6.21179 6.63943 6.26132 6.64995 6.31146 6.65042C6.3616 6.65089 6.41132 6.64129 6.45769 6.62221C6.50406 6.60313 6.54613 6.57494 6.58141 6.53931C6.61669 6.50369 6.64447 6.46135 6.66311 6.4148C6.68174 6.36825 6.69085 6.31844 6.6899 6.26831C6.68895 6.21817 6.67795 6.16874 6.65756 6.12294C6.63717 6.07713 6.6078 6.03588 6.57119 6.00162C6.53458 5.96736 6.49147 5.94079 6.44441 5.92348L5.88379 5.69848L4.47866 3.44998C4.39494 3.3135 4.28516 3.19484 4.15559 3.10078C4.02601 3.00672 3.87918 2.93911 3.72347 2.9018C3.40901 2.82644 3.07749 2.87909 2.80185 3.04817C2.52621 3.21724 2.32902 3.48889 2.25366 3.80336C2.17831 4.11782 2.23096 4.44934 2.40004 4.72498L3.81079 7.07586C4.08564 7.53249 4.46425 7.91791 4.91591 8.20086L7.26416 9.66861L7.27354 9.67573L8.64379 10.7036L8.98129 13.7501L6.71591 16.2667C6.37401 16.6439 6.17081 17.1263 6.13979 17.6344C6.10877 18.1425 6.2518 18.646 6.54529 19.062L7.92191 21.0289C7.48858 21.1065 7.09629 21.3339 6.81356 21.6713C6.53082 22.0087 6.37561 22.4348 6.37504 22.875C6.37504 22.9744 6.41455 23.0698 6.48487 23.1401C6.5552 23.2105 6.65058 23.25 6.75004 23.25H10.875C10.9745 23.25 11.0699 23.2105 11.1402 23.1401C11.2105 23.0698 11.25 22.9744 11.25 22.875V21.75C11.25 21.6505 11.2105 21.5551 11.1402 21.4848C11.0699 21.4145 10.9745 21.375 10.875 21.375C10.7756 21.375 10.6802 21.4145 10.6099 21.4848C10.5395 21.5551 10.5 21.6505 10.5 21.75V22.5H7.18916C7.26701 22.2808 7.41075 22.091 7.60068 21.9568C7.79061 21.8225 8.01743 21.7503 8.25004 21.75H8.62504C8.68304 21.749 8.74003 21.7347 8.79154 21.708L10.2927 20.9625ZM12.75 8.24998C12.75 8.44889 12.671 8.63966 12.5304 8.78031C12.3897 8.92096 12.1989 8.99998 12 8.99998C11.8011 8.99998 11.6104 8.92096 11.4697 8.78031C11.3291 8.63966 11.25 8.44889 11.25 8.24998V8.11873C11.7347 8.29374 12.2654 8.29374 12.75 8.11873V8.24998ZM13.5 5.99998C13.5 6.39781 13.342 6.77934 13.0607 7.06064C12.7794 7.34195 12.3979 7.49998 12 7.49998C11.6022 7.49998 11.2207 7.34195 10.9394 7.06064C10.6581 6.77934 10.5 6.39781 10.5 5.99998V4.32561L11.256 3.82161C11.9372 4.22728 12.708 4.4585 13.5 4.49473V5.99998ZM9.51304 3.27861C9.43604 2.8891 9.49024 2.48505 9.66716 2.12961L9.91916 1.62523C10.8217 2.03584 11.8016 2.24884 12.7932 2.24998H13.3125C13.6606 2.24998 13.9945 2.38826 14.2406 2.6344C14.4868 2.88054 14.625 3.21438 14.625 3.56248C14.6242 3.90339 14.4895 4.23034 14.25 4.47298V4.12498C14.25 4.02552 14.2105 3.93014 14.1402 3.85982C14.0699 3.78949 13.9745 3.74998 13.875 3.74998H13.725C12.9174 3.75085 12.1278 3.51173 11.4563 3.06298C11.3947 3.02187 11.3222 2.99992 11.2482 2.99992C11.1741 2.99992 11.1017 3.02187 11.04 3.06298L9.91504 3.81298C9.86559 3.84608 9.82482 3.89058 9.79616 3.94273C9.65711 3.74318 9.56073 3.5171 9.51304 3.27861ZM18.1084 18.5036L18.8625 18H19.5V21.3109C19.2808 21.233 19.0911 21.0893 18.9568 20.8993C18.8226 20.7094 18.7503 20.4826 18.75 20.25V19.875C18.749 19.817 18.7342 19.76 18.7069 19.7089L18.1084 18.5036Z" fill="black"/>
<path d="M5.625 10.5H2.625C2.52554 10.5 2.43016 10.5395 2.35984 10.6098C2.28951 10.6802 2.25 10.7756 2.25 10.875V12.819C2.1299 12.7746 2.00304 12.7513 1.875 12.75C1.6525 12.75 1.43499 12.816 1.24998 12.9396C1.06498 13.0632 0.920785 13.2389 0.835636 13.4445C0.750487 13.6501 0.728209 13.8763 0.771617 14.0945C0.815025 14.3127 0.922171 14.5132 1.07951 14.6705C1.23684 14.8278 1.4373 14.935 1.65552 14.9784C1.87375 15.0218 2.09995 14.9995 2.30552 14.9144C2.51109 14.8292 2.68679 14.685 2.8104 14.5C2.93402 14.315 3 14.0975 3 13.875V12.75H5.25V13.944C5.1299 13.8996 5.00304 13.8763 4.875 13.875C4.6525 13.875 4.43499 13.941 4.24998 14.0646C4.06498 14.1882 3.92078 14.3639 3.83564 14.5695C3.75049 14.7751 3.72821 15.0013 3.77162 15.2195C3.81503 15.4377 3.92217 15.6382 4.07951 15.7955C4.23684 15.9528 4.4373 16.06 4.65552 16.1034C4.87375 16.1468 5.09995 16.1245 5.30552 16.0394C5.51109 15.9542 5.68679 15.81 5.8104 15.625C5.93402 15.44 6 15.2225 6 15V10.875C6 10.7756 5.96049 10.6802 5.89017 10.6098C5.81984 10.5395 5.72446 10.5 5.625 10.5ZM1.875 14.25C1.80083 14.25 1.72833 14.228 1.66666 14.1868C1.60499 14.1456 1.55693 14.087 1.52855 14.0185C1.50016 13.95 1.49274 13.8746 1.50721 13.8019C1.52168 13.7291 1.55739 13.6623 1.60984 13.6098C1.66228 13.5574 1.7291 13.5217 1.80184 13.5072C1.87458 13.4927 1.94998 13.5002 2.01851 13.5286C2.08703 13.5569 2.1456 13.605 2.1868 13.6667C2.22801 13.7283 2.25 13.8008 2.25 13.875C2.25 13.9745 2.21049 14.0699 2.14017 14.1402C2.06984 14.2105 1.97446 14.25 1.875 14.25ZM3 11.25H5.25V12H3V11.25ZM4.875 15.375C4.80083 15.375 4.72833 15.353 4.66666 15.3118C4.60499 15.2706 4.55693 15.212 4.52855 15.1435C4.50016 15.075 4.49274 14.9996 4.50721 14.9269C4.52168 14.8541 4.55739 14.7873 4.60984 14.7348C4.66228 14.6824 4.7291 14.6467 4.80184 14.6322C4.87458 14.6177 4.94998 14.6252 5.01851 14.6536C5.08703 14.6819 5.1456 14.73 5.1868 14.7917C5.22801 14.8533 5.25 14.9258 5.25 15C5.25 15.0995 5.21049 15.1949 5.14017 15.2652C5.06984 15.3355 4.97446 15.375 4.875 15.375ZM22.4865 9.92776L20.5365 11.0528C20.4084 11.1266 20.2961 11.2249 20.206 11.3421C20.116 11.4594 20.0499 11.5932 20.0116 11.736C19.9733 11.8788 19.9635 12.0277 19.9828 12.1743C20.0021 12.3209 20.05 12.4622 20.124 12.5903L20.499 13.2398L21.0975 14.2725C20.8636 14.3165 20.6498 14.4337 20.487 14.6073C20.3242 14.7809 20.2208 15.0017 20.1918 15.2379C20.1628 15.4741 20.2098 15.7134 20.3258 15.9212C20.4419 16.129 20.621 16.2944 20.8373 16.3936C21.0536 16.4928 21.2959 16.5206 21.5291 16.473C21.7622 16.4254 21.9742 16.3048 22.1343 16.1288C22.2944 15.9527 22.3943 15.7302 22.4196 15.4936C22.4449 15.257 22.3943 15.0184 22.275 14.8125L21.3375 13.1888L22.3125 12.6263C22.7427 12.3773 23.0567 11.9678 23.1854 11.4876C23.3141 11.0075 23.2471 10.4958 22.9991 10.065C22.9745 10.0223 22.9417 9.98489 22.9026 9.95488C22.8635 9.92487 22.8189 9.90287 22.7713 9.89012C22.7237 9.87737 22.674 9.87414 22.6251 9.88059C22.5763 9.88705 22.5292 9.90308 22.4865 9.92776ZM21.6638 15.4721C21.6412 15.5559 21.5904 15.6293 21.5199 15.6798C21.4493 15.7302 21.3635 15.7547 21.2769 15.749C21.1904 15.7433 21.1085 15.7078 21.0452 15.6485C20.9819 15.5892 20.9411 15.5097 20.9298 15.4237C20.9185 15.3377 20.9373 15.2505 20.9831 15.1768C21.0289 15.1032 21.0988 15.0477 21.181 15.0198C21.2631 14.9919 21.3524 14.9933 21.4335 15.0238C21.5147 15.0543 21.5828 15.112 21.6262 15.1871C21.6509 15.2298 21.667 15.277 21.6734 15.3259C21.6798 15.3748 21.6766 15.4245 21.6638 15.4721ZM21.9371 11.9768L20.9621 12.5393L20.7746 12.2145C20.75 12.1718 20.7341 12.1247 20.7277 12.0759C20.7213 12.0271 20.7245 11.9774 20.7373 11.9299C20.7501 11.8823 20.7721 11.8377 20.8021 11.7987C20.8322 11.7596 20.8696 11.7269 20.9122 11.7023L22.4801 10.797C22.5227 11.0256 22.4934 11.2618 22.3962 11.4731C22.299 11.6843 22.1384 11.8603 21.9371 11.9768ZM6.17813 3.35889H6.55313V3.73389C6.55313 3.83334 6.59263 3.92873 6.66296 3.99905C6.73329 4.06938 6.82867 4.10889 6.92813 4.10889C7.02758 4.10889 7.12296 4.06938 7.19329 3.99905C7.26362 3.92873 7.30313 3.83334 7.30313 3.73389V3.35889H7.67813C7.77758 3.35889 7.87296 3.31938 7.94329 3.24905C8.01362 3.17873 8.05313 3.08334 8.05313 2.98389C8.05313 2.88443 8.01362 2.78905 7.94329 2.71872C7.87296 2.6484 7.77758 2.60889 7.67813 2.60889H7.30313V2.23389C7.30313 2.13443 7.26362 2.03905 7.19329 1.96872C7.12296 1.8984 7.02758 1.85889 6.92813 1.85889C6.82867 1.85889 6.73329 1.8984 6.66296 1.96872C6.59263 2.03905 6.55313 2.13443 6.55313 2.23389V2.60889H6.17813C6.07867 2.60889 5.98329 2.6484 5.91296 2.71872C5.84263 2.78905 5.80313 2.88443 5.80313 2.98389C5.80313 3.08334 5.84263 3.17873 5.91296 3.24905C5.98329 3.31938 6.07867 3.35889 6.17813 3.35889ZM3 18.375H2.625V18C2.625 17.9006 2.58549 17.8052 2.51517 17.7348C2.44484 17.6645 2.34946 17.625 2.25 17.625C2.15054 17.625 2.05516 17.6645 1.98484 17.7348C1.91451 17.8052 1.875 17.9006 1.875 18V18.375H1.5C1.40054 18.375 1.30516 18.4145 1.23484 18.4848C1.16451 18.5552 1.125 18.6506 1.125 18.75C1.125 18.8495 1.16451 18.9449 1.23484 19.0152C1.30516 19.0855 1.40054 19.125 1.5 19.125H1.875V19.5C1.875 19.5995 1.91451 19.6949 1.98484 19.7652C2.05516 19.8355 2.15054 19.875 2.25 19.875C2.34946 19.875 2.44484 19.8355 2.51517 19.7652C2.58549 19.6949 2.625 19.5995 2.625 19.5V19.125H3C3.09946 19.125 3.19484 19.0855 3.26517 19.0152C3.33549 18.9449 3.375 18.8495 3.375 18.75C3.375 18.6506 3.33549 18.5552 3.26517 18.4848C3.19484 18.4145 3.09946 18.375 3 18.375ZM17.25 15.75C17.3495 15.75 17.4448 15.7105 17.5152 15.6402C17.5855 15.5699 17.625 15.4745 17.625 15.375V15H18C18.0995 15 18.1948 14.9605 18.2652 14.8902C18.3355 14.8199 18.375 14.7245 18.375 14.625C18.375 14.5256 18.3355 14.4302 18.2652 14.3598C18.1948 14.2895 18.0995 14.25 18 14.25H17.625V13.875C17.625 13.7756 17.5855 13.6802 17.5152 13.6098C17.4448 13.5395 17.3495 13.5 17.25 13.5C17.1505 13.5 17.0552 13.5395 16.9848 13.6098C16.9145 13.6802 16.875 13.7756 16.875 13.875V14.25H16.5C16.4005 14.25 16.3052 14.2895 16.2348 14.3598C16.1645 14.4302 16.125 14.5256 16.125 14.625C16.125 14.7245 16.1645 14.8199 16.2348 14.8902C16.3052 14.9605 16.4005 15 16.5 15H16.875V15.375C16.875 15.4745 16.9145 15.5699 16.9848 15.6402C17.0552 15.7105 17.1505 15.75 17.25 15.75ZM22.125 5.62501C22.3475 5.62501 22.565 5.55903 22.75 5.43542C22.935 5.3118 23.0792 5.1361 23.1644 4.93053C23.2495 4.72496 23.2718 4.49876 23.2284 4.28054C23.185 4.06231 23.0778 3.86185 22.9205 3.70452C22.7632 3.54718 22.5627 3.44004 22.3445 3.39663C22.1262 3.35322 21.9 3.3755 21.6945 3.46065C21.4889 3.5458 21.3132 3.68999 21.1896 3.875C21.066 4.06 21 4.27751 21 4.50001C21 4.79838 21.1185 5.08453 21.3295 5.29551C21.5405 5.50649 21.8266 5.62501 22.125 5.62501ZM22.125 4.12501C22.1992 4.12501 22.2717 4.14701 22.3333 4.18821C22.395 4.22942 22.4431 4.28798 22.4715 4.35651C22.4998 4.42503 22.5073 4.50043 22.4928 4.57317C22.4783 4.64591 22.4426 4.71273 22.3902 4.76518C22.3377 4.81762 22.2709 4.85334 22.1982 4.86781C22.1254 4.88228 22.05 4.87485 21.9815 4.84647C21.913 4.81808 21.8544 4.77002 21.8132 4.70835C21.772 4.64668 21.75 4.57418 21.75 4.50001C21.75 4.40056 21.7895 4.30517 21.8598 4.23485C21.9302 4.16452 22.0255 4.12501 22.125 4.12501Z" fill="#344CB7"/>
<path d="M1.5 1.5C1.70711 1.5 1.875 1.33211 1.875 1.125C1.875 0.917893 1.70711 0.75 1.5 0.75C1.29289 0.75 1.125 0.917893 1.125 1.125C1.125 1.33211 1.29289 1.5 1.5 1.5Z" fill="black"/>
<path d="M2.05273 7.4834C2.25984 7.4834 2.42773 7.31551 2.42773 7.1084C2.42773 6.90129 2.25984 6.7334 2.05273 6.7334C1.84563 6.7334 1.67773 6.90129 1.67773 7.1084C1.67773 7.31551 1.84563 7.4834 2.05273 7.4834Z" fill="black"/>
<path d="M18.375 11.7524C18.5821 11.7524 18.75 11.5845 18.75 11.3774C18.75 11.1703 18.5821 11.0024 18.375 11.0024C18.1679 11.0024 18 11.1703 18 11.3774C18 11.5845 18.1679 11.7524 18.375 11.7524Z" fill="black"/>
<path d="M18.375 1.875C18.5821 1.875 18.75 1.70711 18.75 1.5C18.75 1.29289 18.5821 1.125 18.375 1.125C18.1679 1.125 18 1.29289 18 1.5C18 1.70711 18.1679 1.875 18.375 1.875Z" fill="black"/>
</svg>
