<svg width="24" height="22" viewBox="0 0 24 22" fill="none" xmlns="http://www.w3.org/2000/svg">
<path d="M6.85147 7.22021H1.76502C1.71864 7.22021 1.67272 7.22934 1.62987 7.24708C1.58702 7.26483 1.54808 7.29084 1.51529 7.32364C1.48249 7.35643 1.45648 7.39537 1.43874 7.43822C1.42099 7.48107 1.41186 7.52699 1.41187 7.57337V19.8738C1.41187 19.9675 1.44907 20.0573 1.5153 20.1235C1.58153 20.1897 1.67136 20.2269 1.76502 20.2269H22.2349C22.2812 20.227 22.3272 20.2178 22.37 20.2001C22.4129 20.1823 22.4518 20.1563 22.4846 20.1235C22.5174 20.0907 22.5434 20.0518 22.5612 20.0089C22.5789 19.9661 22.588 19.9202 22.588 19.8738V7.57337C22.588 7.47971 22.5508 7.38988 22.4846 7.32365C22.4184 7.25742 22.3285 7.22021 22.2349 7.22021H8.26419C8.17053 7.22021 8.0807 7.25742 8.01447 7.32365C7.94824 7.38988 7.91104 7.47971 7.91104 7.57337C7.91104 7.66703 7.94824 7.75686 8.01447 7.82309C8.0807 7.88932 8.17053 7.92653 8.26419 7.92653H21.8817V19.5206H2.11818V7.92653H6.85147C6.89785 7.92653 6.94378 7.9174 6.98663 7.89966C7.02948 7.88191 7.06841 7.8559 7.10121 7.8231C7.134 7.79031 7.16001 7.75137 7.17776 7.70852C7.19551 7.66568 7.20464 7.61975 7.20463 7.57337C7.20464 7.52699 7.19551 7.48107 7.17776 7.43822C7.16001 7.39537 7.134 7.35643 7.10121 7.32364C7.06841 7.29084 7.02948 7.26483 6.98663 7.24708C6.94378 7.22934 6.89785 7.22021 6.85147 7.22021Z" fill="black"/>
<path d="M22.705 5.81161H21.1502L13.445 2.00583C13.4625 1.91846 13.4718 1.82817 13.4718 1.73574C13.4718 0.979643 12.8567 0.364502 12.1006 0.364502C11.3445 0.364502 10.7294 0.979643 10.7294 1.73574C10.7294 1.82817 10.7387 1.9185 10.7563 2.00583L3.051 5.81161H1.29497C0.580922 5.81161 0 6.39253 0 7.10658V20.3406C0 21.0546 0.580922 21.6355 1.29497 21.6355H16.3343C16.3807 21.6355 16.4266 21.6264 16.4694 21.6087C16.5123 21.5909 16.5512 21.5649 16.584 21.5321C16.6168 21.4993 16.6428 21.4604 16.6606 21.4175C16.6783 21.3747 16.6875 21.3288 16.6875 21.2824C16.6875 21.236 16.6783 21.1901 16.6606 21.1472C16.6428 21.1044 16.6168 21.0655 16.584 21.0327C16.5512 20.9999 16.5123 20.9739 16.4694 20.9561C16.4266 20.9384 16.3807 20.9292 16.3343 20.9292H1.29497C0.970406 20.9292 0.706359 20.6652 0.706359 20.3406V7.10658C0.706359 6.78202 0.970406 6.51797 1.29497 6.51797H14.7825C14.8762 6.51797 14.966 6.48076 15.0322 6.41453C15.0984 6.3483 15.1357 6.25848 15.1357 6.16481C15.1357 6.07115 15.0984 5.98132 15.0322 5.91509C14.966 5.84887 14.8762 5.81166 14.7825 5.81166H4.64606L11.07 2.63874C11.3215 2.92547 11.6902 3.10702 12.1006 3.10702C12.5111 3.10702 12.8798 2.92547 13.1313 2.63874L19.5552 5.81166H16.1952C16.1016 5.81166 16.0117 5.84887 15.9455 5.91509C15.8793 5.98132 15.8421 6.07115 15.8421 6.16481C15.8421 6.25848 15.8793 6.3483 15.9455 6.41453C16.0117 6.48076 16.1016 6.51797 16.1952 6.51797H22.705C23.0296 6.51797 23.2936 6.78202 23.2936 7.10658V20.3406C23.2936 20.6651 23.0296 20.9292 22.705 20.9292H17.747C17.6533 20.9292 17.5635 20.9664 17.4972 21.0326C17.431 21.0988 17.3938 21.1887 17.3938 21.2823C17.3938 21.376 17.431 21.4658 17.4972 21.532C17.5635 21.5983 17.6533 21.6355 17.747 21.6355H22.705C23.4191 21.6355 24 21.0546 24 20.3405V7.10658C24 6.39253 23.4191 5.81161 22.705 5.81161ZM12.1006 2.40066C11.734 2.40066 11.4358 2.10239 11.4358 1.73578C11.4358 1.36917 11.734 1.07091 12.1006 1.07091C12.4673 1.07091 12.7655 1.36917 12.7655 1.73578C12.7655 2.10239 12.4672 2.40066 12.1006 2.40066Z" fill="black"/>
<path d="M6.01535 11.9299C6.10901 11.9299 6.19884 11.8927 6.26507 11.8265C6.3313 11.7603 6.36851 11.6704 6.36851 11.5768C6.36851 11.4831 6.3313 11.3933 6.26507 11.3271C6.19884 11.2608 6.10901 11.2236 6.01535 11.2236H4.49866C4.45229 11.2236 4.40636 11.2327 4.36351 11.2505C4.32066 11.2682 4.28173 11.2943 4.24893 11.327C4.21614 11.3598 4.19012 11.3988 4.17238 11.4416C4.15463 11.4845 4.1455 11.5304 4.14551 11.5768V15.3529L4.14555 15.354L4.14551 15.355C4.14551 15.4487 4.18272 15.5385 4.24894 15.6048C4.31517 15.671 4.405 15.7082 4.49866 15.7082H6.01535C6.10901 15.7082 6.19884 15.671 6.26507 15.6048C6.3313 15.5385 6.36851 15.4487 6.36851 15.355C6.36851 15.2614 6.3313 15.1716 6.26507 15.1053C6.19884 15.0391 6.10901 15.0019 6.01535 15.0019H4.85182V13.8191H6.01535C6.10901 13.8191 6.19884 13.7819 6.26507 13.7157C6.3313 13.6494 6.36851 13.5596 6.36851 13.4659C6.36851 13.3723 6.3313 13.2824 6.26507 13.2162C6.19884 13.15 6.10901 13.1128 6.01535 13.1128H4.85182V11.93H6.01535V11.9299ZM10.9743 15.7082H12.491C12.5847 15.7082 12.6745 15.6709 12.7407 15.6047C12.8069 15.5385 12.8441 15.4487 12.8441 15.355C12.8441 15.2613 12.8069 15.1715 12.7407 15.1053C12.6745 15.039 12.5847 15.0018 12.491 15.0018H11.3274V13.819H12.491C12.5374 13.819 12.5833 13.8099 12.6261 13.7922C12.669 13.7744 12.7079 13.7484 12.7407 13.7156C12.7735 13.6828 12.7995 13.6439 12.8173 13.601C12.835 13.5582 12.8441 13.5123 12.8441 13.4659C12.8441 13.4195 12.835 13.3736 12.8173 13.3307C12.7995 13.2879 12.7735 13.249 12.7407 13.2162C12.7079 13.1834 12.669 13.1574 12.6261 13.1396C12.5833 13.1219 12.5374 13.1127 12.491 13.1127H11.3274V11.93H12.491C12.5847 11.93 12.6745 11.8928 12.7407 11.8265C12.8069 11.7603 12.8441 11.6705 12.8441 11.5768C12.8441 11.4832 12.8069 11.3933 12.7407 11.3271C12.6745 11.2609 12.5847 11.2237 12.491 11.2237H10.9743C10.8806 11.2237 10.7908 11.2609 10.7245 11.3271C10.6583 11.3933 10.6211 11.4832 10.6211 11.5768V15.3529L10.6211 15.354L10.6211 15.3551C10.6211 15.4015 10.6302 15.4474 10.648 15.4902C10.6657 15.5331 10.6918 15.572 10.7246 15.6048C10.7574 15.6375 10.7963 15.6636 10.8391 15.6813C10.882 15.699 10.9279 15.7082 10.9743 15.7082ZM6.8172 11.6716L7.8072 15.2243C7.88782 15.5137 8.1439 15.7082 8.44437 15.7082C8.74479 15.7082 9.00087 15.5137 9.08149 15.2243L10.0715 11.6716C10.0966 11.5813 10.0849 11.4848 10.0389 11.4032C9.99286 11.3216 9.91631 11.2617 9.82608 11.2365C9.73585 11.2114 9.63932 11.2231 9.55774 11.2691C9.47616 11.3152 9.4162 11.3917 9.39105 11.4819L8.44432 14.8794L7.49754 11.4819C7.48509 11.4373 7.46396 11.3955 7.43536 11.359C7.40677 11.3225 7.37126 11.292 7.33087 11.2692C7.29048 11.2464 7.24599 11.2318 7.19996 11.2262C7.15392 11.2206 7.10723 11.2241 7.06256 11.2366C7.01789 11.249 6.97611 11.2702 6.9396 11.2988C6.90309 11.3274 6.87258 11.3629 6.84979 11.4033C6.82701 11.4436 6.8124 11.4881 6.80681 11.5342C6.80122 11.5802 6.80475 11.6269 6.8172 11.6716ZM14.288 15.3528V12.9258L15.7508 15.5281C15.8334 15.6749 16.0141 15.7437 16.1736 15.6889C16.3146 15.6405 16.4119 15.504 16.4119 15.3549V11.5767C16.4119 11.4831 16.3746 11.3932 16.3084 11.327C16.2422 11.2608 16.1524 11.2236 16.0587 11.2236C15.965 11.2236 15.8752 11.2608 15.809 11.327C15.7427 11.3932 15.7055 11.4831 15.7055 11.5767V14.0059L14.2428 11.4037C14.2045 11.3355 14.1448 11.282 14.0729 11.2515C14.001 11.221 13.921 11.2151 13.8454 11.2349C13.7698 11.2547 13.703 11.299 13.6552 11.3608C13.6075 11.4227 13.5817 11.4986 13.5817 11.5767V15.3528C13.5817 15.4465 13.6189 15.5363 13.6852 15.6026C13.7514 15.6688 13.8412 15.706 13.9349 15.706C13.9813 15.706 14.0272 15.6969 14.07 15.6791C14.1129 15.6614 14.1518 15.6354 14.1846 15.6026C14.2174 15.5698 14.2434 15.5308 14.2612 15.488C14.2789 15.4451 14.288 15.3992 14.288 15.3528ZM18.4834 15.7082C18.5297 15.7082 18.5757 15.699 18.6185 15.6813C18.6614 15.6635 18.7003 15.6375 18.7331 15.6047C18.7659 15.5719 18.7919 15.533 18.8096 15.4902C18.8274 15.4473 18.8365 15.4014 18.8365 15.355V11.9321H19.7026C19.7962 11.9321 19.8861 11.8949 19.9523 11.8287C20.0185 11.7624 20.0557 11.6726 20.0557 11.5789C20.0557 11.4853 20.0185 11.3954 19.9523 11.3292C19.8861 11.263 19.7962 11.2258 19.7026 11.2258H17.2641C17.1705 11.2258 17.0806 11.263 17.0144 11.3292C16.9482 11.3954 16.911 11.4853 16.911 11.5789C16.911 11.6726 16.9482 11.7624 17.0144 11.8287C17.0806 11.8949 17.1705 11.9321 17.2641 11.9321H18.1302V15.355C18.1302 15.4487 18.1674 15.5385 18.2336 15.6047C18.2999 15.6709 18.3897 15.7082 18.4834 15.7082Z" fill="#344CB7"/>
</svg>
