<svg width="24" height="24" viewBox="0 0 24 24" fill="none" xmlns="http://www.w3.org/2000/svg">
<path d="M21.8359 19.4875H20.5182C20.5179 19.4875 20.5176 19.4875 20.5174 19.4874C20.5172 19.4872 20.517 19.487 20.5168 19.4868C20.5166 19.4866 20.5165 19.4864 20.5165 19.4861C20.5165 19.4858 20.5165 19.4855 20.5166 19.4853L21.3303 17.2959C21.3422 17.2638 21.3543 17.2323 21.3661 17.2012C21.463 16.9477 21.5729 16.6603 21.4482 16.3862C21.3744 16.2239 21.2352 16.1043 21.0346 16.0308L19.749 15.5594C19.7474 15.5588 19.7459 15.5585 19.7443 15.5579C19.7425 15.5573 19.7409 15.5565 19.7391 15.5559L17.6423 14.8567C17.6204 14.8497 17.599 14.8415 17.5781 14.832C17.5777 14.8318 17.5775 14.8315 17.5774 14.8311C17.567 14.7962 17.5539 14.7283 17.5439 14.676L17.0302 12.0264V12.0258L17.4141 10.0917C17.4142 10.0915 17.4143 10.0913 17.4144 10.0911C17.4145 10.0909 17.4147 10.0907 17.4149 10.0906C17.4151 10.0905 17.4154 10.0904 17.4156 10.0904C17.4158 10.0904 17.4161 10.0904 17.4163 10.0905L17.7214 10.1945C17.7218 10.1946 17.7221 10.1948 17.7223 10.1951C17.7225 10.1954 17.7226 10.1957 17.7226 10.1961V11.6303C17.7226 12.3274 18.2852 12.8961 18.9758 12.8979H18.9824C19.316 12.8979 19.6438 12.7621 19.8826 12.5246C20.1223 12.2862 20.2543 11.9714 20.2543 11.6383V9.25562C20.2543 9.25098 20.2542 9.24638 20.254 9.2417C20.2336 8.72452 19.8899 8.26384 19.3981 8.09513L17.0487 7.29526C17.0483 7.29515 17.048 7.29494 17.0478 7.29465L16.471 6.46459C16.4709 6.46441 16.4708 6.46421 16.4707 6.46399C16.4707 6.46378 16.4707 6.46356 16.4707 6.46335C16.4708 6.46314 16.4708 6.46293 16.471 6.46275C16.4711 6.46257 16.4712 6.46241 16.4714 6.46229C16.9084 6.16388 17.2504 5.7294 17.4901 5.16479C17.4934 5.15684 17.4964 5.14877 17.4991 5.1406C17.4995 5.13962 17.5 5.13877 17.5003 5.13779L17.5011 5.13531L17.5018 5.1331C17.8343 4.12566 17.8837 3.20007 17.6443 2.45621C17.3874 1.65723 16.8088 1.07846 15.9715 0.78254C15.574 0.641587 15.1861 0.644915 14.7752 0.648337C14.1923 0.653258 13.5309 0.658837 12.6578 0.224587C12.5762 0.183969 12.4821 0.176624 12.3952 0.204103C12.3084 0.231582 12.2356 0.291735 12.1922 0.371868C11.781 1.13054 11.8724 1.8421 12.4329 2.37221C12.4332 2.37247 12.4334 2.37283 12.4334 2.37322C12.4335 2.37361 12.4334 2.374 12.4331 2.37432C12.0939 2.85995 11.9097 3.43688 11.9097 4.03365C11.9097 5.00382 12.4757 5.94971 13.3513 6.49426C13.3521 6.49473 13.3523 6.49576 13.3518 6.49655L12.4533 7.90388C12.4531 7.90411 12.4529 7.9043 12.4527 7.90444C12.4524 7.90458 12.4522 7.90466 12.4519 7.90468L11.6995 7.90848C11.6993 7.90847 11.699 7.9084 11.6987 7.90827C11.6985 7.90814 11.6983 7.90795 11.6981 7.90773L10.8469 6.67098C10.4521 6.09798 9.66348 5.95229 9.0886 6.34632C8.80768 6.53954 8.61976 6.83176 8.55952 7.16926C8.50018 7.5016 8.57358 7.83469 8.76605 8.10713L10.0933 9.98626L10.0964 9.99062C10.4636 10.4941 10.7851 10.4952 11.233 10.4966H12.2976C12.2985 10.4966 12.2993 10.4974 12.2993 10.4983L12.3022 11.8771C12.3022 11.8775 12.302 11.8779 12.3017 11.8783L10.7943 13.3504L10.7941 13.3507C10.4268 13.71 10.2406 14.1429 10.2406 14.6372V17.6504C10.2406 17.6512 10.2402 17.6518 10.2394 17.652C9.89907 17.7414 9.49065 17.95 9.15877 18.2953C8.83796 18.6291 8.64512 19.0358 8.5898 19.4862C8.58976 19.4866 8.58956 19.487 8.58926 19.4872C8.58896 19.4875 8.58857 19.4876 8.58816 19.4876H7.10729C7.10684 19.4876 7.10641 19.4875 7.1061 19.4871C7.10578 19.4868 7.1056 19.4864 7.1056 19.4859V19.341C7.1056 18.0504 6.12943 16.9839 4.87627 16.8385C4.87587 16.8385 4.8755 16.8383 4.87523 16.838C4.87496 16.8377 4.87482 16.8373 4.87482 16.8369V10.4668C4.87482 10.4656 4.87623 10.4647 4.87735 10.4654L5.52694 10.8339C5.7294 10.9487 5.95332 11.0032 6.17583 11.0032C6.62115 11.0032 7.06098 10.7847 7.31199 10.3935C7.49991 10.1029 7.55865 9.76055 7.47746 9.42952C7.39623 9.0984 7.18566 8.82193 6.88458 8.65121L1.98741 5.87335C1.38104 5.52957 0.57971 5.72654 0.200772 6.31285C0.0129911 6.60413 -0.0456496 6.94674 0.0357723 7.27759C0.1171 7.6081 0.327569 7.8841 0.628413 8.05468L2.2231 8.95941C2.22336 8.95956 2.22357 8.95977 2.22372 8.96002C2.22387 8.96028 2.22395 8.96057 2.22394 8.96087V12.4149C2.22394 12.6084 2.37296 12.7777 2.56627 12.7827C2.6132 12.7839 2.6599 12.7757 2.70361 12.7586C2.74733 12.7415 2.78718 12.7158 2.82081 12.6831C2.85443 12.6503 2.88116 12.6112 2.89941 12.5679C2.91766 12.5247 2.92707 12.4782 2.92707 12.4313V9.3617C2.92707 9.36043 2.92848 9.35959 2.9296 9.36024L4.17099 10.0645C4.17125 10.0647 4.17146 10.0649 4.17161 10.0651C4.17176 10.0654 4.17184 10.0657 4.17183 10.066V16.8193C4.17183 16.8202 4.17108 16.821 4.17015 16.821H2.92871C2.92826 16.821 2.92783 16.8208 2.92752 16.8205C2.9272 16.8202 2.92702 16.8197 2.92702 16.8193V14.1752C2.92702 13.9818 2.77801 13.8125 2.58469 13.8075C2.53777 13.8063 2.49107 13.8145 2.44735 13.8316C2.40364 13.8487 2.36379 13.8744 2.33016 13.9071C2.29653 13.9399 2.26981 13.979 2.25155 14.0223C2.2333 14.0655 2.2239 14.112 2.2239 14.1589V16.8192C2.2239 16.8202 2.22315 16.8209 2.22221 16.8209H1.01269C0.568085 16.8209 0.207663 17.1813 0.207663 17.6259V23.0076C0.207663 23.452 0.567897 23.8122 1.01223 23.8122H21.8359C23.0292 23.8122 24 22.8421 24 21.6498C24 20.4575 23.0292 19.4875 21.8359 19.4875ZM11.2323 9.79346C10.831 9.79219 10.822 9.79215 10.666 9.57835L9.34032 7.70138C9.25716 7.58363 9.22566 7.43855 9.25168 7.29273C9.27858 7.14179 9.36216 7.01138 9.48657 6.92588C9.74204 6.75071 10.0926 6.81535 10.2678 7.0696L11.1924 8.41299C11.314 8.58793 11.4494 8.61207 11.5794 8.61207L12.2936 8.60851C12.2945 8.60851 12.2953 8.60926 12.2953 8.6102L12.2978 9.79177C12.2978 9.79271 12.2971 9.79346 12.2961 9.79346H11.2323ZM0.718507 7.10959C0.683819 6.96854 0.709788 6.82088 0.791491 6.69418C0.910179 6.51057 1.12402 6.40698 1.3374 6.40698C1.44235 6.40698 1.54721 6.43205 1.64058 6.48498L6.53785 9.26279L6.5379 9.26284C6.66887 9.33709 6.76009 9.45577 6.79473 9.59705C6.82927 9.73815 6.8034 9.88538 6.72104 10.0128C6.54512 10.287 6.15708 10.3828 5.87396 10.2223L0.975288 7.4431C0.844272 7.3688 0.7531 7.2504 0.718507 7.10959ZM20.7954 16.6978C20.7804 16.7647 20.739 16.8729 20.7095 16.9502C20.6968 16.9835 20.6838 17.0174 20.6712 17.0514L19.7661 19.4865C19.766 19.4868 19.7658 19.4871 19.7655 19.4872C19.7652 19.4874 19.7649 19.4875 19.7645 19.4875H19.5542C19.5183 19.4875 19.4437 19.4875 19.3534 19.3562C19.1103 19.0027 19.0987 18.2451 19.17 18.0541L19.1848 18.017L19.1865 18.0128L19.8311 16.3401C19.8313 16.3397 19.8316 16.3393 19.832 16.3392C19.8324 16.339 19.8328 16.3389 19.8332 16.3391L20.7912 16.6903L20.7954 16.6978ZM17.4201 15.5238L19.1659 16.1059C19.1661 16.106 19.1663 16.1061 19.1665 16.1063C19.1666 16.1064 19.1668 16.1066 19.1669 16.1068C19.167 16.107 19.167 16.1072 19.167 16.1075C19.167 16.1077 19.167 16.1079 19.1669 16.1081L19.023 16.4817L18.6528 17.4422C18.6527 17.4426 18.6524 17.443 18.652 17.4432C18.6516 17.4433 18.6511 17.4434 18.6507 17.4432L15.5476 16.3766C15.3369 16.3041 15.2826 16.2304 15.2095 16.0807L14.6113 14.8423C14.6111 14.8419 14.611 14.8415 14.6112 14.8411C14.6113 14.8407 14.6116 14.8403 14.6119 14.8401C15.1669 14.5389 16.0157 14.0618 16.552 13.2689C16.5522 13.2686 16.5525 13.2684 16.5528 13.2682C16.5531 13.2681 16.5534 13.2681 16.5537 13.2681C16.5541 13.2682 16.5544 13.2684 16.5546 13.2686C16.5548 13.2688 16.555 13.2692 16.555 13.2695L16.8536 14.8093C16.9091 15.0982 16.9616 15.3711 17.4201 15.5238ZM16.5915 7.91396C16.6394 7.91396 16.6881 7.92019 16.7364 7.93309L16.7448 7.93524L16.7458 7.93548L16.7502 7.93646C16.7556 7.93791 16.7611 7.93998 16.7664 7.94185L16.7717 7.94373L19.1707 8.76043C19.3874 8.83482 19.5397 9.03648 19.5512 9.26344V11.6383C19.5512 11.7829 19.4928 11.9206 19.3868 12.0261C19.2788 12.1334 19.1317 12.1948 18.9816 12.1948H18.9787C18.6737 12.194 18.4257 11.9407 18.4257 11.6303V10.1034C18.4257 10.0921 18.4264 10.0815 18.4269 10.0717C18.4439 9.74644 18.2485 9.63085 18.131 9.59105L16.4101 9.00455L16.4098 9.00446C16.2684 8.95632 16.154 8.8553 16.0876 8.72007C16.0214 8.5854 16.0114 8.43409 16.0595 8.29341C16.1383 8.06237 16.3567 7.91396 16.5915 7.91396ZM12.6806 1.00881C12.6807 1.00857 12.6808 1.00836 12.681 1.00817C12.6811 1.00799 12.6813 1.00784 12.6816 1.00773C12.6818 1.00763 12.682 1.00757 12.6823 1.00756C12.6825 1.00755 12.6827 1.00759 12.683 1.00768C13.5437 1.36173 14.2228 1.35615 14.7811 1.35132C15.1434 1.34837 15.456 1.3457 15.737 1.44526C16.9692 1.88082 17.1595 2.94376 17.0688 3.84099C17.0688 3.84131 17.0687 3.84161 17.0685 3.84186C17.0683 3.84211 17.068 3.8423 17.0677 3.8424C17.0674 3.8425 17.0671 3.84251 17.0668 3.84242C17.0665 3.84234 17.0662 3.84217 17.066 3.84193C16.9695 3.73336 16.8577 3.63937 16.7342 3.56288L16.7338 3.56256C16.341 3.08401 15.7899 2.64929 15.0642 2.59412C14.4716 2.54921 13.6502 2.37587 13.1226 2.02398L13.1218 2.02346C12.6982 1.74268 12.5553 1.42201 12.6806 1.00881ZM12.6129 4.03356C12.6129 3.58287 12.7519 3.14314 13.0108 2.77426L13.0134 2.7736C13.7836 3.1727 14.7174 3.27296 15.0111 3.29523C16.0166 3.37159 16.6162 4.61396 16.785 5.01713C16.7851 5.01734 16.7851 5.01757 16.7851 5.01779C16.7851 5.01802 16.7851 5.01824 16.785 5.01845C16.5546 5.49718 16.2284 5.83745 15.8131 6.03113C15.5296 6.16449 15.1939 6.23209 14.8152 6.23209C14.5498 6.23209 14.2672 6.16749 13.9985 6.04548C13.3088 5.73113 12.6129 4.98713 12.6129 4.03356ZM13.9932 6.79852C13.9934 6.79821 13.9937 6.79797 13.994 6.79785C13.9944 6.79773 13.9948 6.79774 13.9951 6.79787C14.2673 6.88801 14.5461 6.93526 14.8152 6.93526C15.1831 6.93526 15.5238 6.88257 15.832 6.7793C15.8323 6.77919 15.8327 6.77919 15.833 6.7793C15.8334 6.77941 15.8337 6.77962 15.8339 6.77991L16.1803 7.27843C16.1804 7.27864 16.1805 7.27887 16.1805 7.27912C16.1806 7.27937 16.1806 7.27963 16.1805 7.27987C16.1804 7.28011 16.1803 7.28033 16.1801 7.28051C16.1799 7.28069 16.1797 7.28083 16.1795 7.28091C15.8219 7.40462 15.5238 7.68559 15.3941 8.0664C15.2854 8.38445 15.3075 8.72673 15.4565 9.0301C15.6058 9.33409 15.8639 9.56143 16.1833 9.67013L16.7418 9.86054C16.7422 9.86068 16.7425 9.86094 16.7427 9.8613C16.7429 9.86165 16.743 9.86206 16.7429 9.86246L16.3836 11.6725C16.3835 11.6729 16.3833 11.6733 16.383 11.6735C16.3827 11.6738 16.3824 11.6739 16.382 11.6739H13.0067C13.0062 11.6739 13.0058 11.6737 13.0055 11.6734C13.0052 11.6731 13.005 11.6727 13.005 11.6722L12.9979 8.35801C12.9979 8.35769 12.998 8.35737 12.9982 8.35712L13.9932 6.79852ZM10.9438 14.6371C10.9438 14.3349 11.0557 14.0785 11.2857 13.8534L12.7968 12.3774C12.797 12.3773 12.7972 12.3772 12.7974 12.3771C12.7976 12.377 12.7978 12.377 12.798 12.377H16.221C16.2221 12.377 16.223 12.3782 16.2226 12.3793C15.8707 13.3586 14.8563 13.9081 14.2208 14.2524C14.1315 14.3008 14.0472 14.3465 13.9774 14.3865L12.8339 15.0254C12.3575 15.2917 12.2702 15.4311 12.2842 15.9034C12.2859 15.9615 12.2878 16.0274 12.2878 16.1065L12.2943 17.5987C12.2943 17.5996 12.2936 17.6004 12.2926 17.6004H10.9456C10.9451 17.6004 10.9447 17.6002 10.9444 17.5999C10.944 17.5996 10.9439 17.5992 10.9439 17.5987V14.6371H10.9438ZM9.66577 18.7825C9.97979 18.4557 10.4043 18.3035 10.5923 18.3035H12.2948C12.2958 18.3035 12.2965 18.3043 12.2965 18.3052L12.2991 19.4859C12.2991 19.4868 12.2984 19.4876 12.2974 19.4876H9.30184C9.30159 19.4876 9.30134 19.4875 9.30111 19.4874C9.30089 19.4873 9.30069 19.4872 9.30053 19.487C9.30037 19.4868 9.30025 19.4866 9.30019 19.4863C9.30012 19.4861 9.30011 19.4858 9.30015 19.4856C9.34894 19.2204 9.47129 18.9849 9.66577 18.7825ZM0.910741 23.0072V17.626C0.910815 17.599 0.921576 17.5731 0.940671 17.554C0.959766 17.5349 0.985643 17.5242 1.01265 17.5241H4.58363C5.58657 17.5241 6.40252 18.3391 6.40252 19.3409V23.1075C6.40252 23.1084 6.40177 23.1092 6.40084 23.1092H1.01269C0.985677 23.1091 0.959795 23.0983 0.940695 23.0792C0.921595 23.0601 0.910828 23.0342 0.910741 23.0072ZM21.8359 23.1091H7.10738C7.10693 23.1091 7.10651 23.109 7.10619 23.1087C7.10587 23.1083 7.10569 23.1079 7.10569 23.1075V22.0031C7.10569 22.0022 7.10644 22.0014 7.10738 22.0014H21.8612C22.0546 22.0014 22.224 21.8524 22.2289 21.6591C22.2302 21.6122 22.222 21.5655 22.2049 21.5218C22.1878 21.4781 22.1621 21.4382 22.1293 21.4046C22.0966 21.371 22.0574 21.3442 22.0142 21.326C21.9709 21.3077 21.9245 21.2983 21.8775 21.2983H7.10738C7.10693 21.2983 7.10651 21.2981 7.10619 21.2978C7.10587 21.2975 7.10569 21.2971 7.10569 21.2966V20.1923C7.10569 20.1914 7.10644 20.1906 7.10738 20.1906H15.126C15.3194 20.1906 15.4887 20.0416 15.4937 19.8483C15.4949 19.8014 15.4868 19.7547 15.4696 19.7109C15.4525 19.6672 15.4269 19.6274 15.3941 19.5938C15.3613 19.5601 15.3222 19.5334 15.2789 19.5151C15.2357 19.4969 15.1892 19.4875 15.1423 19.4875H13.0039C13.0035 19.4875 13.0031 19.4873 13.0027 19.487C13.0024 19.4867 13.0022 19.4863 13.0022 19.4858L12.999 17.9841V17.9519L12.9989 17.9512L12.999 17.9504L12.9909 16.1049C12.9909 16.0169 12.9887 15.9424 12.9869 15.8826C12.9864 15.8626 12.9857 15.8417 12.9853 15.8219C12.9848 15.8006 12.9899 15.7797 13.0002 15.7611C13.0104 15.7425 13.0254 15.7269 13.0435 15.7159C13.0875 15.6895 13.132 15.6639 13.1769 15.6391L13.9931 15.1831C13.9933 15.1829 13.9935 15.1829 13.9937 15.1829C13.994 15.1828 13.9942 15.1829 13.9944 15.1829C13.9946 15.183 13.9948 15.1831 13.995 15.1833C13.9952 15.1834 13.9953 15.1836 13.9954 15.1838L14.577 16.3876C14.6983 16.6364 14.8721 16.8877 15.319 17.0415L18.445 18.1159C18.4458 18.1162 18.4463 18.1169 18.4462 18.1177C18.4039 18.4967 18.4406 19.0474 18.6281 19.4852C18.6282 19.4854 18.6282 19.4857 18.6282 19.486C18.6282 19.4863 18.6281 19.4865 18.628 19.4867C18.6278 19.487 18.6276 19.4872 18.6274 19.4873C18.6271 19.4874 18.6269 19.4875 18.6266 19.4875H16.8262C16.6328 19.4875 16.4634 19.6365 16.4585 19.8298C16.4572 19.8767 16.4654 19.9234 16.4825 19.9672C16.4996 20.0109 16.5253 20.0507 16.5581 20.0844C16.5908 20.118 16.63 20.1447 16.6732 20.163C16.7165 20.1812 16.763 20.1906 16.8099 20.1906H21.836C22.6415 20.1906 23.2969 20.8452 23.2969 21.6498C23.2968 22.4545 22.6415 23.1091 21.8359 23.1091Z" fill="black"/>
<path d="M3.60166 20.8524H2.90074C2.70733 20.8524 2.53797 21.0014 2.533 21.1948C2.53177 21.2417 2.53995 21.2884 2.55705 21.3321C2.57416 21.3758 2.59985 21.4157 2.6326 21.4493C2.66536 21.4829 2.70451 21.5096 2.74776 21.5279C2.79101 21.5461 2.83748 21.5556 2.88443 21.5556H3.58539C3.7788 21.5556 3.94816 21.4065 3.95313 21.2132C3.95436 21.1663 3.94618 21.1196 3.92907 21.0759C3.91197 21.0322 3.88627 20.9923 3.85351 20.9587C3.82076 20.925 3.78159 20.8983 3.73834 20.8801C3.69508 20.8618 3.64861 20.8524 3.60166 20.8524ZM3.60232 19.1917H2.90008C2.70668 19.1917 2.53732 19.3407 2.53235 19.534C2.53111 19.5809 2.53929 19.6276 2.5564 19.6713C2.5735 19.715 2.59919 19.7549 2.63195 19.7885C2.6647 19.8221 2.70386 19.8489 2.74711 19.8671C2.79036 19.8854 2.83683 19.8948 2.88377 19.8948H3.586C3.77941 19.8948 3.94877 19.7458 3.95374 19.5524C3.95498 19.5055 3.9468 19.4588 3.9297 19.4151C3.9126 19.3714 3.88691 19.3315 3.85415 19.2979C3.8214 19.2643 3.78224 19.2375 3.73899 19.2193C3.69573 19.201 3.64926 19.1916 3.60232 19.1917Z" fill="#344CB7"/>
</svg>
