<svg width="24" height="24" viewBox="0 0 24 24" fill="none" xmlns="http://www.w3.org/2000/svg">
<path d="M18.8 9.59996H13.2C13.0236 9.59996 12.8492 9.60916 12.6772 9.62636L12.7708 8.39996H12.8C13.0122 8.39996 13.2157 8.31567 13.3657 8.16564C13.5157 8.01562 13.6 7.81213 13.6 7.59996V6.39996C13.6 6.18779 13.5157 5.9843 13.3657 5.83427C13.2157 5.68425 13.0122 5.59996 12.8 5.59996H12.6472L12.1788 4.66316C12.0797 4.46341 11.9267 4.2954 11.737 4.17818C11.5473 4.06097 11.3286 3.99923 11.1056 3.99996H8V1.83996C7.99915 1.57943 7.91392 1.32618 7.75708 1.11815C7.60024 0.910114 7.38024 0.758482 7.13 0.685959L4.8576 0.0363594C4.61547 -0.0320558 4.35611 -0.00183622 4.13619 0.120413C3.91628 0.242662 3.7537 0.446998 3.684 0.688759L3.5464 1.17076C3.4777 1.41306 3.50794 1.67271 3.63047 1.89274C3.75301 2.11277 3.95784 2.27519 4.2 2.34436L5.6 2.74436V3.99996H2.4944C2.27142 3.99923 2.0527 4.06097 1.86302 4.17818C1.67334 4.2954 1.52028 4.46341 1.4212 4.66316L0.9528 5.59996H0.8C0.587827 5.59996 0.384344 5.68425 0.234315 5.83427C0.0842855 5.9843 0 6.18779 0 6.39996L0 7.59996C0 7.81213 0.0842855 8.01562 0.234315 8.16564C0.384344 8.31567 0.587827 8.39996 0.8 8.39996H0.8296L1.9172 22.5232C1.94985 22.9243 2.13181 23.2986 2.4271 23.572C2.7224 23.8455 3.10954 23.9982 3.512 24H10.088C10.2394 23.9982 10.3898 23.9743 10.5344 23.9292C10.7532 23.9762 10.9763 23.9999 11.2 24H20.8C21.6484 23.999 22.4618 23.6616 23.0617 23.0616C23.6616 22.4617 23.999 21.6484 24 20.8V20.4C23.9994 20.2252 23.9604 20.0527 23.8857 19.8947C23.8111 19.7367 23.7026 19.597 23.568 19.4856C23.8456 19.1921 24.0002 18.8035 24.0002 18.3996C24.0002 17.9956 23.8456 17.607 23.568 17.3136C23.5928 17.2924 23.6204 17.2736 23.6432 17.2508C23.7693 17.1277 23.8663 16.978 23.9273 16.8127C23.9882 16.6474 24.0116 16.4706 23.9956 16.2952C23.9713 16.0372 23.861 15.7949 23.6824 15.6072C23.8859 15.3875 23.9993 15.0994 24 14.8C23.9984 13.4213 23.45 12.0996 22.4752 11.1248C21.5004 10.1499 20.1786 9.60155 18.8 9.59996ZM23.2 16.3632C23.2055 16.4221 23.1975 16.4815 23.1768 16.5369C23.156 16.5924 23.1229 16.6424 23.08 16.6832C23.0437 16.7206 23.0002 16.7503 22.952 16.7704C22.9039 16.7905 22.8522 16.8006 22.8 16.8H21.1672C20.8387 16.8004 20.5201 16.9121 20.2632 17.1168L19.2028 17.9632C19.1737 17.9864 19.1375 17.9991 19.1002 17.9991C19.0629 17.9991 19.0267 17.9864 18.9976 17.9632L17.9368 17.1164C17.6798 16.9119 17.3612 16.8003 17.0328 16.8H9.2448C9.13914 16.8043 9.03555 16.7697 8.95361 16.7029C8.87166 16.6361 8.81702 16.5415 8.8 16.4372C8.79417 16.3778 8.80195 16.318 8.82274 16.2621C8.84354 16.2062 8.8768 16.1558 8.92 16.1148C8.95653 16.0777 9.00017 16.0485 9.04828 16.0288C9.0964 16.009 9.148 15.9992 9.2 16H22.7552C22.8608 15.9957 22.9644 16.0303 23.0463 16.0971C23.1282 16.1639 23.1829 16.2588 23.2 16.3632ZM8.8 18.4C8.8 18.1878 8.88429 17.9843 9.03431 17.8343C9.18434 17.6842 9.38783 17.6 9.6 17.6H17.0328C17.1798 17.6002 17.3225 17.6501 17.4376 17.7416L18.4988 18.5892C18.6693 18.7262 18.8815 18.8009 19.1002 18.8009C19.3189 18.8009 19.5311 18.7262 19.7016 18.5892L20.7624 17.742C20.8775 17.6503 21.0201 17.6003 21.1672 17.6H22.4C22.6122 17.6 22.8157 17.6842 22.9657 17.8343C23.1157 17.9843 23.2 18.1878 23.2 18.4C23.2 18.6121 23.1157 18.8156 22.9657 18.9656C22.8157 19.1157 22.6122 19.2 22.4 19.2H9.6C9.38783 19.2 9.18434 19.1157 9.03431 18.9656C8.88429 18.8156 8.8 18.6121 8.8 18.4ZM18.8 10.4C19.9665 10.4013 21.0849 10.8653 21.9098 11.6902C22.7346 12.5151 23.1986 13.6334 23.2 14.8C23.2 14.906 23.1579 15.0078 23.0828 15.0828C23.0078 15.1578 22.9061 15.2 22.8 15.2H9.2C9.09391 15.2 8.99217 15.1578 8.91716 15.0828C8.84214 15.0078 8.8 14.906 8.8 14.8C8.80138 13.6334 9.26539 12.5151 10.0903 11.6902C10.9151 10.8653 12.0335 10.4013 13.2 10.4H18.8ZM6.11 2.05836L4.4184 1.57516C4.38033 1.56418 4.34816 1.53858 4.3289 1.50396C4.30964 1.46933 4.30486 1.42849 4.3156 1.39036L4.4532 0.910359C4.46463 0.872602 4.49032 0.840786 4.52482 0.821666C4.55933 0.802546 4.59993 0.797629 4.638 0.807959L6.91 1.45716C6.99326 1.48097 7.06655 1.53117 7.11884 1.6002C7.17114 1.66922 7.19961 1.75336 7.2 1.83996V3.99996H6.4V2.44276C6.39996 2.35589 6.37164 2.27139 6.31932 2.20203C6.267 2.13268 6.19352 2.08225 6.11 2.05836ZM2.1368 5.02116C2.16977 4.95455 2.22076 4.89852 2.28397 4.85942C2.34717 4.82032 2.42008 4.79972 2.4944 4.79996H11.1056C11.1799 4.79972 11.2528 4.82032 11.316 4.85942C11.3792 4.89852 11.4302 4.95455 11.4632 5.02116L11.7528 5.59996H1.8472L2.1368 5.02116ZM0.8 6.39996H12.8V7.59996H0.8V6.39996ZM3.512 23.2C3.31074 23.199 3.11717 23.1226 2.96955 22.9858C2.82194 22.849 2.73103 22.6618 2.7148 22.4612L1.632 8.39996H11.9684L11.8628 9.78076C10.7564 10.0759 9.77828 10.7276 9.07992 11.6351C8.38156 12.5425 8.00198 13.6549 8 14.8C8.00094 15.097 8.11278 15.383 8.3136 15.602C8.20231 15.7228 8.11735 15.8654 8.06412 16.0209C8.01089 16.1763 7.99056 16.3411 8.0044 16.5048C8.01913 16.6608 8.06503 16.8123 8.13937 16.9502C8.21371 17.0882 8.31499 17.2098 8.4372 17.308C8.15747 17.6011 8.00097 17.9905 8.00001 18.3957C7.99904 18.8009 8.15368 19.1911 8.432 19.4856C8.29738 19.597 8.18891 19.7367 8.11426 19.8947C8.03961 20.0527 8.0006 20.2252 8 20.4V20.8C8.00026 21.2546 8.09768 21.7039 8.28573 22.1178C8.47379 22.5318 8.74814 22.9007 9.0904 23.2H3.512ZM23.2 20.8C23.1994 21.4363 22.9463 22.0464 22.4964 22.4963C22.0464 22.9463 21.4363 23.1993 20.8 23.2H11.2C10.5637 23.1993 9.9536 22.9463 9.50365 22.4963C9.0537 22.0464 8.80064 21.4363 8.8 20.8V20.4C8.8 20.2939 8.84214 20.1921 8.91716 20.1171C8.99217 20.0421 9.09391 20 9.2 20H22.8C22.9061 20 23.0078 20.0421 23.0828 20.1171C23.1579 20.1921 23.2 20.2939 23.2 20.4V20.8Z" fill="black"/>
<path d="M14 12H14.4C14.5061 12 14.6079 11.9578 14.6829 11.8828C14.7579 11.8078 14.8 11.706 14.8 11.6C14.8 11.4939 14.7579 11.3921 14.6829 11.3171C14.6079 11.2421 14.5061 11.2 14.4 11.2H14C13.8939 11.2 13.7922 11.2421 13.7172 11.3171C13.6422 11.3921 13.6 11.4939 13.6 11.6C13.6 11.706 13.6422 11.8078 13.7172 11.8828C13.7922 11.9578 13.8939 12 14 12ZM12.8 13.6H13.2C13.3061 13.6 13.4079 13.5578 13.4829 13.4828C13.5579 13.4078 13.6 13.306 13.6 13.2C13.6 13.0939 13.5579 12.9921 13.4829 12.9171C13.4079 12.8421 13.3061 12.8 13.2 12.8H12.8C12.6939 12.8 12.5922 12.8421 12.5172 12.9171C12.4422 12.9921 12.4 13.0939 12.4 13.2C12.4 13.306 12.4422 13.4078 12.5172 13.4828C12.5922 13.5578 12.6939 13.6 12.8 13.6ZM16.4 13.2H16.8C16.9061 13.2 17.0079 13.1578 17.0829 13.0828C17.1579 13.0078 17.2 12.906 17.2 12.8C17.2 12.6939 17.1579 12.5921 17.0829 12.5171C17.0079 12.4421 16.9061 12.4 16.8 12.4H16.4C16.2939 12.4 16.1922 12.4421 16.1172 12.5171C16.0422 12.5921 16 12.6939 16 12.8C16 12.906 16.0422 13.0078 16.1172 13.0828C16.1922 13.1578 16.2939 13.2 16.4 13.2Z" fill="#344CB7"/>
</svg>
