<svg width="23" height="24" viewBox="0 0 23 24" fill="none" xmlns="http://www.w3.org/2000/svg">
<path d="M18.392 3.72372L19.1527 3.47607L19.934 5.87622L19.1732 6.12372L18.392 3.72372ZM17.2195 6.52407L17.9802 6.27642L18.7617 8.67622L18.001 8.92407L17.2195 6.52407Z" fill="#344CB7"/>
<path d="M3.73128 7.69057C3.68951 7.99278 3.71164 8.30039 3.79626 8.59351C3.88087 8.88662 4.02608 9.15871 4.22248 9.39217L4.80003 10.1166V16.7998H5.60003V10.7474L6.17798 11.1326C6.24374 11.1764 6.321 11.1998 6.40003 11.1998C6.47906 11.1998 6.55632 11.1764 6.62208 11.1326L7.60003 10.4799L8.57798 11.1318C8.64374 11.1756 8.721 11.199 8.80003 11.199C8.87906 11.199 8.95632 11.1756 9.02208 11.1318L10 10.4798L10.978 11.1318C11.0437 11.1756 11.121 11.199 11.2 11.199C11.2791 11.199 11.3563 11.1756 11.4221 11.1318L12.4 10.4798L13.378 11.1318C13.4437 11.1756 13.521 11.199 13.6 11.199C13.6791 11.199 13.7563 11.1756 13.8221 11.1318L14.8 10.4798L15.6 11.013V23.1998H6.80003V23.9998H18C19.1041 23.9984 19.9987 23.1039 20 21.9998V9.99977C19.999 9.9118 19.9688 9.82667 19.9141 9.75777L22.2256 3.60387C22.3789 3.1966 22.4312 2.75827 22.3782 2.32636C22.3251 1.89445 22.1682 1.48182 21.9209 1.12377C21.6861 0.776587 21.3696 0.492479 20.9991 0.296471C20.6286 0.100462 20.2156 -0.00143159 19.7965 -0.000233699C18.7117 0.0099163 17.7455 0.687666 17.3668 1.70427L16.7397 3.37377L16 2.63412V1.19977C16 1.09368 15.9579 0.991938 15.8829 0.916924C15.8079 0.841909 15.7061 0.799766 15.6 0.799766H11.2C11.0939 0.799766 10.9922 0.841909 10.9172 0.916924C10.8422 0.991938 10.8 1.09368 10.8 1.19977V1.88612C10.3479 1.47632 9.66583 1.45312 9.18673 1.83142V1.19977C9.18673 0.545066 8.65608 0.0142663 8.00123 0.0142663C7.34653 0.0142663 6.81563 0.545066 6.81563 1.19977V1.83177C6.59669 1.65029 6.3211 1.55123 6.03673 1.55177C5.87329 1.55139 5.71145 1.58388 5.56083 1.64733C5.41021 1.71077 5.27389 1.80386 5.15998 1.92107C4.68558 2.40992 4.68263 3.18647 5.15318 3.67907L5.52563 4.06342C5.39011 4.12552 5.26706 4.21183 5.16253 4.31812L5.16003 4.31967L5.15608 4.32377C5.06285 4.41948 4.98581 4.52972 4.92798 4.65017L4.47208 3.80817L3.76838 4.18902L4.80278 6.09822C4.75648 6.12457 4.70998 6.15017 4.66603 6.18022C4.64963 6.19137 4.63518 6.20422 4.61918 6.21542L3.07133 4.78902L2.52893 5.37732L4.06643 6.79487C3.88987 7.06498 3.7754 7.37089 3.73128 7.69057ZM12.178 9.66697L11.2 10.3197L10.2221 9.66772C10.1563 9.62388 10.0791 9.60049 10 9.60049C9.921 9.60049 9.84374 9.62388 9.77798 9.66772L8.80923 10.3138C8.80688 10.2738 8.80003 10.239 8.80003 10.2006C8.79753 9.32147 9.43203 8.56967 10.299 8.42477C11.1662 8.27967 12.0108 8.78397 12.2944 9.61617C12.2531 9.62686 12.2139 9.644 12.178 9.66697ZM13.2 10.0525L13.1924 10.0475C13.1687 9.63311 13.046 9.23047 12.8346 8.87331C12.6232 8.51615 12.3293 8.21487 11.9774 7.99473C11.6256 7.77459 11.2261 7.642 10.8124 7.60808C10.3988 7.57415 9.98304 7.63989 9.60003 7.79977V5.19972H13.2V10.0525ZM19.2 21.9998C19.2 22.6625 18.6627 23.1998 18 23.1998H16.4V11.0138L17.2 10.4798L18.178 11.1318C18.2437 11.1756 18.321 11.199 18.4 11.199C18.4791 11.199 18.5563 11.1756 18.6221 11.1318L19.2 10.7474V21.9998ZM18.1156 1.98527C18.243 1.64085 18.4719 1.34316 18.772 1.13151C19.0721 0.919853 19.4293 0.804183 19.7965 0.799766C20.086 0.799214 20.3712 0.869836 20.627 1.00542C20.8828 1.141 21.1013 1.33737 21.2633 1.57727C21.4373 1.82929 21.5476 2.11971 21.5848 2.42368C21.622 2.72764 21.5849 3.03609 21.4768 3.32262L19 9.91967L18.4 10.3197L17.4221 9.66772C17.3563 9.62388 17.2791 9.60049 17.2 9.60049C17.121 9.60049 17.0437 9.62388 16.978 9.66772L16 10.3198L15.1885 9.77877L18.1156 1.98527ZM16.4309 4.19627L14.308 9.84702L14 10.0525V4.96537L15.6 3.36537L16.4309 4.19627ZM11.6 1.59977H15.2V2.39977H11.6V1.59977ZM11.3656 3.19977H14.6344L13.4344 4.39977H10.1656L11.3656 3.19977ZM5.73093 2.48217C5.77063 2.44118 5.81816 2.40858 5.8707 2.38631C5.92324 2.36404 5.97972 2.35255 6.03678 2.35252C6.09387 2.35257 6.15037 2.36407 6.20294 2.38634C6.25551 2.40861 6.30307 2.44119 6.34283 2.48217L6.93018 3.08217C6.98593 3.13902 7.05738 3.17794 7.13539 3.19394C7.21339 3.20995 7.29439 3.20232 7.36803 3.17202C7.44165 3.14164 7.50454 3.09 7.54865 3.02368C7.59276 2.95737 7.61608 2.87941 7.61563 2.79977V1.19977C7.61311 1.14757 7.62121 1.0954 7.63945 1.04643C7.65769 0.997454 7.68568 0.952693 7.72173 0.914859C7.75778 0.877025 7.80113 0.846905 7.84917 0.826325C7.89721 0.805745 7.94892 0.795133 8.00118 0.795133C8.05344 0.795133 8.10515 0.805745 8.15319 0.826325C8.20123 0.846905 8.24458 0.877025 8.28063 0.914859C8.31668 0.952693 8.34468 0.997454 8.36291 1.04643C8.38115 1.0954 8.38925 1.14757 8.38673 1.19977V2.79977C8.38681 2.87914 8.41053 2.95669 8.45484 3.02254C8.49916 3.08839 8.56208 3.13955 8.63558 3.16952C8.70903 3.19955 8.78974 3.20707 8.86747 3.1911C8.9452 3.17514 9.01642 3.13642 9.07208 3.07987L9.66118 2.47987C9.7422 2.39999 9.8514 2.35521 9.96518 2.35521C10.079 2.35521 10.1882 2.39999 10.2692 2.47987C10.3527 2.56538 10.3995 2.6802 10.3995 2.79977C10.3995 2.91933 10.3527 3.03415 10.2692 3.11967L9.09083 4.31967L9.10278 4.33182L8.91723 4.51732C8.88507 4.55057 8.85896 4.58918 8.84008 4.63142C8.83443 4.64372 8.83128 4.65622 8.82678 4.66892C8.81488 4.703 8.80765 4.73854 8.80528 4.77457C8.80528 4.78337 8.80043 4.79057 8.80043 4.79937V8.32772C8.70941 8.41473 8.62494 8.50833 8.54768 8.60777L7.79203 6.99977C7.6542 6.72545 7.45946 6.48367 7.22081 6.29056C6.98216 6.09744 6.70507 5.95743 6.40803 5.87987C6.26813 5.84366 6.12488 5.82193 5.98053 5.81502L5.87798 5.69487C5.79808 5.60327 5.73773 5.53182 5.72798 5.52187C5.67703 5.46851 5.63956 5.40375 5.6187 5.33298C5.59784 5.26221 5.59418 5.18748 5.60803 5.11502C5.62286 5.03155 5.6613 4.95408 5.71878 4.89177L5.72603 4.88492L5.73598 4.87417C5.80627 4.80531 5.8981 4.76272 5.99607 4.75354C6.09403 4.74436 6.19218 4.76916 6.27403 4.82377C6.35597 4.87845 6.4552 4.90098 6.55272 4.88703C6.65023 4.87308 6.73917 4.82364 6.80249 4.74818C6.86581 4.67272 6.89906 4.57654 6.89587 4.47809C6.89267 4.37963 6.85326 4.28581 6.78518 4.21462L5.72803 3.12342C5.64542 3.03694 5.59957 2.9218 5.60011 2.80221C5.60065 2.68262 5.64754 2.56789 5.73093 2.48217ZM4.52403 7.79977C4.54982 7.60804 4.61574 7.4239 4.71748 7.25937C4.81923 7.09483 4.95452 6.95359 5.11453 6.84487C5.27319 6.73759 5.45285 6.66529 5.64158 6.63276C5.83032 6.60024 6.02382 6.60823 6.20923 6.65622C6.39463 6.7043 6.56766 6.79129 6.71684 6.91142C6.86602 7.03154 6.98791 7.18204 7.07443 7.35292L8.09393 9.52457C8.06873 9.61816 8.04887 9.71312 8.03443 9.80897L7.82368 9.66812C7.75795 9.62426 7.6807 9.60086 7.60168 9.60086C7.52266 9.60086 7.44541 9.62426 7.37968 9.66812L6.40003 10.3197L5.51293 9.72767L5.42718 9.62027L6.45843 8.82302L5.96878 8.19022L4.92893 8.99452L4.84008 8.88377C4.71424 8.7354 4.62106 8.56219 4.56661 8.37543C4.51216 8.18866 4.49765 7.99251 4.52403 7.79977Z" fill="black"/>
<path d="M0.8541 23.0024C1.00308 23.3029 1.23328 23.5556 1.5186 23.7319C1.80392 23.9083 2.13294 24.0011 2.46835 24C2.74852 23.9996 3.0248 23.9344 3.2756 23.8096L3.6 23.6473L3.9248 23.8096C4.17546 23.9344 4.45161 23.9996 4.73165 24C5.06709 24.0011 5.39613 23.9083 5.68149 23.732C5.96684 23.5556 6.19708 23.3029 6.3461 23.0024L6.48555 22.7225C6.9539 21.7827 7.19843 20.7473 7.2 19.6973C7.19865 18.5395 6.2605 17.6014 5.10275 17.6C4.71244 17.6011 4.33031 17.712 4 17.9199V17.6C4 16.7164 3.2836 16 2.4 16V16.8C2.8418 16.8 3.2 17.1582 3.2 17.6V17.9199C2.86969 17.712 2.48756 17.6011 2.09725 17.6C0.9395 17.6014 0.00135 18.5395 0 19.6973C0.00139225 20.7475 0.245945 21.7833 0.7145 22.7233L0.8541 23.0024ZM2.09725 18.4C2.26767 18.3995 2.43649 18.4329 2.59393 18.4982C2.75137 18.5634 2.8943 18.6592 3.01445 18.7801L3.3172 19.0828C3.39224 19.1577 3.49395 19.1998 3.6 19.1998C3.70605 19.1998 3.80776 19.1577 3.8828 19.0828L4.18555 18.7801C4.36696 18.5987 4.5981 18.4751 4.84972 18.4251C5.10135 18.375 5.36216 18.4007 5.59919 18.4989C5.83622 18.5971 6.03881 18.7633 6.18136 18.9766C6.3239 19.19 6.39999 19.4407 6.4 19.6973C6.39901 20.6235 6.18331 21.5369 5.76985 22.3656L5.6304 22.6457C5.54722 22.8127 5.41897 22.9532 5.26014 23.0511C5.10132 23.1491 4.91825 23.2007 4.73165 23.2C4.57572 23.1998 4.42196 23.1635 4.2824 23.094L3.7789 22.842C3.72338 22.8142 3.66217 22.7998 3.6001 22.7998C3.53803 22.7998 3.47682 22.8142 3.4213 22.842L2.91795 23.094C2.77827 23.1635 2.62439 23.1998 2.46835 23.2C2.28159 23.2006 2.09842 23.1488 1.93956 23.0506C1.78071 22.9524 1.65253 22.8117 1.56955 22.6444L1.43005 22.3645C1.01681 21.536 0.80115 20.6231 0.8 19.6973C0.801 18.9813 1.38125 18.401 2.09725 18.4Z" fill="black"/>
</svg>
