<svg width="26" height="22" viewBox="0 0 26 22" fill="none" xmlns="http://www.w3.org/2000/svg">
<path d="M24.8126 10.0872L13.8128 0.309561C13.5889 0.110265 13.2997 0.000152588 13 0.000152588C12.7003 0.000152588 12.4111 0.110265 12.1872 0.309561L1.18741 10.0872C1.06752 10.1939 0.96982 10.3232 0.899897 10.4677C0.829973 10.6122 0.789194 10.7691 0.779888 10.9293C0.770582 11.0896 0.79293 11.2501 0.845658 11.4017C0.898385 11.5533 0.980459 11.693 1.08719 11.8129C1.19393 11.9328 1.32323 12.0305 1.46772 12.1005C1.61221 12.1704 1.76906 12.2112 1.92931 12.2205C2.08956 12.2298 2.25008 12.2074 2.40169 12.1547C2.5533 12.102 2.69305 12.0199 2.81294 11.9132L3.22238 11.5465V20.7778C3.22238 21.1019 3.35115 21.4128 3.58036 21.642C3.80956 21.8712 4.12044 22 4.44458 22H9.3334C9.65754 22 9.96842 21.8712 10.1976 21.642C10.4268 21.4128 10.5556 21.1019 10.5556 20.7778V17.1112C10.5556 16.787 10.6844 16.4762 10.9136 16.247C11.1428 16.0177 11.4537 15.889 11.7778 15.889H14.2222C14.5464 15.889 14.8572 16.0177 15.0864 16.247C15.3156 16.4762 15.4444 16.787 15.4444 17.1112V20.7778C15.4444 21.1019 15.5732 21.4128 15.8024 21.642C16.0316 21.8712 16.3425 22 16.6666 22H21.5554C21.8796 22 22.1904 21.8712 22.4197 21.642C22.6489 21.4128 22.7776 21.1019 22.7776 20.7778V11.5489L23.1871 11.9156C23.307 12.0223 23.4467 12.1044 23.5983 12.1571C23.7499 12.2099 23.9104 12.2322 24.0707 12.2229C24.2309 12.2136 24.3878 12.1728 24.5323 12.1029C24.6768 12.033 24.8061 11.9353 24.9128 11.8154C25.0196 11.6955 25.1016 11.5557 25.1544 11.4041C25.2071 11.2525 25.2294 11.092 25.2201 10.9317C25.2108 10.7715 25.17 10.6146 25.1001 10.4702C25.0302 10.3257 24.9325 10.1964 24.8126 10.0896V10.0872Z" fill="#344CB7"/>
</svg>
