<svg width="24" height="22" viewBox="0 0 24 22" fill="none" xmlns="http://www.w3.org/2000/svg">
<path d="M16.2025 10.2873H14.1877V8.27248C14.1904 7.86612 13.8632 7.53445 13.4568 7.53174H10.5482C10.1418 7.53174 9.81239 7.86118 9.81239 8.26754V10.2824H7.80251C7.39615 10.2796 7.06448 10.6068 7.06177 11.0132V13.9219C7.06177 14.3282 7.39121 14.6577 7.79757 14.6577H9.81239V16.6675C9.80967 17.0739 10.1369 17.4056 10.5432 17.4083H13.447C13.8533 17.4083 14.1828 17.0788 14.1828 16.6725V14.6577H16.1976C16.6039 14.6604 16.9356 14.3332 16.9383 13.9268V11.0231C16.9383 10.6167 16.6089 10.2873 16.2025 10.2873ZM15.9507 13.67H13.6939C13.5629 13.67 13.4373 13.722 13.3447 13.8146C13.2521 13.9073 13.2 14.0329 13.2 14.1638V16.4206H10.8V14.1638C10.8 14.0329 10.748 13.9073 10.6554 13.8146C10.5628 13.722 10.4372 13.67 10.3062 13.67H8.04942V11.2749H10.3062C10.4372 11.2749 10.5628 11.2229 10.6554 11.1303C10.748 11.0377 10.8 10.9121 10.8 10.7811V8.51939H13.1951V10.7762C13.1951 10.9072 13.2471 11.0328 13.3397 11.1254C13.4324 11.218 13.558 11.27 13.6889 11.27H15.9507V13.67Z" fill="#344CB7"/>
<path d="M20.5926 3.83795H16.5235V2.09967C16.5491 1.30646 15.9268 0.642637 15.1336 0.61702C15.0932 0.615713 15.0527 0.616105 15.0123 0.618193H8.98765C8.19506 0.576897 7.51907 1.18591 7.47772 1.97844C7.4756 2.01882 7.47521 2.05926 7.47654 2.09967V3.82807H3.40741C1.83704 3.82807 0 4.7219 0 7.23548V17.9762C0 20.4898 1.83704 21.3836 3.40741 21.3836H20.5926C22.163 21.3836 24 20.4898 24 17.9762V7.24535C24 4.73177 22.1679 3.83795 20.5926 3.83795ZM8.4642 2.09967C8.4642 1.95646 8.4642 1.57128 8.99259 1.57128H15.0123C15.5407 1.57128 15.5407 1.95153 15.5407 2.09967V3.82807H8.4642V2.09967ZM23.0123 17.9762C23.0123 20.1589 21.3235 20.396 20.5926 20.396H3.40741C2.68148 20.396 0.987654 20.1589 0.987654 17.9762V7.24535C0.987654 5.06264 2.67654 4.8256 3.40741 4.8256H20.5926C21.3185 4.8256 23.0123 5.06264 23.0123 7.24535V17.9762Z" fill="black"/>
</svg>
