<svg width="50" height="50" viewBox="0 0 50 50" fill="none" xmlns="http://www.w3.org/2000/svg">
<circle cx="25" cy="25" r="25" transform="rotate(-180 25 25)" fill="white"/>
<path d="M34.9998 24L17.4138 24L22.7068 18.707C22.8023 18.6147 22.8785 18.5044 22.9309 18.3824C22.9833 18.2604 23.0109 18.1292 23.012 17.9964C23.0132 17.8636 22.9879 17.7319 22.9376 17.609C22.8873 17.4861 22.8131 17.3745 22.7192 17.2806C22.6253 17.1867 22.5136 17.1125 22.3907 17.0622C22.2678 17.0119 22.1362 16.9866 22.0034 16.9877C21.8706 16.9889 21.7394 17.0165 21.6174 17.0689C21.4954 17.1213 21.385 17.1975 21.2928 17.293L14.2928 24.293C14.1053 24.4805 14 24.7348 14 25C14 25.2652 14.1053 25.5195 14.2928 25.707L21.2928 32.707C21.4814 32.8892 21.734 32.9899 21.9962 32.9877C22.2584 32.9854 22.5092 32.8802 22.6946 32.6948C22.88 32.5094 22.9852 32.2586 22.9875 31.9964C22.9897 31.7342 22.8889 31.4816 22.7068 31.293L17.4138 26L34.9998 26C35.265 26 35.5194 25.8946 35.7069 25.7071C35.8944 25.5196 35.9998 25.2652 35.9998 25C35.9998 24.7348 35.8944 24.4804 35.7069 24.2929C35.5194 24.1054 35.265 24 34.9998 24Z" fill="#344CB7"/>
</svg>
