<svg width="50" height="50" viewBox="0 0 50 50" fill="none" xmlns="http://www.w3.org/2000/svg">
<circle cx="25" cy="25" r="25" fill="white"/>
<path d="M15.0002 26L32.5862 26L27.2932 31.293C27.1977 31.3853 27.1215 31.4956 27.0691 31.6176C27.0167 31.7396 26.9891 31.8708 26.988 32.0036C26.9868 32.1364 27.0121 32.2681 27.0624 32.391C27.1127 32.5139 27.1869 32.6255 27.2808 32.7194C27.3747 32.8133 27.4864 32.8876 27.6093 32.9378C27.7322 32.9881 27.8638 33.0134 27.9966 33.0123C28.1294 33.0111 28.2606 32.9835 28.3826 32.9311C28.5046 32.8787 28.615 32.8025 28.7072 32.707L35.7072 25.707C35.8947 25.5195 36 25.2652 36 25C36 24.7348 35.8947 24.4805 35.7072 24.293L28.7072 17.293C28.5186 17.1109 28.266 17.0101 28.0038 17.0123C27.7416 17.0146 27.4908 17.1198 27.3054 17.3052C27.12 17.4906 27.0148 17.7414 27.0125 18.0036C27.0103 18.2658 27.1111 18.5184 27.2932 18.707L32.5862 24L15.0002 24C14.735 24 14.4806 24.1054 14.2931 24.2929C14.1056 24.4804 14.0002 24.7348 14.0002 25C14.0002 25.2652 14.1056 25.5196 14.2931 25.7071C14.4806 25.8947 14.735 26 15.0002 26Z" fill="#344CB7"/>
</svg>
