<svg width="327" height="235" viewBox="0 0 327 235" fill="none" xmlns="http://www.w3.org/2000/svg">
<path d="M326.733 213.975H0V214.138H326.733V213.975Z" fill="#EBEBEB"/>
<path d="M293.995 224.493H272.351V224.656H293.995V224.493Z" fill="#EBEBEB"/>
<path d="M216.44 226.266H210.76V226.43H216.44V226.266Z" fill="#EBEBEB"/>
<path d="M271.696 218.425H259.155V218.588H271.696V218.425Z" fill="#EBEBEB"/>
<path d="M62.5051 219.522H34.28V219.686H62.5051V219.522Z" fill="#EBEBEB"/>
<path d="M72.4619 219.522H68.3235V219.686H72.4619V219.522Z" fill="#EBEBEB"/>
<path d="M147.126 222.282H85.9116V222.445H147.126V222.282Z" fill="#EBEBEB"/>
<path d="M154.88 184.831H28.6968C26.6403 184.831 24.9668 183.158 24.9668 181.101V3.72995C24.9668 1.67349 26.6403 -3.05176e-05 28.6968 -3.05176e-05H154.88C156.936 -3.05176e-05 158.61 1.67349 158.61 3.72995V181.101C158.61 183.158 156.936 184.831 154.88 184.831ZM28.6968 0.163989C26.7298 0.163989 25.1302 1.76367 25.1302 3.7306V181.102C25.1302 183.069 26.7298 184.669 28.6968 184.669H154.88C156.847 184.669 158.446 183.069 158.446 181.102V3.72995C158.446 1.76367 156.847 0.163336 154.88 0.163336L28.6968 0.163989Z" fill="#EBEBEB"/>
<path d="M296.222 184.831H170.039C167.983 184.831 166.31 183.158 166.31 181.101V3.72995C166.31 1.67349 167.984 -3.05176e-05 170.039 -3.05176e-05H296.222C298.279 -3.05176e-05 299.952 1.67349 299.952 3.72995V181.101C299.953 183.158 298.279 184.831 296.222 184.831ZM170.039 0.163989C168.073 0.163989 166.473 1.76367 166.473 3.7306V181.102C166.473 183.069 168.073 184.669 170.039 184.669H296.222C298.189 184.669 299.789 183.069 299.789 181.102V3.72995C299.789 1.76367 298.189 0.163336 296.222 0.163336L170.039 0.163989Z" fill="#EBEBEB"/>
<path opacity="0.28" d="M252.775 46.7515L258.632 51.0598C223.014 99.8344 178.263 128.99 125.55 137.717C88.2928 143.887 59.6736 137.155 55.2346 136.009V149.454C61.8065 150.921 75.5842 153.389 93.9374 153.389C103.793 153.389 114.968 152.676 127.049 150.715C152.364 146.606 176.43 137.827 198.58 124.623C225.026 108.859 248.752 86.7266 269.163 58.8073L274.949 63.0633L275.047 39.7032L252.775 46.7515Z" fill="#344CB7"/>
<path opacity="0.28" d="M61.7483 154.701H55.8887V213.585H61.7483V154.701Z" fill="#344CB7"/>
<path opacity="0.28" d="M75.8926 157.315H70.033V213.585H75.8926V157.315Z" fill="#344CB7"/>
<path opacity="0.28" d="M90.0364 158.622H84.1768V213.585H90.0364V158.622Z" fill="#344CB7"/>
<path opacity="0.28" d="M104.18 158.622H98.3208V213.585H104.18V158.622Z" fill="#344CB7"/>
<path d="M118.324 157.969H112.464V213.585H118.324V157.969Z" fill="#EBEBEB"/>
<path d="M132.468 156.008H126.608V213.585H132.468V156.008Z" fill="#EBEBEB"/>
<path d="M146.613 152.741H140.753V213.585H146.613V152.741Z" fill="#EBEBEB"/>
<path d="M160.756 149.474H154.896V213.585H160.756V149.474Z" fill="#EBEBEB"/>
<path d="M174.901 146.86H169.041V213.585H174.901V146.86Z" fill="#EBEBEB"/>
<path d="M189.044 138.314H183.185V213.585H189.044V138.314Z" fill="#EBEBEB"/>
<path d="M203.188 131.133H197.329V213.585H203.188V131.133Z" fill="#EBEBEB"/>
<path d="M217.332 122.955H211.472V213.585H217.332V122.955Z" fill="#EBEBEB"/>
<path opacity="0.28" d="M231.476 112.054H225.616V213.585H231.476V112.054Z" fill="#344CB7"/>
<path opacity="0.28" d="M245.62 100.679H239.76V213.585H245.62V100.679Z" fill="#344CB7"/>
<path opacity="0.28" d="M259.764 85.5131H253.904V213.585H259.764V85.5131Z" fill="#344CB7"/>
<path opacity="0.28" d="M273.908 68.9686H268.049V213.586H273.908V68.9686Z" fill="#344CB7"/>
<path d="M259.755 140.779C247.199 171.958 229.338 200.727 206.963 225.811C193.473 217.435 179.982 209.06 166.492 200.684C188.867 175.601 206.728 146.832 219.284 115.652C232.774 124.028 246.264 132.403 259.755 140.779Z" fill="#344CB7"/>
<path opacity="0.4" d="M259.756 140.776C247.197 171.959 229.335 200.726 206.961 225.809C201.132 222.191 195.303 218.572 189.468 214.951L189.465 214.946C181.807 210.196 174.153 205.438 166.492 200.682C188.866 175.6 206.728 146.832 219.282 115.652C232.774 124.03 246.263 132.404 259.756 140.776Z" fill="white"/>
<path opacity="0.2" d="M225.94 122.759C224.566 126.09 220.916 127.23 217.873 125.34C206.795 150.549 192.196 174.059 174.513 195.166C177.557 197.055 178.154 200.831 175.777 203.541C184.186 208.761 192.594 213.982 201.003 219.202C203.38 216.492 207.713 215.779 210.755 217.667C228.438 196.56 243.037 173.051 254.115 147.841C251.072 145.954 249.791 141.753 251.166 138.421C251.173 138.404 251.18 138.387 251.187 138.37C242.779 133.149 234.37 127.929 225.961 122.709C225.955 122.725 225.948 122.741 225.94 122.759ZM227.113 180.1C223.228 186.34 214.769 188.093 208.554 184.235C202.331 180.369 200.705 172.356 204.589 166.117C208.482 159.883 216.408 157.796 222.631 161.661C228.848 165.518 231.006 173.867 227.113 180.1Z" fill="#430101"/>
<g opacity="0.2">
<path d="M222.587 175.621C223.144 175.967 223.701 176.313 224.258 176.658C224.005 177.068 223.751 177.478 223.496 177.886C222.944 177.544 222.392 177.201 221.84 176.858C220.837 178.269 219.458 179.383 218.289 179.737C217.93 179.203 217.571 178.668 217.211 178.134C218.274 177.776 219.416 176.93 220.229 175.858C219.234 175.24 218.24 174.623 217.245 174.005C215.808 175.416 214.136 176.847 212.062 175.559C210.538 174.613 209.925 172.696 211.158 170.226C210.596 169.877 210.034 169.528 209.472 169.179C209.727 168.771 209.981 168.361 210.234 167.952C210.786 168.295 211.338 168.637 211.89 168.98C212.635 167.907 213.648 166.98 214.66 166.488C215.038 167.006 215.417 167.524 215.794 168.042C214.85 168.555 214.082 169.24 213.501 169.98C214.506 170.603 215.51 171.227 216.515 171.851C217.947 170.436 219.563 168.931 221.636 170.217C223.156 171.161 223.8 173.116 222.587 175.621ZM215.44 172.885C214.555 172.336 213.669 171.786 212.785 171.237C212.285 172.401 212.538 173.179 213.196 173.587C213.911 174.032 214.646 173.595 215.44 172.885ZM220.606 172.234C219.875 171.78 219.13 172.23 218.321 172.973C219.201 173.519 220.081 174.066 220.961 174.612C221.472 173.414 221.247 172.632 220.606 172.234Z" fill="#430101"/>
</g>
<path opacity="0.2" d="M259.756 140.776C247.197 171.959 229.334 200.726 206.961 225.809C201.132 222.191 195.303 218.572 189.468 214.951L189.465 214.946L175.582 191.497C175.582 191.497 230.963 168.544 259.756 140.776Z" fill="#430101"/>
<path d="M289.812 184.572C264.021 206.127 234.691 223.052 203.124 234.597C195.187 220.843 187.25 207.09 179.314 193.337C210.882 181.792 240.211 164.867 266.002 143.312C273.938 157.066 281.875 170.819 289.812 184.572Z" fill="#344CB7"/>
<path opacity="0.4" d="M289.812 184.572C264.021 206.127 234.691 223.052 203.124 234.597C195.187 220.843 187.25 207.09 179.314 193.337C210.882 181.792 240.211 164.867 266.002 143.312C273.938 157.066 281.875 170.819 289.812 184.572Z" fill="white"/>
<path opacity="0.2" d="M268.514 152.72C265.73 155.008 261.974 154.289 260.184 151.185C238.515 168.175 214.545 182.004 188.99 192.26C190.782 195.363 189.525 198.974 186.15 200.239C191.097 208.812 196.044 217.384 200.991 225.957C204.366 224.69 208.521 226.107 210.312 229.208C235.866 218.953 259.837 205.123 281.506 188.133C279.715 185.033 280.57 180.725 283.355 178.437C283.37 178.425 283.383 178.414 283.398 178.403C278.451 169.83 273.504 161.258 268.557 152.685C268.543 152.697 268.529 152.708 268.514 152.72ZM242.47 203.82C236.099 207.485 227.815 205.037 224.159 198.7C220.498 192.355 222.849 184.523 229.219 180.858C235.594 177.201 243.566 179.104 247.227 185.45C250.885 191.785 248.845 200.164 242.47 203.82Z" fill="#430101"/>
<g opacity="0.2">
<path d="M240.596 197.735C240.923 198.303 241.251 198.87 241.579 199.438C241.163 199.68 240.745 199.921 240.327 200.161C240.003 199.598 239.678 199.036 239.353 198.472C237.802 199.242 236.062 199.573 234.865 199.333C234.8 198.693 234.736 198.052 234.671 197.411C235.777 197.598 237.183 197.391 238.406 196.83C237.82 195.816 237.235 194.803 236.65 193.788C234.717 194.354 232.568 194.825 231.348 192.711C230.451 191.157 230.816 189.178 233.069 187.583C232.738 187.01 232.407 186.438 232.077 185.864C232.494 185.625 232.911 185.384 233.328 185.142C233.653 185.704 233.978 186.267 234.303 186.83C235.466 186.236 236.797 185.897 237.921 185.942C238.01 186.577 238.099 187.213 238.186 187.848C237.111 187.854 236.112 188.094 235.25 188.473C235.841 189.497 236.432 190.521 237.023 191.545C238.953 190.975 241.089 190.41 242.309 192.523C243.204 194.071 242.848 196.098 240.596 197.735ZM235.588 191.948C235.067 191.045 234.546 190.143 234.025 189.24C233.035 190.031 232.891 190.837 233.278 191.506C233.699 192.236 234.552 192.198 235.588 191.948ZM240.449 193.813C240.018 193.067 239.15 193.112 238.085 193.385C238.604 194.282 239.121 195.18 239.639 196.077C240.656 195.262 240.826 194.466 240.449 193.813Z" fill="#430101"/>
</g>
<path d="M249.64 234.597L275.147 234.597L275.147 229.589L249.64 229.589L249.64 234.597Z" fill="#344CB7"/>
<path opacity="0.2" d="M249.641 234.597H255.262V229.589H249.641V234.597Z" fill="#430101"/>
<path opacity="0.2" d="M257.963 229.589H255.916V234.597H257.963V229.589Z" fill="#430101"/>
<path opacity="0.2" d="M260.584 229.589H259.183V234.597H260.584V229.589Z" fill="#430101"/>
<path opacity="0.2" d="M263.151 229.589H262.45V234.597H263.151V229.589Z" fill="#430101"/>
<path opacity="0.2" d="M267.375 229.589H267.024V234.597H267.375V229.589Z" fill="#430101"/>
<path d="M250.847 229.618L276.354 229.618L276.354 224.61L250.847 224.609L250.847 229.618Z" fill="#344CB7"/>
<path opacity="0.2" d="M250.847 229.618H256.468V224.609H250.847V229.618Z" fill="#430101"/>
<path opacity="0.2" d="M259.17 224.61H257.122V229.618H259.17V224.61Z" fill="#430101"/>
<path opacity="0.2" d="M261.79 224.61H260.389V229.618H261.79V224.61Z" fill="#430101"/>
<path opacity="0.2" d="M264.357 224.61H263.656V229.618H264.357V224.61Z" fill="#430101"/>
<path opacity="0.2" d="M268.581 224.61H268.23V229.618H268.581V224.61Z" fill="#430101"/>
<path d="M248.567 224.638H274.073V219.63H248.567V224.638Z" fill="#344CB7"/>
<path opacity="0.2" d="M248.566 224.638H254.188V219.63H248.566V224.638Z" fill="#430101"/>
<path opacity="0.2" d="M256.889 219.63H254.841V224.638H256.889V219.63Z" fill="#430101"/>
<path opacity="0.2" d="M259.51 219.63H258.108V224.638H259.51V219.63Z" fill="#430101"/>
<path opacity="0.2" d="M262.076 219.63H261.375V224.638H262.076V219.63Z" fill="#430101"/>
<path opacity="0.2" d="M266.3 219.63H265.95V224.638H266.3V219.63Z" fill="#430101"/>
<path d="M249.64 219.659L275.147 219.659L275.147 214.651L249.64 214.651L249.64 219.659Z" fill="#344CB7"/>
<path opacity="0.2" d="M249.641 219.659H255.262V214.651H249.641V219.659Z" fill="#430101"/>
<path opacity="0.2" d="M257.963 214.651H255.916V219.659H257.963V214.651Z" fill="#430101"/>
<path opacity="0.2" d="M260.584 214.651H259.183V219.659H260.584V214.651Z" fill="#430101"/>
<path opacity="0.2" d="M263.151 214.651H262.45V219.659H263.151V214.651Z" fill="#430101"/>
<path opacity="0.2" d="M267.375 214.651H267.024V219.659H267.375V214.651Z" fill="#430101"/>
<path d="M250.294 214.679L275.801 214.679L275.801 209.671L250.294 209.671L250.294 214.679Z" fill="#344CB7"/>
<path opacity="0.2" d="M250.294 214.679H255.916V209.671H250.294V214.679Z" fill="#430101"/>
<path opacity="0.2" d="M258.617 209.671H256.569V214.68H258.617V209.671Z" fill="#430101"/>
<path opacity="0.2" d="M261.238 209.671H259.836V214.68H261.238V209.671Z" fill="#430101"/>
<path opacity="0.2" d="M263.804 209.671H263.104V214.68H263.804V209.671Z" fill="#430101"/>
<path opacity="0.2" d="M268.028 209.671H267.678V214.68H268.028V209.671Z" fill="#430101"/>
<path d="M249.64 209.7L275.147 209.7L275.147 204.692L249.64 204.692L249.64 209.7Z" fill="#344CB7"/>
<path opacity="0.2" d="M249.641 209.7H255.262V204.692H249.641V209.7Z" fill="#430101"/>
<path opacity="0.2" d="M257.963 204.692H255.916V209.7H257.963V204.692Z" fill="#430101"/>
<path opacity="0.2" d="M260.584 204.692H259.183V209.7H260.584V204.692Z" fill="#430101"/>
<path opacity="0.2" d="M263.151 204.692H262.45V209.7H263.151V204.692Z" fill="#430101"/>
<path opacity="0.2" d="M267.375 204.692H267.024V209.7H267.375V204.692Z" fill="#430101"/>
<path d="M249.64 204.721L275.147 204.721L275.147 199.713L249.64 199.713L249.64 204.721Z" fill="#344CB7"/>
<path opacity="0.2" d="M249.641 204.721H255.262V199.713H249.641V204.721Z" fill="#430101"/>
<path opacity="0.2" d="M257.963 199.713H255.915V204.721H257.963V199.713Z" fill="#430101"/>
<path opacity="0.2" d="M260.584 199.713H259.183V204.721H260.584V199.713Z" fill="#430101"/>
<path opacity="0.2" d="M263.15 199.713H262.45V204.721H263.15V199.713Z" fill="#430101"/>
<path opacity="0.2" d="M267.374 199.713H267.024V204.721H267.374V199.713Z" fill="#430101"/>
<path d="M250.947 199.741L276.454 199.741L276.454 194.733L250.947 194.733L250.947 199.741Z" fill="#344CB7"/>
<path opacity="0.2" d="M250.947 199.741H256.568V194.733H250.947V199.741Z" fill="#430101"/>
<path opacity="0.2" d="M259.27 194.733H257.222V199.741H259.27V194.733Z" fill="#430101"/>
<path opacity="0.2" d="M261.891 194.733H260.49V199.741H261.891V194.733Z" fill="#430101"/>
<path opacity="0.2" d="M264.457 194.733H263.757V199.741H264.457V194.733Z" fill="#430101"/>
<path opacity="0.2" d="M268.681 194.733H268.331V199.741H268.681V194.733Z" fill="#430101"/>
<path d="M249.64 194.762L275.147 194.762L275.147 189.754L249.64 189.754L249.64 194.762Z" fill="#344CB7"/>
<path opacity="0.2" d="M249.641 194.762H255.262V189.754H249.641V194.762Z" fill="#430101"/>
<path opacity="0.2" d="M257.963 189.754H255.916V194.762H257.963V189.754Z" fill="#430101"/>
<path opacity="0.2" d="M260.584 189.754H259.183V194.762H260.584V189.754Z" fill="#430101"/>
<path opacity="0.2" d="M263.151 189.754H262.45V194.762H263.151V189.754Z" fill="#430101"/>
<path opacity="0.2" d="M267.375 189.754H267.024V194.762H267.375V189.754Z" fill="#430101"/>
<path d="M248.334 189.783H273.84V184.774H248.334V189.783Z" fill="#344CB7"/>
<path opacity="0.2" d="M248.333 189.783H253.955V184.774H248.333V189.783Z" fill="#430101"/>
<path opacity="0.2" d="M256.656 184.774H254.608V189.783H256.656V184.774Z" fill="#430101"/>
<path opacity="0.2" d="M259.278 184.774H257.876V189.783H259.278V184.774Z" fill="#430101"/>
<path opacity="0.2" d="M261.844 184.774H261.143V189.783H261.844V184.774Z" fill="#430101"/>
<path opacity="0.2" d="M266.068 184.774H265.717V189.783H266.068V184.774Z" fill="#430101"/>
<path d="M227.146 234.597L252.653 234.597L252.653 229.589L227.146 229.589L227.146 234.597Z" fill="#344CB7"/>
<path opacity="0.2" d="M227.146 234.597H232.768V229.589H227.146V234.597Z" fill="#430101"/>
<path opacity="0.2" d="M235.469 229.589H233.421V234.597H235.469V229.589Z" fill="#430101"/>
<path opacity="0.2" d="M238.09 229.589H236.688V234.597H238.09V229.589Z" fill="#430101"/>
<path opacity="0.2" d="M240.657 229.589H239.956V234.597H240.657V229.589Z" fill="#430101"/>
<path opacity="0.2" d="M244.881 229.589H244.53V234.597H244.881V229.589Z" fill="#430101"/>
<path d="M228.453 229.618L253.96 229.618L253.96 224.61L228.453 224.609L228.453 229.618Z" fill="#344CB7"/>
<path opacity="0.2" d="M228.454 229.618H234.075V224.609H228.454V229.618Z" fill="#430101"/>
<path opacity="0.2" d="M236.776 224.61H234.729V229.618H236.776V224.61Z" fill="#430101"/>
<path opacity="0.2" d="M239.397 224.61H237.996V229.618H239.397V224.61Z" fill="#430101"/>
<path opacity="0.2" d="M241.964 224.61H241.263V229.618H241.964V224.61Z" fill="#430101"/>
<path opacity="0.2" d="M246.188 224.61H245.837V229.618H246.188V224.61Z" fill="#430101"/>
<path d="M227.146 224.638L252.653 224.638L252.653 219.63L227.146 219.63L227.146 224.638Z" fill="#344CB7"/>
<path opacity="0.2" d="M227.146 224.638H232.768V219.63H227.146V224.638Z" fill="#430101"/>
<path opacity="0.2" d="M235.469 219.63H233.421V224.638H235.469V219.63Z" fill="#430101"/>
<path opacity="0.2" d="M238.09 219.63H236.688V224.638H238.09V219.63Z" fill="#430101"/>
<path opacity="0.2" d="M240.657 219.63H239.956V224.638H240.657V219.63Z" fill="#430101"/>
<path opacity="0.2" d="M244.881 219.63H244.53V224.638H244.881V219.63Z" fill="#430101"/>
<path d="M227.799 219.659L253.306 219.659L253.306 214.651L227.799 214.651L227.799 219.659Z" fill="#344CB7"/>
<path opacity="0.2" d="M227.8 219.659H233.421V214.651H227.8V219.659Z" fill="#430101"/>
<path opacity="0.2" d="M236.122 214.651H234.074V219.659H236.122V214.651Z" fill="#430101"/>
<path opacity="0.2" d="M238.743 214.651H237.342V219.659H238.743V214.651Z" fill="#430101"/>
<path opacity="0.2" d="M241.309 214.651H240.609V219.659H241.309V214.651Z" fill="#430101"/>
<path opacity="0.2" d="M245.534 214.651H245.184V219.659H245.534V214.651Z" fill="#430101"/>
<path d="M227.146 214.679L252.653 214.679L252.653 209.671L227.146 209.671L227.146 214.679Z" fill="#344CB7"/>
<path opacity="0.2" d="M227.146 214.679H232.768V209.671H227.146V214.679Z" fill="#430101"/>
<path opacity="0.2" d="M235.469 209.671H233.421V214.68H235.469V209.671Z" fill="#430101"/>
<path opacity="0.2" d="M238.09 209.671H236.688V214.68H238.09V209.671Z" fill="#430101"/>
<path opacity="0.2" d="M240.657 209.671H239.956V214.68H240.657V209.671Z" fill="#430101"/>
<path opacity="0.2" d="M244.881 209.671H244.53V214.68H244.881V209.671Z" fill="#430101"/>
<path d="M229.107 209.7L254.613 209.7L254.613 204.692L229.107 204.692L229.107 209.7Z" fill="#344CB7"/>
<path opacity="0.2" d="M229.107 209.7H234.728V204.692H229.107V209.7Z" fill="#430101"/>
<path opacity="0.2" d="M237.43 204.692H235.382V209.7H237.43V204.692Z" fill="#430101"/>
<path opacity="0.2" d="M240.051 204.692H238.649V209.7H240.051V204.692Z" fill="#430101"/>
<path opacity="0.2" d="M242.617 204.692H241.917V209.7H242.617V204.692Z" fill="#430101"/>
<path opacity="0.2" d="M246.841 204.692H246.491V209.7H246.841V204.692Z" fill="#430101"/>
<path d="M210.295 234.597H115.092C111.338 234.597 108.294 231.554 108.294 227.799V34.5983C108.294 30.8442 111.337 27.8003 115.092 27.8003H210.295C214.049 27.8003 217.092 30.8435 217.092 34.5983V227.799C217.092 231.553 214.049 234.597 210.295 234.597Z" fill="#263238"/>
<path d="M213.456 34.3566V227.691C213.456 229.19 212.251 230.355 210.752 230.355H114.417C113.039 230.355 112.001 229.289 112.001 227.911V34.1377C112.001 32.9445 112.878 31.9009 114.071 31.9009H138.155C138.835 31.9009 139.452 32.3446 139.706 32.9843L140.703 35.44C140.957 36.0739 141.573 36.5124 142.254 36.5124H183.256C183.936 36.5124 184.553 36.0916 184.807 35.4577L185.804 32.9909C186.057 32.3511 186.674 31.9015 187.355 31.9015H211.092C212.406 31.9009 213.456 33.0425 213.456 34.3566Z" fill="#344CB7"/>
<path opacity="0.7" d="M213.452 39.9483H111.998V222.37H213.452V39.9483Z" fill="white"/>
<path opacity="0.6" d="M160.43 33.5332C161.199 33.5332 161.823 32.9098 161.823 32.1407C161.823 31.3716 161.199 30.7481 160.43 30.7481C159.661 30.7481 159.038 31.3716 159.038 32.1407C159.038 32.9098 159.661 33.5332 160.43 33.5332Z" fill="white"/>
<path opacity="0.6" d="M164.641 32.1407C164.641 32.6334 164.242 33.0326 163.749 33.0326C163.256 33.0326 162.857 32.6334 162.857 32.1407C162.857 31.648 163.256 31.2487 163.749 31.2487C164.242 31.2487 164.641 31.648 164.641 32.1407Z" fill="white"/>
<path opacity="0.6" d="M123.443 37.2841H124.697V35.6132H123.443V37.2841Z" fill="white"/>
<path opacity="0.6" d="M121.401 37.2842H122.654V35.0566H121.401V37.2842Z" fill="white"/>
<path opacity="0.6" d="M119.358 37.2843H120.612V34.4993H119.358V37.2843Z" fill="white"/>
<path opacity="0.6" d="M117.317 37.2837H118.57V33.9413H117.317V37.2837Z" fill="white"/>
<path opacity="0.6" d="M202.236 35.0035H201.493V36.6738H202.236V35.0035Z" fill="white"/>
<path opacity="0.6" d="M202.746 37.2841H208.664V34.3938H202.746V37.2841Z" fill="white"/>
<path d="M213.51 39.9685H111.875V56.4352H213.51V39.9685Z" fill="#263238"/>
<g opacity="0.7">
<path d="M118.769 51.2643C118.601 51.2643 118.434 51.2003 118.307 51.0729L115.854 48.6204C115.599 48.3649 115.599 47.9519 115.854 47.6964L118.307 45.244C118.562 44.9885 118.975 44.9885 119.231 45.244C119.486 45.4995 119.486 45.9125 119.231 46.168L117.24 48.1584L119.231 50.1489C119.486 50.4044 119.486 50.8174 119.231 51.0729C119.103 51.2009 118.936 51.2643 118.769 51.2643Z" fill="white"/>
</g>
<g opacity="0.7">
<path d="M209.722 45.7667C209.722 46.1771 209.39 46.5097 208.979 46.5097C208.569 46.5097 208.236 46.1771 208.236 45.7667C208.236 45.3564 208.569 45.0237 208.979 45.0237C209.39 45.0237 209.722 45.3564 209.722 45.7667Z" fill="white"/>
<path d="M209.722 48.1584C209.722 48.5688 209.39 48.9014 208.979 48.9014C208.569 48.9014 208.236 48.5688 208.236 48.1584C208.236 47.748 208.569 47.4154 208.979 47.4154C209.39 47.4154 209.722 47.748 209.722 48.1584Z" fill="white"/>
<path d="M209.722 50.5507C209.722 50.9611 209.39 51.2937 208.979 51.2937C208.569 51.2937 208.236 50.9611 208.236 50.5507C208.236 50.1404 208.569 49.8078 208.979 49.8078C209.39 49.8078 209.722 50.1404 209.722 50.5507Z" fill="white"/>
</g>
<path d="M150.663 71.1643V72.0419H150.021V71.1722C149.252 71.1251 148.508 70.8742 148.101 70.5213L148.454 69.73C148.838 70.0436 149.426 70.2704 150.022 70.3253V68.7583C149.152 68.5465 148.219 68.2642 148.219 67.1749C148.219 66.3757 148.799 65.6785 150.022 65.5602V64.6747H150.664V65.5445C151.244 65.5759 151.832 65.7484 152.255 66.0222L151.934 66.8142C151.518 66.5711 151.079 66.4378 150.664 66.3907V67.9741C151.534 68.1858 152.482 68.4596 152.482 69.5496C152.481 70.3488 151.893 71.0382 150.663 71.1643ZM150.02 67.8094V66.4143C149.464 66.5005 149.229 66.7828 149.229 67.1272C149.229 67.5036 149.565 67.6761 150.02 67.8094ZM151.478 69.6202C151.478 69.2359 151.133 69.0556 150.663 68.9229V70.3102C151.235 70.2233 151.478 69.9567 151.478 69.6202Z" fill="#344CB7"/>
<path d="M157.164 65.6151V71.1016H156.145V66.4698H154.985V65.6151H157.164Z" fill="#344CB7"/>
<path d="M162.706 69.5261C162.706 70.5448 161.82 71.18 160.457 71.18C159.093 71.18 158.223 70.5448 158.223 69.5261C158.223 68.9229 158.537 68.4759 159.101 68.2172C158.662 67.9741 158.42 67.582 158.42 67.0651C158.42 66.1248 159.243 65.5373 160.457 65.5373C161.68 65.5373 162.511 66.1248 162.511 67.0651C162.511 67.5827 162.26 67.9747 161.813 68.2172C162.385 68.4759 162.706 68.9223 162.706 69.5261ZM161.679 69.4947C161.679 68.9536 161.209 68.6171 160.457 68.6171C159.705 68.6171 159.25 68.9543 159.25 69.4947C159.25 70.0514 159.705 70.3801 160.457 70.3801C161.209 70.3801 161.679 70.0508 161.679 69.4947ZM159.422 67.1122C159.422 67.582 159.814 67.88 160.457 67.88C161.108 67.88 161.507 67.582 161.507 67.1122C161.507 66.6181 161.083 66.3358 160.457 66.3358C159.83 66.3358 159.422 66.6181 159.422 67.1122Z" fill="#344CB7"/>
<path d="M163.415 70.5056C163.415 70.1135 163.704 69.8554 164.057 69.8554C164.41 69.8554 164.699 70.1142 164.699 70.5056C164.699 70.882 164.409 71.1564 164.057 71.1564C163.705 71.1558 163.415 70.8813 163.415 70.5056Z" fill="#344CB7"/>
<path d="M167.139 65.6151V71.1016H166.12V66.4698H164.96V65.6151H167.139Z" fill="#344CB7"/>
<path d="M172.202 70.239V71.1009H168.159V70.4187L170.337 68.3498C170.87 67.8401 170.964 67.5192 170.964 67.2134C170.964 66.7116 170.619 66.4214 169.945 66.4214C169.413 66.4214 168.966 66.6018 168.66 66.9939L167.946 66.4456C168.37 65.8738 169.13 65.5366 170.031 65.5366C171.222 65.5366 171.991 66.1398 171.991 67.1121C171.991 67.6447 171.842 68.1309 171.082 68.8438L169.616 70.239H172.202Z" fill="#344CB7"/>
<path d="M177.244 69.5261C177.244 70.5448 176.359 71.18 174.995 71.18C173.631 71.18 172.762 70.5448 172.762 69.5261C172.762 68.9229 173.075 68.4759 173.639 68.2172C173.201 67.9741 172.958 67.582 172.958 67.0651C172.958 66.1248 173.78 65.5373 174.995 65.5373C176.218 65.5373 177.048 66.1248 177.048 67.0651C177.048 67.5827 176.798 67.9747 176.351 68.2172C176.923 68.4759 177.244 68.9223 177.244 69.5261ZM176.218 69.4947C176.218 68.9536 175.747 68.6171 174.995 68.6171C174.243 68.6171 173.788 68.9543 173.788 69.4947C173.788 70.0514 174.243 70.3801 174.995 70.3801C175.747 70.3801 176.218 70.0508 176.218 69.4947ZM173.961 67.1122C173.961 67.582 174.353 67.88 174.995 67.88C175.645 67.88 176.045 67.582 176.045 67.1122C176.045 66.6181 175.623 66.3358 174.995 66.3358C174.368 66.3358 173.961 66.6181 173.961 67.1122Z" fill="#344CB7"/>
<path d="M156.104 103.681V104.168H155.748V103.686C155.322 103.66 154.909 103.521 154.683 103.325L154.878 102.886C155.092 103.06 155.418 103.186 155.748 103.216V102.346C155.266 102.229 154.748 102.073 154.748 101.468C154.748 101.024 155.07 100.638 155.748 100.572V100.081H156.104V100.564C156.427 100.581 156.752 100.677 156.987 100.829L156.809 101.268C156.578 101.134 156.335 101.06 156.104 101.034V101.912C156.587 102.029 157.113 102.181 157.113 102.785C157.113 103.229 156.787 103.612 156.104 103.681ZM155.748 101.821V101.047C155.44 101.095 155.309 101.252 155.309 101.443C155.309 101.651 155.496 101.747 155.748 101.821ZM156.557 102.825C156.557 102.612 156.366 102.512 156.104 102.438V103.208C156.422 103.16 156.557 103.012 156.557 102.825Z" fill="#430101"/>
<path d="M159.706 100.604V103.647H159.141V101.077H158.498V100.604H159.706Z" fill="#430101"/>
<path d="M161.362 100.604V103.647H160.797V101.077H160.154V100.604H161.362Z" fill="#430101"/>
<path d="M164.178 102.712C164.178 103.247 163.791 103.691 162.974 103.691C162.543 103.691 162.108 103.56 161.83 103.338L162.069 102.899C162.291 103.082 162.621 103.199 162.964 103.199C163.369 103.199 163.608 103.021 163.608 102.734C163.608 102.442 163.421 102.26 162.791 102.26H162.056L162.212 100.604H163.999V101.077H162.691L162.625 101.782H162.916C163.817 101.782 164.178 102.173 164.178 102.712Z" fill="#430101"/>
<path d="M165.199 103.317C165.199 103.412 165.176 103.491 165.099 103.691L164.877 104.304H164.525L164.699 103.638C164.576 103.586 164.494 103.473 164.494 103.317C164.494 103.099 164.646 102.956 164.846 102.956C165.05 102.955 165.199 103.103 165.199 103.317Z" fill="#430101"/>
<path d="M167.811 103.168V103.647H165.567V103.268L166.776 102.121C167.071 101.838 167.124 101.66 167.124 101.49C167.124 101.212 166.932 101.051 166.558 101.051C166.263 101.051 166.015 101.151 165.846 101.369L165.45 101.064C165.685 100.747 166.106 100.56 166.607 100.56C167.267 100.56 167.694 100.894 167.694 101.434C167.694 101.729 167.611 101.999 167.19 102.394L166.377 103.168L167.811 103.168Z" fill="#430101"/>
<path d="M168.122 102.125C168.122 101.125 168.669 100.56 169.391 100.56C170.117 100.56 170.665 101.125 170.665 102.125C170.665 103.125 170.117 103.69 169.391 103.69C168.67 103.69 168.122 103.125 168.122 102.125ZM170.096 102.125C170.096 101.39 169.809 101.051 169.391 101.051C168.978 101.051 168.691 101.39 168.691 102.125C168.691 102.859 168.978 103.199 169.391 103.199C169.809 103.199 170.096 102.86 170.096 102.125Z" fill="#430101"/>
<path d="M139.027 96.5599C135.815 109.63 143.807 122.83 156.877 126.042C169.947 129.253 183.147 121.262 186.359 108.192C189.571 95.1223 181.579 81.9223 168.51 78.7105C155.439 75.4981 142.24 83.49 139.027 96.5599ZM149.097 99.0346C150.942 91.5256 158.526 86.9344 166.035 88.7798C173.544 90.6252 178.135 98.2086 176.29 105.718C174.444 113.227 166.861 117.818 159.352 115.972C151.843 114.127 147.252 106.544 149.097 99.0346Z" fill="#263238"/>
<path d="M141.913 115.125C147.771 124.685 159.779 129.347 171.031 125.276C182.356 121.18 189.044 109.145 186.542 97.3643C184.032 85.5392 173.548 77.7689 162.2 78.0061C165.62 77.9388 168.153 81.1734 167.297 84.4832C167.005 85.6216 166.349 86.5782 165.472 87.2585C164.601 87.9401 163.507 88.3439 162.332 88.3766C162.234 88.3772 162.139 88.3844 162.038 88.391C168.67 88.0695 174.866 92.5313 176.371 99.3979C177.875 106.221 173.978 113.235 167.389 115.569C160.978 117.834 154.162 115.19 150.795 109.768C150.044 108.552 148.877 107.722 147.567 107.4C146.717 107.19 145.814 107.197 144.93 107.449C141.642 108.389 140.129 112.21 141.913 115.125Z" fill="#344CB7"/>
<path d="M122.983 143.794H120.656V151.395H122.983V143.794Z" fill="#344CB7"/>
<path d="M128.822 145.755H126.496V151.395H128.822V145.755Z" fill="#344CB7"/>
<path d="M134.658 137.259H132.332V151.394H134.658V137.259Z" fill="#344CB7"/>
<path d="M140.5 133.992H138.174V151.394H140.5V133.992Z" fill="#344CB7"/>
<path d="M146.342 137.259H144.016V151.394H146.342V137.259Z" fill="#344CB7"/>
<path d="M152.178 143.794H149.852V151.395H152.178V143.794Z" fill="#344CB7"/>
<path d="M158.017 145.101H155.69V151.395H158.017V145.101Z" fill="#344CB7"/>
<path d="M163.856 145.755H161.53V151.395H163.856V145.755Z" fill="#344CB7"/>
<path d="M169.695 143.794H167.369V151.395H169.695V143.794Z" fill="#344CB7"/>
<path d="M175.532 140.526H173.206V151.394H175.532V140.526Z" fill="#344CB7"/>
<path d="M181.374 137.913H179.048V151.394H181.374V137.913Z" fill="#344CB7"/>
<path d="M187.21 135.299H184.883V151.394H187.21V135.299Z" fill="#344CB7"/>
<path d="M193.052 132.031H190.726V151.394H193.052V132.031Z" fill="#344CB7"/>
<path d="M198.894 136.606H196.567V151.394H198.894V136.606Z" fill="#344CB7"/>
<path d="M204.73 143.794H202.403V151.395H204.73V143.794Z" fill="#344CB7"/>
<path d="M134.658 137.259H132.332V140.526H134.658V137.259Z" fill="#263238"/>
<path d="M140.5 133.992H138.174V140.526H140.5V133.992Z" fill="#263238"/>
<path d="M146.342 137.259H144.016V140.526H146.342V137.259Z" fill="#263238"/>
<path d="M181.374 137.913H179.048V140.526H181.374V137.913Z" fill="#263238"/>
<path d="M187.21 135.299H184.883V140.526H187.21V135.299Z" fill="#263238"/>
<path d="M193.052 132.031H190.726V140.526H193.052V132.031Z" fill="#263238"/>
<path d="M198.894 136.606H196.567V140.526H198.894V136.606Z" fill="#263238"/>
<path d="M204.695 174.695H120.69C119.616 174.695 118.745 173.824 118.745 172.75V162.729C118.745 161.655 119.616 160.784 120.69 160.784H204.695C205.769 160.784 206.64 161.655 206.64 162.729V172.75C206.64 173.824 205.769 174.695 204.695 174.695Z" fill="#344CB7"/>
<g opacity="0.7">
<path d="M184.756 167.707H183.986V168.467H183.521V167.707H182.752V167.272H183.521V166.511H183.986V167.272H184.756V167.707Z" fill="white"/>
<path d="M187.806 169.046V169.532H187.45V169.05C187.024 169.024 186.611 168.885 186.385 168.689L186.58 168.25C186.793 168.424 187.119 168.55 187.45 168.58V167.711C186.968 167.594 186.45 167.437 186.45 166.833C186.45 166.389 186.772 166.002 187.45 165.937V165.446H187.806V165.929C188.128 165.946 188.454 166.042 188.689 166.193L188.51 166.632C188.28 166.498 188.036 166.424 187.806 166.398V167.277C188.289 167.394 188.814 167.546 188.814 168.15C188.815 168.593 188.489 168.976 187.806 169.046ZM187.45 167.185V166.411C187.141 166.459 187.011 166.615 187.011 166.806C187.011 167.015 187.198 167.111 187.45 167.185ZM188.258 168.189C188.258 167.976 188.067 167.876 187.806 167.802V168.572C188.124 168.524 188.258 168.376 188.258 168.189Z" fill="white"/>
<path d="M192.651 165.968V166.346L191.468 169.011H190.864L192.008 166.445H190.812V166.963H190.286V165.968H192.651Z" fill="white"/>
<path d="M195.133 168.076C195.133 168.61 194.746 169.054 193.928 169.054C193.498 169.054 193.063 168.923 192.785 168.702L193.024 168.263C193.245 168.445 193.576 168.563 193.92 168.563C194.324 168.563 194.563 168.385 194.563 168.097C194.563 167.807 194.377 167.624 193.746 167.624H193.011L193.168 165.967H194.954V166.442H193.646L193.581 167.145H193.872C194.771 167.145 195.133 167.537 195.133 168.076Z" fill="white"/>
<path d="M196.153 168.68C196.153 168.776 196.13 168.854 196.053 169.054L195.831 169.667H195.479L195.653 169.002C195.531 168.95 195.448 168.837 195.448 168.68C195.448 168.463 195.601 168.32 195.8 168.32C196.004 168.32 196.153 168.467 196.153 168.68Z" fill="white"/>
<path d="M196.465 167.489C196.465 166.489 197.012 165.924 197.734 165.924C198.46 165.924 199.007 166.489 199.007 167.489C199.007 168.489 198.46 169.055 197.734 169.055C197.012 169.054 196.465 168.489 196.465 167.489ZM198.438 167.489C198.438 166.755 198.151 166.415 197.734 166.415C197.321 166.415 197.034 166.754 197.034 167.489C197.034 168.224 197.321 168.563 197.734 168.563C198.151 168.563 198.438 168.224 198.438 167.489Z" fill="white"/>
<path d="M201.602 168.076C201.602 168.61 201.215 169.054 200.397 169.054C199.967 169.054 199.532 168.923 199.254 168.702L199.494 168.263C199.715 168.445 200.046 168.563 200.389 168.563C200.794 168.563 201.033 168.385 201.033 168.097C201.033 167.807 200.846 167.624 200.216 167.624H199.481L199.637 165.967H201.424V166.442H200.116L200.05 167.145H200.342C201.241 167.145 201.602 167.537 201.602 168.076Z" fill="white"/>
</g>
<path opacity="0.7" d="M145.563 166.683H125.099C124.669 166.683 124.32 166.334 124.32 165.904C124.32 165.474 124.669 165.125 125.099 165.125H145.563C145.992 165.125 146.341 165.474 146.341 165.904C146.341 166.334 145.992 166.683 145.563 166.683Z" fill="white"/>
<path opacity="0.7" d="M136.414 170.354H125.099C124.669 170.354 124.32 170.005 124.32 169.576C124.32 169.146 124.669 168.797 125.099 168.797H136.414C136.844 168.797 137.193 169.146 137.193 169.576C137.193 170.005 136.844 170.354 136.414 170.354Z" fill="white"/>
<path d="M204.695 193.646H120.69C119.616 193.646 118.745 192.775 118.745 191.701V181.68C118.745 180.605 119.616 179.734 120.69 179.734H204.695C205.769 179.734 206.64 180.605 206.64 181.68V191.701C206.64 192.775 205.769 193.646 204.695 193.646Z" fill="#344CB7"/>
<g opacity="0.7">
<path d="M183.252 186.527H184.448V186.979H183.252V186.527Z" fill="white"/>
<path d="M187.458 187.996V188.483H187.102V188.001C186.676 187.975 186.263 187.835 186.037 187.64L186.233 187.201C186.446 187.375 186.772 187.501 187.102 187.531V186.662C186.62 186.544 186.102 186.388 186.102 185.783C186.102 185.34 186.425 184.953 187.102 184.888V184.396H187.458V184.879C187.78 184.896 188.106 184.992 188.341 185.144L188.163 185.583C187.933 185.448 187.689 185.374 187.459 185.348V186.227C187.942 186.344 188.467 186.496 188.467 187.101C188.467 187.544 188.141 187.926 187.458 187.996ZM187.102 186.135V185.361C186.794 185.409 186.663 185.566 186.663 185.757C186.663 185.966 186.85 186.062 187.102 186.135ZM187.911 187.139C187.911 186.926 187.72 186.826 187.458 186.753V187.522C187.776 187.475 187.911 187.326 187.911 187.139Z" fill="white"/>
<path d="M192.221 187.026C192.221 187.561 191.835 188.005 191.017 188.005C190.587 188.005 190.152 187.874 189.874 187.652L190.113 187.213C190.334 187.396 190.665 187.513 191.009 187.513C191.413 187.513 191.652 187.335 191.652 187.048C191.652 186.757 191.465 186.574 190.835 186.574H190.1L190.256 184.918H192.043V185.392H190.734L190.669 186.096H190.96C191.86 186.096 192.221 186.487 192.221 187.026Z" fill="white"/>
<path d="M194.736 187.026C194.736 187.561 194.35 188.005 193.532 188.005C193.102 188.005 192.667 187.874 192.389 187.652L192.628 187.213C192.85 187.396 193.181 187.513 193.524 187.513C193.929 187.513 194.168 187.335 194.168 187.048C194.168 186.757 193.981 186.574 193.35 186.574H192.616L192.772 184.918H194.559V185.392H193.25L193.184 186.096H193.476C194.376 186.096 194.736 186.487 194.736 187.026Z" fill="white"/>
<path d="M195.757 187.631C195.757 187.726 195.735 187.805 195.657 188.005L195.435 188.618H195.083L195.257 187.952C195.135 187.9 195.052 187.787 195.052 187.631C195.052 187.413 195.205 187.27 195.404 187.27C195.609 187.27 195.757 187.418 195.757 187.631Z" fill="white"/>
<path d="M198.813 187.27H198.274V187.961H197.726V187.27H196.057V186.878L197.556 184.918H198.161L196.748 186.791H197.743V186.178H198.273V186.791H198.812V187.27H198.813Z" fill="white"/>
<path d="M201.563 187.087C201.563 187.652 201.072 188.005 200.315 188.005C199.558 188.005 199.076 187.652 199.076 187.087C199.076 186.753 199.25 186.505 199.563 186.362C199.319 186.227 199.185 186.01 199.185 185.722C199.185 185.201 199.641 184.874 200.314 184.874C200.993 184.874 201.453 185.201 201.453 185.722C201.453 186.009 201.314 186.226 201.067 186.362C201.385 186.505 201.563 186.753 201.563 187.087ZM200.993 187.07C200.993 186.77 200.733 186.583 200.315 186.583C199.898 186.583 199.646 186.77 199.646 187.07C199.646 187.379 199.898 187.562 200.315 187.562C200.733 187.562 200.993 187.379 200.993 187.07ZM199.741 185.748C199.741 186.009 199.959 186.174 200.315 186.174C200.676 186.174 200.898 186.009 200.898 185.748C200.898 185.474 200.663 185.318 200.315 185.318C199.967 185.318 199.741 185.474 199.741 185.748Z" fill="white"/>
</g>
<path opacity="0.7" d="M145.563 185.633H125.099C124.669 185.633 124.32 185.284 124.32 184.854C124.32 184.424 124.669 184.075 125.099 184.075H145.563C145.992 184.075 146.341 184.424 146.341 184.854C146.341 185.284 145.992 185.633 145.563 185.633Z" fill="white"/>
<path opacity="0.7" d="M136.414 189.305H125.099C124.669 189.305 124.32 188.956 124.32 188.526C124.32 188.096 124.669 187.747 125.099 187.747H136.414C136.844 187.747 137.193 188.096 137.193 188.526C137.193 188.956 136.844 189.305 136.414 189.305Z" fill="white"/>
<path d="M204.695 212.596H120.69C119.616 212.596 118.745 211.725 118.745 210.651V200.63C118.745 199.556 119.616 198.685 120.69 198.685H204.695C205.769 198.685 206.64 199.556 206.64 200.63V210.651C206.64 211.725 205.769 212.596 204.695 212.596Z" fill="#344CB7"/>
<g opacity="0.7">
<path d="M185.252 205.608H184.482V206.368H184.017V205.608H183.248V205.173H184.017V204.412H184.482V205.173H185.252V205.608Z" fill="white"/>
<path d="M188.302 206.947V207.433H187.946V206.951C187.52 206.925 187.107 206.786 186.881 206.59L187.076 206.151C187.289 206.325 187.615 206.451 187.946 206.481V205.612C187.464 205.495 186.946 205.338 186.946 204.734C186.946 204.29 187.268 203.903 187.946 203.838V203.347H188.302V203.829C188.624 203.846 188.95 203.943 189.185 204.094L189.007 204.533C188.776 204.399 188.533 204.325 188.302 204.299V205.178C188.785 205.295 189.31 205.447 189.31 206.051C189.31 206.494 188.984 206.877 188.302 206.947ZM187.945 205.085V204.312C187.637 204.359 187.506 204.516 187.506 204.707C187.506 204.916 187.693 205.012 187.945 205.085ZM188.754 206.09C188.754 205.877 188.564 205.777 188.302 205.703V206.473C188.62 206.425 188.754 206.277 188.754 206.09Z" fill="white"/>
<path d="M191.903 203.869V206.912H191.338V204.342H190.694V203.868H191.903V203.869Z" fill="white"/>
<path d="M194.977 206.038C194.977 206.603 194.485 206.955 193.729 206.955C192.972 206.955 192.49 206.603 192.49 206.038C192.49 205.703 192.664 205.455 192.977 205.312C192.733 205.178 192.598 204.96 192.598 204.672C192.598 204.151 193.054 203.825 193.728 203.825C194.406 203.825 194.867 204.151 194.867 204.672C194.867 204.959 194.728 205.177 194.48 205.312C194.798 205.455 194.977 205.703 194.977 206.038ZM194.407 206.021C194.407 205.721 194.146 205.534 193.729 205.534C193.311 205.534 193.06 205.721 193.06 206.021C193.06 206.33 193.312 206.512 193.729 206.512C194.146 206.512 194.407 206.329 194.407 206.021ZM193.155 204.699C193.155 204.959 193.373 205.125 193.729 205.125C194.089 205.125 194.312 204.959 194.312 204.699C194.312 204.425 194.077 204.269 193.729 204.269C193.381 204.269 193.155 204.425 193.155 204.699Z" fill="white"/>
<path d="M196.078 206.581C196.078 206.677 196.057 206.755 195.978 206.955L195.757 207.568H195.405L195.579 206.903C195.457 206.85 195.374 206.737 195.374 206.581C195.374 206.364 195.526 206.221 195.726 206.221C195.931 206.221 196.078 206.368 196.078 206.581Z" fill="white"/>
<path d="M198.691 206.433V206.911H196.448V206.533L197.656 205.385C197.952 205.102 198.004 204.924 198.004 204.755C198.004 204.476 197.813 204.316 197.439 204.316C197.143 204.316 196.895 204.415 196.726 204.633L196.331 204.328C196.565 204.011 196.987 203.824 197.487 203.824C198.148 203.824 198.575 204.159 198.575 204.698C198.575 204.993 198.492 205.263 198.07 205.659L197.257 206.433H198.691Z" fill="white"/>
<path d="M199.002 205.39C199.002 204.39 199.55 203.825 200.271 203.825C200.997 203.825 201.545 204.389 201.545 205.39C201.545 206.39 200.997 206.956 200.271 206.956C199.55 206.955 199.002 206.39 199.002 205.39ZM200.976 205.39C200.976 204.655 200.689 204.316 200.271 204.316C199.858 204.316 199.572 204.655 199.572 205.39C199.572 206.125 199.859 206.464 200.271 206.464C200.689 206.464 200.976 206.125 200.976 205.39Z" fill="white"/>
</g>
<path opacity="0.7" d="M145.563 204.584H125.099C124.669 204.584 124.32 204.235 124.32 203.805C124.32 203.375 124.669 203.026 125.099 203.026H145.563C145.992 203.026 146.341 203.375 146.341 203.805C146.341 204.235 145.992 204.584 145.563 204.584Z" fill="white"/>
<path opacity="0.7" d="M136.414 208.255H125.099C124.669 208.255 124.32 207.906 124.32 207.476C124.32 207.047 124.669 206.698 125.099 206.698H136.414C136.844 206.698 137.193 207.047 137.193 207.476C137.193 207.906 136.844 208.255 136.414 208.255Z" fill="white"/>
<path d="M71.4066 65.8751L80.3683 65.8817C81.7007 65.8823 82.7815 64.8034 82.7828 63.4704L82.7894 54.5088C82.79 53.1764 81.7111 52.0949 80.3781 52.0942L71.4165 52.0877C70.084 52.087 69.0032 53.1665 69.0019 54.499L68.9954 63.4606C68.9947 64.793 70.0742 65.8738 71.4066 65.8751Z" fill="#344CB7"/>
<path opacity="0.6" d="M72.0993 56.2679C73.0742 54.6872 74.934 55.2962 75.8946 56.5254C76.8571 55.2975 78.7175 54.6911 79.6899 56.2731C81.3301 58.9406 77.9452 61.4081 76.3461 62.3739C76.1651 62.485 76.0148 62.5765 75.89 62.6483C75.7652 62.5765 75.6156 62.485 75.4345 62.3732C73.8375 61.4054 70.4558 58.9334 72.0993 56.2679Z" fill="white"/>
<path d="M74.4075 64.8093C74.4075 64.8093 76.2143 68.9471 80.2632 70.2423C80.2632 70.2423 78.0237 68.9484 78.1989 64.6394L74.4075 64.8093Z" fill="#344CB7"/>
<path d="M70.5755 92.0706C70.6042 92.4033 70.3552 92.6653 70.02 92.6561L64.05 92.4947C63.7141 92.4856 63.4194 92.2085 63.39 91.8766L62.3758 80.0573C62.347 79.7254 62.598 79.381 62.9338 79.3901L68.9039 79.5516C69.2398 79.5607 69.5325 79.9195 69.5613 80.2514L70.5755 92.0706Z" fill="#263238"/>
<path opacity="0.5" d="M68.9008 80.1567L69.93 92.0903C69.9594 92.4268 69.7784 92.6496 69.4451 92.6411L64.3827 92.5046C64.0429 92.4954 63.426 92.2915 63.3966 91.955L62.3687 79.9809C62.3393 79.6444 62.9268 79.3915 63.2659 79.4006L68.3283 79.5372C68.6623 79.545 68.872 79.8201 68.9008 80.1567Z" fill="white"/>
<path d="M66.8468 95.3197L66.1502 93.0175C66.1502 93.0175 66.7821 91.2433 66.8468 90.4683C66.9115 89.6933 64.8433 83.6396 64.8433 83.6396C64.8433 83.6396 62.581 85.4327 61.2237 86.3345C59.8665 87.237 62.0242 93.0796 62.3673 93.2279C62.7103 93.3763 63.3677 93.7644 63.3677 93.7644L63.814 95.6386L66.8468 95.3197Z" fill="#E4897B"/>
<path d="M63.1187 97.4565C63.8179 100.162 66.8434 111.101 70.4636 112.571C71.4111 112.957 72.5286 112.715 73.6983 112.107C77.6256 110.075 82.0626 103.945 82.0626 103.945L81.1674 99.4757L80.3375 95.3197C77.0571 96.9337 73.3127 104.801 72.2737 104.743C71.3981 104.697 69.222 97.9597 68.5816 95.9078C68.4771 95.5745 68.1307 95.3915 67.7975 95.4896L63.563 96.6854C63.2298 96.7769 63.0337 97.1232 63.1187 97.4565Z" fill="#344CB7"/>
<path d="M67.1052 94.0872L67.4587 95.5837L63.5647 96.6841L63.1001 95.057L67.1052 94.0872Z" fill="#344CB7"/>
<path opacity="0.2" d="M67.1052 94.0872L67.4587 95.5837L63.5647 96.6841L63.1001 95.057L67.1052 94.0872Z" fill="#430101"/>
<path opacity="0.2" d="M73.6982 112.107C77.6256 110.075 82.0626 103.945 82.0626 103.945L81.1673 99.4757C79.1481 101.351 74.3386 106.37 73.6982 112.107Z" fill="#430101"/>
<path d="M103.382 178.992L103.354 173.286C103.354 173.094 103.487 172.926 103.675 172.884L107.853 171.938C108.227 171.857 108.596 172.095 108.677 172.468C108.688 172.519 108.693 172.57 108.693 172.621C108.672 174.467 108.565 175.812 108.576 178.131C108.584 179.558 108.754 183.866 108.763 185.838C108.773 187.809 106.827 188.076 106.643 187.27C105.837 183.653 104.73 180.933 103.685 179.779C103.486 179.566 103.378 179.283 103.382 178.992Z" fill="#263238"/>
<path d="M77.9065 126.449L76.0637 136.116C76.0637 136.116 61.4973 159.693 61.5051 173.305C61.5149 189.565 103.929 180.184 103.929 180.184V172.697C103.929 172.697 78.5756 174.876 76.2917 172.333C73.5191 169.246 90.6137 145.356 90.6137 145.356L77.9065 126.449Z" fill="#263238"/>
<path opacity="0.2" d="M61.5039 173.307C61.5098 182.27 74.4046 183.441 85.9742 182.685C93.6871 182.184 100.812 180.824 103.135 180.35C103.648 180.247 103.931 180.183 103.931 180.183V172.695C103.931 172.695 103.596 172.724 102.997 172.77C100.115 173.001 91.1392 173.652 84.349 173.554C80.3139 173.497 77.0453 173.168 76.2905 172.332C74.93 170.816 78.3659 164.274 82.2109 158.014C82.2109 158.008 82.2109 158.008 82.2109 158.008C86.1938 151.535 90.6158 145.355 90.6158 145.355L85.0469 137.066L77.9105 126.447L76.0657 136.114C76.0644 136.115 61.498 159.691 61.5039 173.307Z" fill="white"/>
<path opacity="0.2" d="M84.3486 173.555L85.9745 182.686C93.6873 182.185 100.812 180.824 103.135 180.351L102.997 172.771C100.114 173.002 91.1388 173.653 84.3486 173.555Z" fill="#430101"/>
<path opacity="0.2" d="M85.0226 147.407C85.0226 147.407 82.6538 152.981 82.2095 158.009C86.1923 151.535 90.6143 145.355 90.6143 145.355L85.0455 137.066L82.1115 136.115C82.1115 136.115 81.4613 139.923 85.0226 147.407Z" fill="#430101"/>
<path d="M88.8126 229.249H94.5187C94.7108 229.251 94.8774 229.384 94.9193 229.572L95.8452 233.755C95.9243 234.129 95.6851 234.497 95.3107 234.576C95.2604 234.587 95.2094 234.592 95.1584 234.591C93.3117 234.561 91.9676 234.448 89.6491 234.448C88.2212 234.448 83.9129 234.597 81.9408 234.597C79.9693 234.597 79.7118 232.649 80.5188 232.47C84.1397 231.681 86.8646 230.588 88.0239 229.549C88.2382 229.351 88.5212 229.244 88.8126 229.249Z" fill="#263238"/>
<path d="M103.323 126.758C103.323 126.758 104.59 131.493 103.323 153.19C101.377 186.502 95.2021 230.852 95.2021 230.852L88.0231 229.548C88.0231 229.548 88.9393 163.207 87.9748 144.9C87.9748 144.9 77.8304 135.802 77.9062 126.449C77.9833 117.098 103.323 126.758 103.323 126.758Z" fill="#263238"/>
<path opacity="0.2" d="M103.323 126.758C103.323 126.758 104.59 131.493 103.323 153.19C101.377 186.502 95.2021 230.852 95.2021 230.852L88.0231 229.548C88.0231 229.548 88.9393 163.207 87.9748 144.9C87.9748 144.9 77.8304 135.802 77.9062 126.449C77.9833 117.098 103.323 126.758 103.323 126.758Z" fill="white"/>
<path d="M77.3775 125.83C77.371 126.294 77.7435 126.673 78.2074 126.679L101.863 127.209L103.542 127.248C104 127.261 104.385 126.915 104.411 126.457L104.888 120.23L105.143 116.877L106.359 100.907L106.614 97.5349C95.0276 88.883 80.3377 95.3196 80.3377 95.3196C77.6977 103.625 77.4102 121.301 77.3775 125.83Z" fill="#344CB7"/>
<path d="M103.984 127.137L77.5402 126.329L77.2305 127.901L103.984 128.771V127.137Z" fill="#344CB7"/>
<path opacity="0.2" d="M103.984 127.137L77.5402 126.329L77.2305 127.901L103.984 128.771V127.137Z" fill="#430101"/>
<path opacity="0.2" d="M105.143 116.877L106.359 100.907C105.712 101.103 105.052 101.456 104.398 101.998C104.398 101.998 100.268 108.428 105.143 116.877Z" fill="#430101"/>
<path opacity="0.2" d="M101.863 127.209L103.542 127.248C104 127.261 104.385 126.915 104.411 126.457L104.888 120.23C103.947 122.112 102.608 124.948 101.863 127.209Z" fill="#430101"/>
<g opacity="0.7">
<path d="M80.0886 108.176L80.3794 107.417C80.7081 107.645 81.2035 107.796 81.6563 107.775C82.1908 107.751 82.4065 107.568 82.3928 107.278C82.3562 106.48 80.1579 107.333 80.0821 105.665C80.0462 104.875 80.6382 104.33 81.6125 104.285C82.0928 104.263 82.647 104.371 82.9822 104.584L82.6907 105.342C82.3353 105.124 81.9863 105.061 81.6413 105.077C81.1277 105.1 80.8924 105.307 80.9048 105.581C80.9434 106.427 83.1416 105.573 83.2161 107.209C83.2521 107.992 82.6522 108.529 81.638 108.576C81.0368 108.603 80.4252 108.428 80.0886 108.176Z" fill="white"/>
</g>
<path d="M98.4716 95.104C96.1943 97.1729 90.6157 96.4083 90.6157 96.4083C90.6157 96.4083 87.1334 95.4549 87.8646 94.3669C89.9158 94.0277 90.9091 93.0704 91.3188 91.8458C91.5567 91.1322 91.5926 90.3298 91.5266 89.5032C91.4965 89.0693 91.4312 88.6295 91.3541 88.1949L98.2508 83.0874C97.3477 86.4593 96.242 92.6607 98.4716 95.104Z" fill="#E4897B"/>
<path opacity="0.2" d="M96.6583 86.3345C96.3845 90.4729 92.9839 91.6145 91.3188 91.8458C91.5567 91.1322 91.5926 90.3298 91.5266 89.5031L96.6583 86.3345Z" fill="#430101"/>
<path d="M100.551 72.3641C100.551 72.3641 102.476 78.5883 99.4619 81.5459C96.4488 84.5029 94.6694 72.6457 94.6694 72.6457L100.551 72.3641Z" fill="#263238"/>
<path d="M90.407 88.0812C92.4014 90.1932 95.1688 90.4088 97.3814 89.3254C98.8047 88.6308 99.9953 87.3938 100.607 85.781C100.69 85.5699 100.759 85.3497 100.821 85.1236C101.901 80.9813 101.409 74.0931 96.9096 72.1589C93.7116 70.7572 89.9737 72.2138 88.5727 75.4177C88.1682 76.326 87.9924 77.3206 88.046 78.3165C88.2231 82.9437 88.1094 85.6725 90.407 88.0812Z" fill="#E4897B"/>
<path d="M95.0444 79.7528C95.0111 80.1259 95.2274 80.4376 95.4777 80.4422C95.7279 80.4468 95.9286 80.1429 95.9384 79.7678C95.9482 79.3927 95.7495 79.0823 95.5051 79.0778C95.2614 79.0739 95.0549 79.3718 95.0444 79.7528Z" fill="#263238"/>
<path d="M99.3051 79.839C99.2718 80.2122 99.4939 80.5245 99.7383 80.5284C99.9827 80.5324 100.189 80.2292 100.199 79.8534C100.209 79.4783 100.01 79.1679 99.7658 79.1634C99.5214 79.1601 99.3136 79.4816 99.3051 79.839Z" fill="#263238"/>
<path d="M97.9476 79.9972C98.373 81.1591 98.9572 82.2562 99.6832 83.258C99.1513 83.622 98.486 83.7324 97.8652 83.5599L97.9476 79.9972Z" fill="#DE5753"/>
<path d="M93.7504 78.3465C93.832 78.3596 93.9144 78.3289 93.9667 78.2649C94.3045 77.8146 94.8351 77.5506 95.3978 77.5526C95.5186 77.5637 95.6258 77.4748 95.6369 77.3539C95.648 77.233 95.5592 77.1259 95.4383 77.1148H95.4376C94.726 77.0945 94.049 77.4206 93.6216 77.9898C93.5439 78.0832 93.5556 78.2217 93.6491 78.2995C93.6504 78.3008 93.6517 78.3015 93.653 78.3028C93.6831 78.3217 93.7157 78.3367 93.7504 78.3465Z" fill="#263238"/>
<path d="M101.166 78.4066C101.207 78.4243 101.253 78.4282 101.296 78.4184C101.407 78.3694 101.457 78.2394 101.407 78.1283C101.407 78.127 101.406 78.125 101.406 78.1237C101.121 77.4683 100.536 76.9925 99.8372 76.8481C99.717 76.8305 99.6052 76.9135 99.5876 77.0337C99.5732 77.1533 99.6549 77.2637 99.7738 77.284C100.322 77.414 100.777 77.7963 101 78.3139C101.04 78.3674 101.1 78.4014 101.166 78.4066Z" fill="#263238"/>
<path d="M91.5582 72.6111L91.8634 74.644C91.204 75.0191 90.8211 75.785 91.1517 76.5796C91.8575 78.2773 90.957 80.965 89.6697 82.0628C89.6697 82.0628 89.6083 81.3205 88.9862 81.5139C88.3641 81.7073 88.6431 85.5739 89.9173 87.3866C89.9173 87.3866 87.7047 85.4033 86.5481 81.3682C85.4784 77.6362 85.5881 74.8721 86.3207 73.3965L91.5582 72.6111Z" fill="#263238"/>
<path d="M85.9469 82.0713C86.439 83.1292 87.3309 83.948 88.4261 84.3493C89.8801 84.8701 90.7172 83.5945 90.4094 82.1628C90.1232 80.8931 89.0306 79.0497 87.5231 79.1607C86.0149 79.2718 85.3588 80.765 85.9469 82.0713Z" fill="#E4897B"/>
<path d="M97.3409 84.9145C96.773 85.4314 95.9706 86.5123 95.9706 86.5123C95.8595 86.4574 95.7484 86.4018 95.6406 86.3411C94.1539 85.5562 93.7239 84.7015 93.6978 83.9912C93.6847 83.603 93.7984 83.2554 93.9252 82.9907C94.069 82.683 94.2415 82.4961 94.2415 82.4961C94.7806 83.3828 96.1104 84.2212 96.839 84.6394C97.1416 84.8172 97.3409 84.9145 97.3409 84.9145Z" fill="#263238"/>
<path d="M96.8384 84.6388L96.4222 85.0995C95.0238 84.3571 94.139 83.6468 93.9253 82.9907C94.0691 82.683 94.2416 82.4961 94.2416 82.4961C94.7807 83.3828 96.1098 84.2206 96.8384 84.6388Z" fill="white"/>
<path d="M95.6405 86.341C94.1539 85.5562 93.7239 84.7015 93.6978 83.9912C94.1937 84.278 94.7603 84.6793 95.1752 85.1896C95.4941 85.5784 95.6117 85.981 95.6405 86.341Z" fill="#DE5753"/>
<path d="M85.7593 76.5012C85.7593 76.5012 84.9974 73.3057 88.0366 70.767C91.0759 68.2283 99.6069 67.0364 100.899 70.767C102.192 74.4976 95.8939 77.9231 91.3196 74.627L85.7593 76.5012Z" fill="#263238"/>
<path d="M97.6918 91.9824L91.067 94.97L90.6788 92.5751L88.2433 93.4318C87.369 93.7396 86.8201 94.6067 86.9161 95.5287L87.1906 98.157L90.552 96.3175L92.2268 98.6869L100.185 94.8537L97.6918 91.9824Z" fill="#344CB7"/>
<path opacity="0.7" d="M97.6918 91.9824L91.067 94.97L90.6788 92.5751L88.2433 93.4318C87.369 93.7396 86.8201 94.6067 86.9161 95.5287L87.1906 98.157L90.552 96.3175L92.2268 98.6869L100.185 94.8537L97.6918 91.9824Z" fill="white"/>
<path opacity="0.2" d="M98.7495 128.771C98.7495 128.771 98.9024 132.305 103.469 133.812C103.469 133.812 103.757 131.476 103.105 128.742L98.7495 128.771Z" fill="#430101"/>
<path d="M106.615 97.5343C110.665 101.455 116.695 113.992 114.908 119.421C113.39 124.032 106.325 130.973 104.229 132.961C103.909 133.264 103.402 133.247 103.104 132.92L100.592 130.16C100.337 129.88 100.316 129.461 100.545 129.158C102.176 127.004 108.346 118.776 108.763 117.094C109.243 115.156 103.984 107.53 103.984 107.53C103.984 107.53 103.182 104.243 103.886 100.845C104.59 97.448 106.615 97.5343 106.615 97.5343Z" fill="#344CB7"/>
<path d="M100.42 129.846L99.5063 130.796C99.5063 130.796 100.928 132.951 102.651 133.381L103.105 132.921L100.42 129.846Z" fill="#344CB7"/>
<path opacity="0.2" d="M100.42 129.846L99.5063 130.796C99.5063 130.796 100.928 132.951 102.651 133.381L103.105 132.921L100.42 129.846Z" fill="#430101"/>
</svg>
