<svg width="253" height="253" viewBox="0 0 253 253" fill="none" xmlns="http://www.w3.org/2000/svg">
<path d="M200.705 92.6157H124.572C121.963 92.6157 119.848 90.5006 119.848 87.8917V29.2149C119.848 26.606 121.963 24.4909 124.572 24.4909H200.705C203.314 24.4909 205.429 26.606 205.429 29.2149V87.8917C205.429 90.5006 203.314 92.6157 200.705 92.6157Z" fill="white" stroke="#FF95FB" stroke-width="0.759" stroke-miterlimit="10" stroke-linecap="round" stroke-linejoin="round"/>
<path d="M129.421 36.8833H126.073C125.753 36.8833 125.494 36.6238 125.494 36.304V32.9563C125.494 32.6365 125.753 32.3769 126.073 32.3769H129.421C129.741 32.3769 130 32.6365 130 32.9563V36.304C130 36.6243 129.741 36.8833 129.421 36.8833Z" fill="#FF95FB"/>
<path d="M129.421 48.7106H126.073C125.753 48.7106 125.494 48.451 125.494 48.1312V44.7835C125.494 44.4637 125.753 44.2042 126.073 44.2042H129.421C129.741 44.2042 130 44.4637 130 44.7835V48.1312C130 48.451 129.741 48.7106 129.421 48.7106Z" fill="#344CB7"/>
<path d="M129.421 60.5378H126.073C125.753 60.5378 125.494 60.2783 125.494 59.9585V56.6108C125.494 56.291 125.753 56.0314 126.073 56.0314H129.421C129.741 56.0314 130 56.291 130 56.6108V59.9585C130 60.2783 129.741 60.5378 129.421 60.5378Z" fill="white" stroke="#303030" stroke-width="0.759" stroke-miterlimit="10" stroke-linecap="round" stroke-linejoin="round"/>
<path d="M129.421 72.3651H126.073C125.753 72.3651 125.494 72.1055 125.494 71.7857V68.438C125.494 68.1182 125.753 67.8586 126.073 67.8586H129.421C129.741 67.8586 130 68.1182 130 68.438V71.7857C130 72.1055 129.741 72.3651 129.421 72.3651Z" fill="#00826F"/>
<path d="M129.421 83.4455H126.073C125.753 83.4455 125.494 83.1859 125.494 82.8661V79.5184C125.494 79.1986 125.753 78.939 126.073 78.939H129.421C129.741 78.939 130 79.1986 130 79.5184V82.8661C130 83.1864 129.741 83.4455 129.421 83.4455Z" fill="#303030"/>
<path d="M148.967 58.4799H140.947V83.446H148.967V58.4799Z" fill="#FF95FB"/>
<path d="M160.963 48.7106H152.943V83.4455H160.963V48.7106Z" fill="#344CB7"/>
<path d="M172.96 66.6265H164.939V83.4455H172.96V66.6265Z" fill="white" stroke="#303030" stroke-width="0.759" stroke-miterlimit="10" stroke-linecap="round" stroke-linejoin="round"/>
<path d="M184.955 39.4624H176.935V83.446H184.955V39.4624Z" fill="#00826F"/>
<path d="M196.952 54.3626H188.932V83.4455H196.952V54.3626Z" fill="#303030"/>
<path d="M133.917 83.4455H200.938" stroke="#FF95FB" stroke-width="0.759" stroke-miterlimit="10" stroke-linecap="round" stroke-linejoin="round"/>
<path d="M136.743 83.4455V31.4955" stroke="#FF95FB" stroke-width="0.759" stroke-miterlimit="10" stroke-linecap="round" stroke-linejoin="round"/>
<path d="M112.308 152.28C111.891 140.793 107.454 141.273 84.2096 142.375C60.965 143.478 58.7381 139.718 48.6651 156.321L40.4219 158.314C40.4219 158.314 53.4281 195.373 91.0983 196.326C128.768 197.278 112.308 152.28 112.308 152.28Z" fill="#344CB7"/>
<path d="M92.9356 142.127C95.5623 157.305 90.307 181.876 86.4355 189.819" stroke="#303030" stroke-width="0.759" stroke-miterlimit="10" stroke-linecap="round" stroke-linejoin="round"/>
<path d="M83.3074 218.821C88.0031 215.722 94.7086 211.66 101.994 207.694C109.281 203.728 118.849 201.72 130.156 196.333C141.464 190.946 145.801 188.372 148.727 182.211C151.048 177.325 152.333 168.142 148.952 164.428C139.432 153.969 123.369 165.463 116.645 171.261C111.935 175.322 108.331 180.368 104.231 184.997C100.073 189.691 94.0816 192.917 88.4154 195.335C85.0627 196.766 81.1356 197.425 77.7333 198.732C73.2967 200.436 68.4725 200.488 63.9215 201.8C62.7496 202.138 61.5949 202.577 60.5728 203.242C58.7775 204.411 57.4816 206.296 56.96 208.367C56.415 210.529 55.9156 212.947 56.1048 215.189C56.2015 216.338 56.4317 217.488 56.922 218.532C58.9496 222.849 63.4823 225.369 68.1825 225.213C73.7673 225.027 78.7893 221.802 83.3074 218.821Z" fill="#D48983"/>
<path d="M102.258 187.434C102.284 190.392 104.448 199.793 111.342 203.572L115.43 202.379C115.43 202.379 115.53 204.433 112.633 205.833C109.736 207.232 109.186 206.183 106.255 207.906C103.659 209.433 93.3126 214.872 90.8211 216.274C86.7382 218.57 82.5222 220.631 78.2015 222.442C74.3796 224.043 70.2547 225.749 66.017 225.327C60.6696 224.793 57.9984 220.274 57.034 215.425C56.2562 211.516 56.4612 206.916 59.4445 204.273C62.016 201.995 63.7567 201.129 68.3739 200.652C71.4565 200.333 75.0622 199.935 77.7865 198.99C82.6532 197.302 84.9004 196.317 90.2589 193.492C94.2609 191.382 96.7099 189.483 99.0805 186.689C101.063 184.354 103.042 184.05 103.802 184.902L102.258 187.434Z" fill="white" stroke="#303030" stroke-width="0.759" stroke-miterlimit="10" stroke-linecap="round" stroke-linejoin="round"/>
<path d="M55.1131 218.183C53.4524 210.67 55.6556 202.766 62.3636 200.723C69.0721 198.68 69.8984 199.945 76.4537 197.471C79.7897 196.211 81.9331 195.034 83.8868 194.346C85.7717 193.682 87.3782 192.919 89.7837 191.909C92.1893 190.899 93.2382 189.793 95.3679 188.564C96.679 187.807 97.0297 188.975 97.2801 189.823C98.6413 194.433 101.427 204.179 108.128 206.931C110.166 207.768 110.706 209.716 109.967 210.095C104.225 213.043 98.6327 215.903 91.7364 219.161C85.0936 222.299 75.0257 227.194 68.2646 227.473C61.5029 227.753 56.3407 225.686 55.1131 218.183Z" fill="#303030"/>
<path d="M58.452 228.378C64.2903 230.304 68.6763 228.128 74.094 226.217C71.9976 226.931 70.0065 227.399 68.2659 227.469C61.5037 227.754 56.3405 225.69 55.116 218.185C53.4512 210.668 55.6538 202.766 62.3629 200.725C63.1351 200.486 63.8369 200.297 64.4724 200.132C60.3232 200.348 57.2892 201.376 54.53 203.472C51.6919 205.637 50.9566 211.07 50.941 214.676C50.9308 218.28 52.6173 226.443 58.452 228.378Z" fill="white" stroke="#303030" stroke-width="0.759" stroke-miterlimit="10" stroke-linecap="round" stroke-linejoin="round"/>
<path d="M74.0942 204.895C76.6217 207.361 78.8547 213.81 79.1492 217.358" stroke="white" stroke-width="0.759" stroke-miterlimit="10" stroke-linecap="round" stroke-linejoin="round"/>
<path d="M80.2896 201.8C82.0616 204.867 84.963 210.897 85.9077 214.086" stroke="white" stroke-width="0.759" stroke-miterlimit="10" stroke-linecap="round" stroke-linejoin="round"/>
<path d="M86.0127 198.882C87.5322 202.088 90.679 208.215 92.2744 211.045" stroke="white" stroke-width="0.759" stroke-miterlimit="10" stroke-linecap="round" stroke-linejoin="round"/>
<path d="M91.8877 195.837C93.1547 199.181 96.3865 205.297 98.6322 207.768" stroke="white" stroke-width="0.759" stroke-miterlimit="10" stroke-linecap="round" stroke-linejoin="round"/>
<path d="M163.384 162.77C155.552 150.974 128.204 149.422 103.312 156.355V186.99C103.312 186.99 104.695 197.752 117.15 204.979C117.15 204.979 134.806 199.39 144.656 194.988C163.177 186.71 171.637 175.199 163.384 162.77Z" fill="#344CB7"/>
<path d="M127.059 164.018C120.601 164.716 116.204 170.642 113.159 174.391C109.382 179.043 106.584 182.404 103.802 186.344" stroke="#303030" stroke-width="0.759" stroke-miterlimit="10" stroke-linecap="round" stroke-linejoin="round"/>
<path d="M25.1068 170.98C39.2455 159.442 63.4606 170.33 72.724 173.581C81.9873 176.831 112.315 189.312 117.191 190.612C122.066 191.912 134.927 194.12 140.818 194.545C149.927 195.203 167.034 192.513 171.446 197.462C174.69 201.102 170.298 209.648 165.098 213.386C159.897 217.124 154.231 217.259 142.931 214.86C136.846 213.568 128.305 212.097 119.204 210.959C110.103 209.822 95.8011 209.334 81.9873 208.359C68.1735 207.384 44.8889 205.409 30.7498 197.679C16.6111 189.949 15.2049 179.061 25.1068 170.98Z" fill="#D48983"/>
<path d="M42.8031 153.828C34.9313 157.923 14.8552 165.812 15.4255 182.305C15.7852 192.707 22.5672 198.154 31.4702 201.8C39.9994 205.293 53.2793 207.62 64.3739 208.804C73.0523 209.729 84.8558 210.077 84.8558 210.077C84.8558 210.077 88.5587 205.448 91.3361 197C94.1135 188.553 91.4849 180.614 91.4849 180.614C78.7028 173.268 42.8031 153.828 42.8031 153.828Z" fill="#344CB7"/>
<path d="M87.7832 178.601L90.4326 180.022C90.4326 180.022 92.1226 189.109 90.4326 195.662C88.061 204.859 83.2125 210.02 83.2125 210.02L78.999 209.842C78.999 209.842 79.1088 211.858 81.7208 212.501C84.3323 213.143 86.0233 211.898 91.1845 211.858C96.3457 211.818 97.7423 212.073 99.7111 211.738C103.154 211.153 104.901 208.211 107.21 200.581C109.518 192.952 108.213 186.025 106.105 183.716C103.997 181.408 100.751 182.332 98.8443 181.227C96.9352 180.122 92.0493 174.891 87.7832 178.601Z" fill="#344CB7"/>
<path d="M91.1836 185.356C93.3574 184.711 95.4466 185.159 97.3436 186.401C98.5413 187.186 99.5614 188.316 100.94 188.704C102.243 189.069 102.997 188.707 104.35 188.749C105.905 188.798 107.635 189.371 108.673 190.864" stroke="#303030" stroke-width="0.759" stroke-miterlimit="10" stroke-linecap="round" stroke-linejoin="round"/>
<path d="M98.021 201.816C100.559 197.39 102.063 187.427 98.8427 181.226" stroke="#303030" stroke-width="0.759" stroke-miterlimit="10" stroke-linecap="round" stroke-linejoin="round"/>
<path d="M106.104 183.716C103.996 181.407 100.75 182.331 98.8428 181.226C96.9352 180.122 92.0493 174.891 87.7832 178.601" stroke="#303030" stroke-width="0.759" stroke-miterlimit="10" stroke-linecap="round" stroke-linejoin="round"/>
<path d="M50.9399 172.069C56.9624 170.077 63.55 170.35 69.7292 171.784C75.9085 173.218 87.7828 178.601 87.7828 178.601L90.4322 180.023C90.4322 180.023 92.1223 189.109 90.4322 195.663C88.0606 204.86 83.2121 210.021 83.2121 210.021" stroke="#303030" stroke-width="0.759" stroke-miterlimit="10" stroke-linecap="round" stroke-linejoin="round"/>
<path d="M121.332 192.053C122.368 194.886 123.424 204.964 118.197 211.045L115.431 210.692C115.431 210.692 115.229 213.055 118.497 213.352C121.764 213.649 123.523 213.657 127.06 214.085C130.109 214.454 139.077 215.241 141.958 215.685C146.679 216.413 151.443 216.869 156.217 217.047C160.44 217.205 164.989 217.354 168.883 215.431C173.797 213.004 174.726 207.732 173.907 202.757C173.247 198.746 171.401 194.428 167.606 192.975C164.334 191.723 162.362 191.521 157.783 192.721C154.726 193.522 151.141 194.436 148.202 194.511C142.95 194.645 140.452 194.511 134.323 193.736C129.746 193.157 124.869 191.183 121.454 189.67C118.038 188.156 117.612 189.526 117.192 190.612L121.332 192.053Z" fill="white" stroke="#303030" stroke-width="0.759" stroke-miterlimit="10" stroke-linecap="round" stroke-linejoin="round"/>
<path d="M176.73 204.7C175.62 196.933 170.682 190.178 163.546 190.633C156.409 191.089 156.074 192.593 148.928 192.583C145.292 192.577 142.824 192.221 140.712 192.265C138.674 192.308 136.867 192.156 134.209 192.054C131.55 191.953 130.152 191.274 127.678 190.864C126.155 190.611 126.24 191.852 126.305 192.751C126.659 197.64 127.224 207.666 122.085 212.974C121.489 213.59 121.684 214.613 122.517 214.768C129.547 216.076 134.793 216.576 141.38 217.256C148.833 218.026 160.953 220.443 167.507 218.285C174.062 216.128 178.249 212.304 176.73 204.7Z" fill="#303030"/>
<path d="M177.199 215.63C172.316 219.563 167.349 219.059 161.491 219.178C163.749 219.108 165.818 218.84 167.505 218.283C174.062 216.129 178.251 212.307 176.728 204.704C175.621 196.931 170.684 190.177 163.548 190.636C162.724 190.685 161.987 190.755 161.321 190.826C165.359 189.544 168.624 189.438 172.01 190.448C175.496 191.497 178.147 196.421 179.455 199.857C180.756 203.294 182.074 211.69 177.199 215.63Z" fill="white" stroke="#303030" stroke-width="0.759" stroke-miterlimit="10" stroke-linecap="round" stroke-linejoin="round"/>
<path d="M154.314 199.021C153.432 202.543 153.284 208.112 153.786 212.19" stroke="white" stroke-width="0.759" stroke-miterlimit="10" stroke-linecap="round" stroke-linejoin="round"/>
<path d="M146.903 198.288C146.312 201.852 145.918 208.107 146.16 211.49" stroke="white" stroke-width="0.759" stroke-miterlimit="10" stroke-linecap="round" stroke-linejoin="round"/>
<path d="M140.394 197.555C140.093 201.161 139.5 207.597 138.992 210.87" stroke="white" stroke-width="0.759" stroke-miterlimit="10" stroke-linecap="round" stroke-linejoin="round"/>
<path d="M133.693 196.756C133.683 200.403 133.004 206.859 131.747 210.023" stroke="white" stroke-width="0.759" stroke-miterlimit="10" stroke-linecap="round" stroke-linejoin="round"/>
<path d="M102.221 65.4126C101.6 75.5918 93.1791 81.9857 82.5212 81.3365C71.8633 80.6873 63.7263 71.9087 64.3462 61.7295C64.9665 51.5503 74.1069 45.0881 84.7668 44.4739C100.113 43.5899 110.64 54.2027 102.221 65.4126Z" fill="#303030"/>
<path d="M70.9003 48.952C67.1857 50.2949 64.8283 53.1006 63.5658 56.8314C62.1252 61.0879 63.2936 65.3443 62.5973 69.6398C62.4339 70.6477 62.2745 71.6724 62.0959 72.6894C59.9429 82.9673 62.277 91.7393 69.3631 99.5398C72.777 103.41 78.8111 105.107 83.7137 106.113C88.7833 107.154 95.4732 107.351 100.129 104.757C110.973 98.4732 109.499 90.8493 104.201 81.085C103.405 79.4056 101.549 77.2303 101.725 73.8203C101.998 68.5696 102.951 63.1513 101.111 58.1156C95.6027 44.6843 83.2846 44.2583 70.9003 48.952Z" fill="#303030"/>
<path d="M100.566 66.8295C100.537 68.944 100.844 71.0652 101.492 73.0791C102.112 75.0059 103.037 76.8169 104.011 78.5853C105.913 82.0373 108.175 85.5848 108.454 89.6237C108.597 91.6842 108.217 93.7826 107.066 95.5242C106.796 95.9331 107.454 96.3136 107.722 95.9072C109.876 92.6481 109.467 88.4665 108.117 84.9862C106.621 81.1285 104.077 77.7818 102.593 73.921C101.723 71.6562 101.291 69.2552 101.325 66.8295C101.331 66.3412 100.572 66.3407 100.566 66.8295Z" fill="#303030"/>
<path d="M102.283 66.1934C102.08 63.1139 101.38 59.6109 100.114 57.1051C94.7282 46.9512 84.3289 48.3159 79.9302 50.4988C79.3544 63.2298 70.3365 65.5563 70.3365 65.5563C71.1339 66.5992 71.1951 68.6237 70.5763 70.0825C69.288 68.1435 67.2671 66.5309 64.8934 66.1939C62.5198 65.8569 59.8612 67.0769 59.1114 69.2486C58.3696 71.3961 59.6867 73.8679 61.7299 75.0266C63.7731 76.1859 66.6588 76.4359 69.3487 75.266L69.3523 75.2645C70.1022 77.2642 71.7264 79.318 74.1102 80.8902L71.9718 88.7322L66.7707 90.0225C66.7707 90.0225 72.4156 104.466 85.9395 103.404C99.4633 102.343 93.7865 90.6347 93.7865 90.6347L88.3162 89.5443L88.0707 84.4828C93.237 84.3082 103.293 81.5313 102.283 66.1934Z" fill="#D48983"/>
<path d="M70.3254 75.8312C70.2257 76.6974 69.4434 77.3188 68.5772 77.2191C67.7109 77.1195 67.0895 76.3372 67.1892 75.4709C67.2889 74.6046 68.0712 73.9833 68.9374 74.0829C69.8032 74.1826 70.4246 74.9649 70.3254 75.8312Z" fill="white" stroke="#303030" stroke-width="0.759" stroke-miterlimit="10" stroke-linecap="round" stroke-linejoin="round"/>
<path d="M62.4243 69.323C63.0047 68.988 64.3749 68.812 65.6991 69.2942C67.0234 69.7764 68.0551 70.9366 68.3379 72.2624" stroke="#303030" stroke-width="0.759" stroke-miterlimit="10" stroke-linecap="round" stroke-linejoin="round"/>
<path d="M64.6104 70.9964C65.0379 70.7525 66.518 70.166 67.8356 71.0333" stroke="#303030" stroke-width="0.759" stroke-miterlimit="10" stroke-linecap="round" stroke-linejoin="round"/>
<path d="M79.1079 82.8949C79.1079 82.8949 82.6656 84.6032 88.0702 84.4823L88.1522 86.1784C88.1522 86.1784 80.9811 86.1991 79.1079 82.8949Z" fill="#303030"/>
<path d="M87.5854 59.3766C88.9056 61.8246 89.742 63.7439 90.9043 66.5334C91.5773 68.1491 91.0819 69.5376 88.432 70.3633" stroke="#303030" stroke-width="0.759" stroke-miterlimit="10" stroke-linecap="round" stroke-linejoin="round"/>
<path d="M91.6299 64.5489C92.2346 63.7211 93.577 62.5001 95.139 62.3427C96.701 62.1859 98.9689 62.9884 99.2882 64.5383C98.7523 66.752 93.8042 67.5146 91.6299 64.5489Z" fill="white"/>
<path d="M91.6298 64.5489C91.52 62.7192 94.1113 60.5768 97.0592 61.017C99.5897 61.395 101.006 63.037 99.9626 63.7995C98.9193 64.5626 99.0356 63.6735 97.8885 63.042C95.7229 61.8489 94.0379 62.2906 91.6298 64.5489Z" fill="#AD6163"/>
<path d="M98.1653 65.6252C97.5313 66.6028 96.1848 66.8633 95.1571 66.2071C94.1295 65.5508 93.8102 64.2261 94.4437 63.2485C95.0777 62.2709 96.4247 62.0103 97.4524 62.6666C98.48 63.3229 98.7988 64.6476 98.1653 65.6252Z" fill="#303030"/>
<path d="M94.2995 63.1711L96.3048 64.4366L93.8628 64.3055L94.2995 63.1711Z" fill="white"/>
<path d="M99.2877 64.5383C98.8318 62.3589 94.841 61.1041 91.6299 64.5484" stroke="#303030" stroke-width="0.759" stroke-miterlimit="10" stroke-linecap="round" stroke-linejoin="round"/>
<path d="M100.651 63.1341C100.455 63.6012 99.9562 63.924 99.4497 63.9118" stroke="#303030" stroke-width="0.759" stroke-miterlimit="10" stroke-linecap="round" stroke-linejoin="round"/>
<path d="M92.9014 58.0094C95.1131 57.307 97.8308 57.8176 99.495 59.2197" stroke="#303030" stroke-width="0.759" stroke-miterlimit="10" stroke-linecap="round" stroke-linejoin="round"/>
<path d="M85.2866 63.7287C85.403 61.8367 83.3284 59.795 80.3708 60.1654C77.8317 60.4832 76.2049 62.1297 77.2301 62.9171C78.2553 63.7044 78.1596 62.8133 79.3214 62.2087C81.5144 61.0676 84.0788 61.609 85.2866 63.7287Z" fill="#AD6163"/>
<path d="M77.6284 63.7393C78.1132 62.7946 79.5993 61.7993 81.1613 61.6419C82.7233 61.4851 84.9943 62.361 85.2867 63.7287C84.7514 65.9424 79.8032 66.7055 77.6284 63.7393Z" fill="white"/>
<path d="M84.1694 64.9699C83.546 65.9546 82.2021 66.2293 81.1673 65.5842C80.1325 64.939 79.7991 63.6179 80.4225 62.6332C81.0459 61.6485 82.3898 61.3738 83.4246 62.0189C84.4593 62.6646 84.7928 63.9857 84.1694 64.9699Z" fill="#303030"/>
<path d="M80.2771 62.5578L82.296 63.8015L79.8525 63.6963L80.2771 62.5578Z" fill="white"/>
<path d="M85.2867 63.7292C83.6437 61.3393 79.6544 60.4716 77.6284 63.7398" stroke="#303030" stroke-width="0.759" stroke-miterlimit="10" stroke-linecap="round" stroke-linejoin="round"/>
<path d="M76.4229 62.1748C76.7184 62.7096 77.3326 63.0506 77.9429 63.0183" stroke="#303030" stroke-width="0.759" stroke-miterlimit="10" stroke-linecap="round" stroke-linejoin="round"/>
<path d="M84.4936 57.3632C81.7228 56.291 79.1483 56.9513 76.9644 58.6712" stroke="#303030" stroke-width="0.759" stroke-miterlimit="10" stroke-linecap="round" stroke-linejoin="round"/>
<path d="M83.1719 72.0792C85.4458 73.8183 88.6225 74.3005 91.3104 73.3148" stroke="#303030" stroke-width="0.759" stroke-miterlimit="10" stroke-linecap="round" stroke-linejoin="round"/>
<path d="M84.6218 75.3773C85.7734 76.0913 87.1047 76.3013 88.4325 76.0822C88.6349 76.0488 88.7477 75.7983 88.6976 75.6151C88.6384 75.4001 88.434 75.3166 88.2306 75.35C87.1047 75.5357 85.9743 75.3232 85.0043 74.7215C84.5889 74.4635 84.2069 75.1203 84.6218 75.3773Z" fill="#303030"/>
<path d="M105.152 93.5462C105.152 93.5462 110.903 94.7318 115.03 97.6251C118.746 100.23 121.757 104.58 125.697 109.114C129.56 113.561 133.269 117.282 133.269 117.282C133.269 117.282 143.876 117.469 148.337 117.307C149.144 117.267 149.877 117.231 150.475 117.205C154.93 116.8 156.502 115.856 157.401 114.239C157.949 113.252 158.22 112.095 158.73 111.075C159.263 110.01 159.893 108.995 160.581 108.022C161.951 106.081 163.544 104.31 165.141 102.554C165.599 102.051 166.379 101.651 166.954 102.248C167.929 103.261 167.579 104.493 167.004 105.644C166.622 106.409 166.141 107.126 165.808 107.914C165.635 108.324 165.503 108.788 165.649 109.209C166.421 111.429 175.788 106.199 176.994 105.654C178.242 105.09 179.952 104.428 181.31 104.939C182.088 105.231 182.98 105.841 182.629 106.751C182.629 106.751 184.626 106.239 185.422 107.635C186.171 108.95 184.718 110.107 184.718 110.107C184.718 110.107 186.369 111.774 182.502 114.512C181.185 116.097 179.557 118.416 176.811 120.223C174.6 121.678 170.556 122.711 165.971 125.463C162.513 127.538 158.96 128.737 154.913 130.164C151.163 131.488 147.578 132.579 144.274 133.43C140.482 134.46 134.989 135.471 133.3 135.736C128.429 136.499 125.41 135.535 121.661 132.713C118.742 130.515 105.152 117.282 105.152 117.282V93.5462Z" fill="#AD6163"/>
<path d="M166.631 115.812C162.743 115.492 160.827 117.093 159.266 118.795" stroke="#303030" stroke-width="0.759" stroke-miterlimit="10" stroke-linecap="round" stroke-linejoin="round"/>
<path d="M174.804 117.331C174.804 117.331 177.851 115.185 179.337 114.179C180.079 113.676 181.322 113.265 182.128 113.656C183.048 114.103 182.489 114.87 182.06 115.354C180.484 117.137 179.102 118.398 176.433 120.208C175.015 121.17 172.484 122.733 167.115 125.232C162.763 127.259 158.373 129.003 153.437 130.677" stroke="#303030" stroke-width="0.759" stroke-miterlimit="10" stroke-linecap="round" stroke-linejoin="round"/>
<path d="M184.718 110.108C183.358 109.086 180.137 110.565 173.081 114.726" stroke="#303030" stroke-width="0.759" stroke-miterlimit="10" stroke-linecap="round" stroke-linejoin="round"/>
<path d="M182.407 106.665C179.664 107.131 171.325 112.043 171.325 112.043" stroke="#303030" stroke-width="0.759" stroke-miterlimit="10" stroke-linecap="round" stroke-linejoin="round"/>
<path d="M127.649 120.998C128.924 118.932 131.124 117.659 133.269 117.283" stroke="#303030" stroke-width="0.759" stroke-miterlimit="10" stroke-linecap="round" stroke-linejoin="round"/>
<path d="M111.129 138.806C111.129 138.806 111.761 134.087 112.851 124.094C114.165 112.042 113.562 100.94 104.976 93.36L92.724 90.3751C92.724 90.3751 96.8075 97.7278 87.4621 98.5875C78.1168 99.4472 68.0682 89.5433 68.0682 89.5433C68.0682 89.5433 60.9407 90.5163 55.0356 92.9097C48.9449 96.4846 49.202 108.002 50.5327 117.72C52.0624 128.893 52.5861 137.765 52.5861 137.765L42.2632 152.951C42.2632 152.951 43.343 157.884 47.522 159.817C53.6021 162.629 57.091 158.879 61.3677 160.078C65.6449 161.277 65.861 165.037 71.1624 165.824C77.7571 166.804 78.3086 163.267 84.8745 163.343C91.4403 163.419 92.9553 167.762 98.6766 166.934C104.398 166.106 102.961 163.016 107.924 160.208C112.886 157.4 117.777 159.683 120.502 152.951L111.129 138.806Z" fill="white" stroke="#303030" stroke-width="0.759" stroke-miterlimit="10" stroke-linecap="round" stroke-linejoin="round"/>
<path d="M151.528 123.516C159.31 115.735 159.31 103.118 151.529 95.336C143.747 87.5542 131.13 87.5542 123.348 95.336C115.566 103.118 115.566 115.735 123.348 123.516C131.13 131.298 143.747 131.298 151.528 123.516Z" fill="#303030" stroke="#303030" stroke-width="0.759" stroke-miterlimit="10" stroke-linecap="round" stroke-linejoin="round"/>
<path d="M158.928 115.233C162.219 104.731 156.373 93.5492 145.87 90.2586C135.368 86.968 124.187 92.8143 120.896 103.317C117.606 113.819 123.452 125 133.954 128.291C144.456 131.581 155.638 125.735 158.928 115.233Z" fill="#FF95FB" stroke="#303030" stroke-width="0.759" stroke-miterlimit="10" stroke-linecap="round" stroke-linejoin="round"/>
<path d="M154.034 116.035C157.765 108.236 154.468 98.8885 146.668 95.1571C138.869 91.4257 129.522 94.7233 125.791 102.522C122.059 110.322 125.357 119.669 133.156 123.4C140.955 127.132 150.302 123.834 154.034 116.035Z" fill="#00826F" stroke="#303030" stroke-width="0.759" stroke-miterlimit="10" stroke-linecap="round" stroke-linejoin="round"/>
<path d="M155.533 108.366C156.038 116.998 149.453 124.404 140.824 124.909C140.408 124.933 139.995 124.942 139.586 124.931C131.496 124.777 124.762 118.413 124.281 110.197C123.8 101.98 129.744 94.8735 137.76 93.7765C138.166 93.7178 138.578 93.6778 138.994 93.6535C147.621 93.148 155.027 99.7336 155.533 108.366Z" fill="#303030" stroke="#303030" stroke-width="0.759" stroke-miterlimit="10" stroke-linecap="round" stroke-linejoin="round"/>
<path d="M153.069 108.51C153.55 116.726 147.602 123.833 139.586 124.931C131.496 124.777 124.762 118.413 124.281 110.197C123.8 101.98 129.744 94.8735 137.76 93.7765C145.85 93.9303 152.587 100.294 153.069 108.51Z" fill="#FF95FB" stroke="#303030" stroke-width="0.759" stroke-miterlimit="10" stroke-linecap="round" stroke-linejoin="round"/>
<path d="M144.259 108.787C143.733 108.28 143.162 107.91 142.545 107.677C141.928 107.446 141.29 107.304 140.632 107.256C139.972 107.207 139.325 107.19 138.69 107.207C138.055 107.222 137.466 107.226 136.925 107.216C136.383 107.207 135.923 107.134 135.547 106.997C135.17 106.861 134.909 106.597 134.761 106.206C134.602 105.783 134.655 105.406 134.92 105.074C135.185 104.742 135.61 104.466 136.196 104.245C136.798 104.018 137.408 103.938 138.027 104.002C138.181 104.018 138.339 104.043 138.498 104.076C139.433 104.273 140.38 103.792 140.767 102.917C141.317 101.674 140.511 100.237 139.159 100.087C138.938 100.063 138.714 100.047 138.486 100.039C137.722 100.015 136.954 100.105 136.182 100.285L135.322 97.9985L132.271 99.1467L133.168 101.529C132.718 101.818 132.311 102.138 131.958 102.496C131.198 103.265 130.709 104.136 130.49 105.11C130.272 106.084 130.371 107.124 130.787 108.23C131.112 109.092 131.527 109.763 132.032 110.241C132.537 110.719 133.095 111.067 133.706 111.283C134.316 111.498 134.953 111.635 135.615 111.692C136.277 111.749 136.924 111.765 137.556 111.741C138.188 111.717 138.774 111.72 139.314 111.749C139.854 111.778 140.321 111.871 140.715 112.029C141.109 112.187 141.382 112.47 141.536 112.876C141.707 113.332 141.645 113.759 141.35 114.158C141.054 114.558 140.548 114.892 139.832 115.161C139.019 115.467 138.218 115.573 137.431 115.48C137.168 115.448 136.903 115.4 136.637 115.335C135.67 115.099 134.668 115.552 134.27 116.465L134.22 116.577C133.725 117.712 134.363 119.046 135.57 119.324C136.045 119.433 136.517 119.498 136.987 119.519C137.873 119.559 138.813 119.439 139.806 119.16L140.649 121.401L143.699 120.252L142.808 117.885C143.912 117.227 144.74 116.445 145.28 115.534C146.104 114.147 146.192 112.591 145.543 110.866C145.212 109.989 144.784 109.296 144.259 108.787Z" fill="#303030" stroke="#303030" stroke-width="0.759" stroke-miterlimit="10" stroke-linecap="round" stroke-linejoin="round"/>
<path d="M146.053 108.112C145.528 107.604 144.957 107.234 144.34 107.002C143.723 106.77 143.085 106.629 142.426 106.58C141.767 106.532 141.12 106.515 140.485 106.531C139.85 106.546 139.262 106.55 138.72 106.54C138.178 106.531 137.718 106.458 137.342 106.321C136.965 106.184 136.704 105.92 136.557 105.53C136.397 105.108 136.451 104.73 136.715 104.398C136.98 104.066 137.406 103.79 137.991 103.57C138.593 103.343 139.204 103.262 139.823 103.326C139.977 103.342 140.134 103.367 140.294 103.401C141.229 103.597 142.175 103.116 142.562 102.242C143.112 100.998 142.306 99.5611 140.954 99.4113C140.734 99.387 140.51 99.3713 140.281 99.3637C139.517 99.3399 138.749 99.429 137.978 99.6091L137.117 97.3235L134.067 98.4716L134.963 100.854C134.514 101.143 134.107 101.464 133.754 101.821C132.994 102.59 132.504 103.461 132.286 104.435C132.067 105.409 132.166 106.449 132.583 107.555C132.908 108.417 133.322 109.088 133.827 109.566C134.333 110.045 134.891 110.392 135.501 110.608C136.112 110.823 136.748 110.96 137.41 111.017C138.073 111.074 138.719 111.091 139.351 111.066C139.983 111.042 140.569 111.045 141.109 111.074C141.65 111.103 142.116 111.196 142.511 111.354C142.905 111.512 143.178 111.795 143.331 112.201C143.503 112.657 143.44 113.084 143.145 113.483C142.849 113.883 142.344 114.217 141.628 114.486C140.815 114.792 140.014 114.898 139.226 114.805C138.964 114.773 138.699 114.725 138.433 114.66C137.466 114.424 136.464 114.877 136.065 115.789L136.016 115.902C135.521 117.037 136.159 118.371 137.366 118.649C137.841 118.758 138.313 118.823 138.783 118.844C139.669 118.884 140.609 118.764 141.602 118.485L142.445 120.726L145.495 119.577L144.604 117.21C145.707 116.552 146.535 115.77 147.076 114.859C147.9 113.472 147.988 111.916 147.339 110.191C147.007 109.313 146.579 108.62 146.053 108.112Z" fill="#FF95FB" stroke="#303030" stroke-width="0.759" stroke-miterlimit="10" stroke-linecap="round" stroke-linejoin="round"/>
<path d="M139.527 91.503C139.549 91.8673 139.271 92.18 138.906 92.2013C138.542 92.2225 138.229 91.9448 138.208 91.5799C138.187 91.2156 138.465 90.9029 138.829 90.8816C139.193 90.8604 139.506 91.1387 139.527 91.503Z" fill="#303030"/>
<path d="M130.689 94.075C130.89 94.3796 130.806 94.79 130.5 94.9904C130.195 95.1907 129.786 95.1067 129.585 94.8016C129.384 94.4965 129.469 94.0867 129.774 93.8863C130.078 93.6854 130.488 93.7699 130.689 94.075Z" fill="#303030"/>
<path d="M124.321 100.721C124.647 100.885 124.778 101.282 124.615 101.608C124.451 101.935 124.054 102.066 123.728 101.902C123.402 101.739 123.27 101.342 123.433 101.015C123.597 100.689 123.994 100.558 124.321 100.721Z" fill="#303030"/>
<path d="M122.129 109.662C122.493 109.641 122.806 109.918 122.827 110.283C122.848 110.647 122.571 110.96 122.206 110.981C121.842 111.002 121.529 110.724 121.508 110.36C121.487 109.996 121.765 109.683 122.129 109.662Z" fill="#303030"/>
<path d="M124.701 118.5C125.006 118.3 125.416 118.384 125.616 118.689C125.817 118.993 125.733 119.403 125.428 119.604C125.122 119.805 124.713 119.721 124.512 119.415C124.311 119.11 124.396 118.701 124.701 118.5Z" fill="#303030"/>
<path d="M131.347 124.868C131.511 124.542 131.908 124.41 132.234 124.574C132.56 124.738 132.692 125.134 132.529 125.461C132.365 125.787 131.968 125.919 131.642 125.755C131.315 125.592 131.184 125.195 131.347 124.868Z" fill="#303030"/>
<path d="M140.287 127.06C140.266 126.696 140.544 126.383 140.908 126.362C141.272 126.341 141.585 126.618 141.606 126.983C141.628 127.347 141.35 127.66 140.985 127.681C140.621 127.703 140.309 127.424 140.287 127.06Z" fill="#303030"/>
<path d="M149.126 124.488C148.925 124.183 149.009 123.773 149.314 123.573C149.62 123.372 150.029 123.456 150.23 123.762C150.431 124.066 150.346 124.476 150.041 124.677C149.736 124.878 149.327 124.793 149.126 124.488Z" fill="#303030"/>
<path d="M155.494 117.842C155.168 117.678 155.036 117.281 155.2 116.955C155.364 116.628 155.76 116.497 156.087 116.66C156.413 116.824 156.545 117.221 156.381 117.547C156.217 117.874 155.82 118.005 155.494 117.842Z" fill="#303030"/>
<path d="M157.686 108.902C157.321 108.923 157.009 108.645 156.987 108.28C156.966 107.916 157.244 107.603 157.609 107.582C157.973 107.561 158.286 107.839 158.307 108.203C158.328 108.567 158.051 108.88 157.686 108.902Z" fill="#303030"/>
<path d="M155.114 100.063C154.81 100.264 154.399 100.179 154.199 99.8743C153.998 99.5692 154.083 99.1593 154.388 98.9589C154.693 98.758 155.102 98.8425 155.303 99.1477C155.503 99.4528 155.419 99.8626 155.114 100.063Z" fill="#303030"/>
<path d="M148.468 93.695C148.304 94.0214 147.907 94.1529 147.581 93.9895C147.254 93.8261 147.123 93.4288 147.286 93.1025C147.45 92.7761 147.847 92.6445 148.173 92.8085C148.499 92.9714 148.631 93.3686 148.468 93.695Z" fill="#303030"/>
<path d="M125.919 123.239C128.093 122.321 131.889 120.395 133.771 119.427C135.95 118.309 138.743 116.059 138.425 114.355C138.106 112.647 137.23 112.875 136.59 113.058C137.105 112.363 138.054 111.188 136.601 110.1C135.143 109.015 131.884 111.133 130.01 112.35C128.745 113.166 125.549 114.652 123.855 115.2C126.508 113.566 128.882 111.77 130.824 109.648C132.053 108.305 133.36 106.91 132.159 105.869C130.958 104.834 129.016 106.284 127.745 107.314C126.475 108.349 123.359 110.66 122.048 111.309C120.861 111.893 119.657 112.208 118.783 111.95C118.031 111.729 117.708 111.313 117.548 110.591C117.246 108.241 117.513 106.833 117.893 104.021C117.016 104.575 116.294 105.645 115.308 106.833C113.893 108.539 112.492 111.161 111.296 113.051C109.413 116.022 108.1 116.467 104 118.263C100.899 119.622 88.1171 122.473 82.591 124.093C79.1082 119.392 73.272 110.61 68.3385 104.334C61.4433 95.5616 55.1582 92.4988 55.1582 92.4988C46.6584 95.34 41.5241 105.483 49.4961 116.925C57.7879 128.828 60.492 132.346 66.3682 138.665C72.8976 145.686 77.3549 146.168 81.4465 145.728C86.0465 145.233 90.7356 143.113 93.259 141.852C100.78 138.095 109.683 132.214 112.297 130.848C114.912 129.482 117.445 129.487 120.498 129.097C123.661 128.687 126.057 128.301 128.57 127.512C128.673 127.48 128.781 127.448 128.884 127.412C131.172 126.667 135.654 125.219 135.502 122.798C135.391 120.967 133.576 121.708 131.129 122.396C128.951 123.003 124.201 123.967 125.919 123.239Z" fill="#D48983"/>
<path d="M112.298 130.849C114.912 129.483 117.445 129.488 120.498 129.098C123.661 128.688 126.058 128.302 128.571 127.513C128.674 127.481 128.782 127.449 128.885 127.413C131.173 126.668 135.655 125.22 135.502 122.799C135.391 120.968 133.576 121.709 131.129 122.397C128.952 123.003 124.202 123.967 125.919 123.239C128.094 122.321 131.889 120.395 133.772 119.427C135.951 118.309 138.583 116.081 138.425 114.356C138.309 113.094 137.441 112.978 136.591 113.059C137.179 112.387 138.055 111.189 136.601 110.1C135.143 109.016 131.885 111.134 130.011 112.351C128.745 113.166 125.549 114.653 123.856 115.201C126.509 113.567 128.883 111.77 130.825 109.648C132.053 108.305 133.361 106.91 132.16 105.87C130.959 104.835 129.017 106.284 127.746 107.315C126.475 108.35 123.359 110.661 122.049 111.31C120.861 111.893 119.658 112.208 118.784 111.951C118.032 111.729 117.708 111.314 117.548 110.592C117.247 108.242 117.513 106.833 117.893 104.022C117.016 104.576 116.294 105.645 115.308 106.833C113.894 108.54 112.493 111.161 111.296 113.051" stroke="#303030" stroke-width="0.759" stroke-miterlimit="10" stroke-linecap="round" stroke-linejoin="round"/>
<path d="M82.5907 124.094C77.8904 125.097 75.7192 129.214 75.1211 130.621" stroke="#303030" stroke-width="0.759" stroke-miterlimit="10" stroke-linecap="round" stroke-linejoin="round"/>
<path d="M125.697 118.734C129.613 117.393 133.175 115.482 136.55 113.094" stroke="#303030" stroke-width="0.759" stroke-miterlimit="10" stroke-linecap="round" stroke-linejoin="round"/>
<path d="M132.976 225.5C129.222 226.153 125.526 226.153 121.772 225.5C120.28 225.241 119.013 224.258 118.396 222.876C116.44 218.497 114.587 214.162 113.191 209.919C122.646 209.654 132.101 209.654 141.557 209.919C140.16 214.162 138.308 218.497 136.352 222.876C135.734 224.258 134.467 225.241 132.976 225.5Z" fill="#303030"/>
<path d="M189.335 225.5C185.581 226.153 181.886 226.153 178.132 225.5C176.64 225.241 175.373 224.258 174.756 222.876C172.799 218.497 170.947 214.162 169.55 209.919C179.005 209.654 188.461 209.654 197.916 209.919C196.52 214.162 194.667 218.497 192.711 222.876C192.094 224.258 190.827 225.241 189.335 225.5Z" fill="#303030"/>
<path d="M205.979 184.574C205.979 163.82 189.798 140.105 155.552 140.105C121.306 140.105 105.125 163.82 105.125 184.574C105.125 201.39 114.42 219.517 137.241 225.792C138.802 226.221 140.089 227.324 140.707 228.82C141.516 230.774 142.377 232.742 143.26 234.719C143.877 236.1 145.143 237.084 146.633 237.343C150.39 237.997 154.089 237.997 157.846 237.342C159.336 237.083 160.599 236.099 161.216 234.719C161.873 233.249 162.517 231.784 163.136 230.326C163.831 228.689 165.311 227.506 167.068 227.234C194.856 222.934 205.979 202.97 205.979 184.574Z" fill="#00826F"/>
<path d="M166.416 147.504C159.173 147.016 151.93 147.016 144.688 147.504C143.551 147.58 143.058 146.953 143.586 146.086L144.381 144.78C144.909 143.913 146.256 143.136 147.394 143.063C152.832 142.715 158.271 142.715 163.71 143.063C164.847 143.136 166.195 143.913 166.723 144.78L167.518 146.086C168.046 146.953 167.553 147.58 166.416 147.504Z" fill="#303030"/>
<path d="M111.889 177.136C112.019 176.508 112.164 175.881 112.327 175.255" stroke="white" stroke-width="1.518" stroke-miterlimit="10" stroke-linecap="round" stroke-linejoin="round"/>
<path d="M130.112 217.126C116.748 209.861 111.128 196.791 111.128 184.517" stroke="white" stroke-width="1.518" stroke-miterlimit="10" stroke-linecap="round" stroke-linejoin="round"/>
<path d="M160.178 227.956C158.678 228.04 157.136 228.084 155.553 228.084C151.304 228.084 147.358 227.771 143.703 227.186" stroke="#303030" stroke-width="0.759" stroke-miterlimit="10" stroke-linecap="round" stroke-linejoin="round"/>
<path d="M204.871 141.335L185.182 151.968C184.254 151.271 183.39 150.5 182.589 149.655C182.575 149.64 182.564 149.63 182.55 149.615L179.122 145.976C179.122 145.976 192.5 133.635 204.871 141.335Z" fill="#00826F" stroke="#303030" stroke-width="0.759" stroke-miterlimit="10" stroke-linecap="round" stroke-linejoin="round"/>
<path d="M204.111 166.943L202.907 168.848L201.203 165.106C200.103 161.476 198.423 158.75 196.203 156.87C193.983 154.989 191.218 153.957 187.947 153.717C186.926 153.181 185.958 152.558 185.045 151.86C188.566 145.372 195.526 140.328 200.992 140.328C202.436 140.328 203.742 140.667 204.872 141.335C206.084 142.052 207.685 143.565 208.447 146.713C209.798 152.317 207.976 160.828 204.111 166.943Z" fill="#00826F" stroke="#303030" stroke-width="0.759" stroke-miterlimit="10" stroke-linecap="round" stroke-linejoin="round"/>
<path d="M187.949 153.717C191.4 147.156 199.363 142.072 203.122 144.295C206.882 146.517 205.979 157.547 201.202 165.106C197.921 160.34 193.145 155.771 187.949 153.717Z" fill="#303030"/>
<path d="M162.09 176.877C162.563 174.874 161.323 172.867 159.32 172.394C157.318 171.921 155.311 173.161 154.838 175.164C154.365 177.167 155.605 179.174 157.608 179.647C159.611 180.12 161.617 178.88 162.09 176.877Z" fill="#303030"/>
<path d="M188.97 179.448C190.872 178.661 191.775 176.481 190.987 174.58C190.199 172.678 188.02 171.776 186.118 172.563C184.217 173.351 183.314 175.53 184.102 177.432C184.889 179.333 187.069 180.236 188.97 179.448Z" fill="#303030"/>
<path d="M180.727 195.965C176.412 199.424 166.697 199.425 162.382 195.965C158.457 192.454 158.975 185.292 163.068 182.172C167.217 179.313 175.893 179.313 180.042 182.172C184.134 185.292 184.653 192.454 180.727 195.965Z" fill="#303030"/>
<path d="M182.174 195.965C177.859 199.424 168.144 199.425 163.829 195.965C159.903 192.454 160.422 185.292 164.515 182.172C168.663 179.313 177.34 179.313 181.489 182.172C185.581 185.292 186.1 192.454 182.174 195.965Z" fill="#00826F" stroke="#303030" stroke-width="0.759" stroke-miterlimit="10" stroke-linecap="round" stroke-linejoin="round"/>
<path d="M177.733 194.268C177.405 194.268 177.035 194.268 176.711 194.268C176.232 194.268 175.84 193.886 175.822 193.408C175.701 190.215 175.702 188.373 175.822 185.179C175.84 184.701 176.232 184.319 176.711 184.319C177.035 184.319 177.405 184.319 177.733 184.319C178.234 184.319 178.646 184.719 178.665 185.221C178.784 188.375 178.784 190.212 178.665 193.367C178.646 193.868 178.235 194.268 177.733 194.268Z" fill="#303030"/>
<path d="M168.27 194.268C168.598 194.268 168.968 194.268 169.292 194.268C169.771 194.268 170.163 193.886 170.181 193.408C170.302 190.215 170.301 188.373 170.181 185.179C170.163 184.701 169.771 184.319 169.292 184.319C168.968 184.319 168.598 184.319 168.27 184.319C167.769 184.319 167.357 184.719 167.338 185.221C167.219 188.375 167.219 190.212 167.338 193.367C167.357 193.868 167.769 194.268 168.27 194.268Z" fill="#303030"/>
<path d="M149.777 185.301C151.848 185.301 153.527 183.93 153.527 182.237C153.527 180.545 151.848 179.174 149.777 179.174C147.706 179.174 146.027 180.545 146.027 182.237C146.027 183.93 147.706 185.301 149.777 185.301Z" fill="#FF95FB"/>
<path d="M196.226 185.301C198.297 185.301 199.976 183.93 199.976 182.237C199.976 180.545 198.297 179.174 196.226 179.174C194.155 179.174 192.476 180.545 192.476 182.237C192.476 183.93 194.155 185.301 196.226 185.301Z" fill="#FF95FB"/>
<path d="M134.57 140.327C133.349 140.327 132.228 140.573 131.227 141.053V141.05C117.898 146.935 119.613 165.405 119.613 165.405C122.199 167.642 125.464 168.71 128.997 168.918C131.128 169.043 133.117 167.837 134.003 165.894L134.361 165.107C136.561 157.847 141.072 154.195 147.614 153.717L148.37 153.32C149.663 152.639 150.068 150.981 149.24 149.778C145.484 144.324 139.439 140.327 134.57 140.327Z" fill="#00826F" stroke="#303030" stroke-width="0.759" stroke-miterlimit="10" stroke-linecap="round" stroke-linejoin="round"/>
<path d="M149.239 149.778C145.484 144.324 139.439 140.327 134.57 140.327C133.35 140.327 132.229 140.573 131.227 141.053V141.05C131.085 141.112 130.955 141.184 130.816 141.25C130.769 141.285 130.727 141.314 130.691 141.335C129.479 142.052 127.876 143.566 127.117 146.713C125.765 152.318 127.589 160.827 131.455 166.944L132.158 168.056C132.945 167.532 133.593 166.793 134.002 165.894L134.361 165.107C136.561 157.847 141.072 154.195 147.614 153.717L148.37 153.32C149.662 152.639 150.068 150.981 149.239 149.778Z" fill="#00826F" stroke="#303030" stroke-width="0.759" stroke-miterlimit="10" stroke-linecap="round" stroke-linejoin="round"/>
<path d="M147.613 153.717C144.162 147.156 136.199 142.072 132.44 144.294C128.68 146.517 129.584 157.547 134.36 165.106C137.642 160.34 142.417 155.771 147.613 153.717Z" fill="#303030"/>
<path d="M195.757 76.2891C195.757 74.8197 196.948 73.6281 198.418 73.6281H234.91C236.379 73.6281 237.571 74.8192 237.571 76.2891V131.755C237.571 133.224 236.38 134.416 234.91 134.416H198.418C196.949 134.416 195.757 133.225 195.757 131.755V76.2891Z" fill="#303030" stroke="#303030" stroke-width="0.759" stroke-miterlimit="10" stroke-linecap="round" stroke-linejoin="round"/>
<path d="M193.803 118.231V76.2891C193.803 74.8197 194.994 73.6281 196.464 73.6281H232.955C234.425 73.6281 235.616 74.8192 235.616 76.2891V131.755C235.616 133.224 234.425 134.416 232.955 134.416H196.464C194.995 134.416 193.803 133.225 193.803 131.755V124.805C192.011 125.378 187.683 125.569 184.717 123.303C188.836 122.899 192.15 121.456 193.803 118.231Z" fill="#00826F" stroke="#303030" stroke-width="0.759" stroke-miterlimit="10" stroke-linecap="round" stroke-linejoin="round"/>
<path d="M198.93 85.81H230.49C231.117 85.81 231.625 85.3015 231.625 84.6746V78.9643C231.625 78.3369 231.117 77.8289 230.49 77.8289H198.93C198.302 77.8289 197.794 78.3374 197.794 78.9643V84.6746C197.794 85.3015 198.302 85.81 198.93 85.81Z" fill="white" stroke="#303030" stroke-width="0.759" stroke-miterlimit="10" stroke-linecap="round" stroke-linejoin="round"/>
<path d="M226.264 96.0798H230.876C231.29 96.0798 231.626 95.7443 231.626 95.3304V90.7182C231.626 90.3043 231.29 89.9688 230.876 89.9688H226.264C225.85 89.9688 225.515 90.3043 225.515 90.7182V95.3304C225.515 95.7438 225.85 96.0798 226.264 96.0798Z" fill="#303030" stroke="#303030" stroke-width="0.759" stroke-miterlimit="10" stroke-linecap="round" stroke-linejoin="round"/>
<path d="M225.771 96.0798H230.384C230.797 96.0798 231.133 95.7443 231.133 95.3304V90.7182C231.133 90.3043 230.797 89.9688 230.384 89.9688H225.771C225.357 89.9688 225.022 90.3043 225.022 90.7182V95.3304C225.022 95.7438 225.357 96.0798 225.771 96.0798Z" fill="white" stroke="#303030" stroke-width="0.759" stroke-miterlimit="10" stroke-linecap="round" stroke-linejoin="round"/>
<path d="M217.188 96.0798H221.801C222.214 96.0798 222.55 95.7443 222.55 95.3304V90.7182C222.55 90.3043 222.214 89.9688 221.801 89.9688H217.188C216.774 89.9688 216.439 90.3043 216.439 90.7182V95.3304C216.439 95.7438 216.774 96.0798 217.188 96.0798Z" fill="#303030" stroke="#303030" stroke-width="0.759" stroke-miterlimit="10" stroke-linecap="round" stroke-linejoin="round"/>
<path d="M216.696 96.0798H221.308C221.722 96.0798 222.057 95.7443 222.057 95.3304V90.7182C222.057 90.3043 221.722 89.9688 221.308 89.9688H216.696C216.282 89.9688 215.946 90.3043 215.946 90.7182V95.3304C215.946 95.7438 216.282 96.0798 216.696 96.0798Z" fill="white" stroke="#303030" stroke-width="0.759" stroke-miterlimit="10" stroke-linecap="round" stroke-linejoin="round"/>
<path d="M208.112 96.0798H212.724C213.138 96.0798 213.474 95.7443 213.474 95.3304V90.7182C213.474 90.3043 213.138 89.9688 212.724 89.9688H208.112C207.698 89.9688 207.363 90.3043 207.363 90.7182V95.3304C207.363 95.7438 207.698 96.0798 208.112 96.0798Z" fill="#303030" stroke="#303030" stroke-width="0.759" stroke-miterlimit="10" stroke-linecap="round" stroke-linejoin="round"/>
<path d="M207.619 96.0798H212.232C212.646 96.0798 212.981 95.7443 212.981 95.3304V90.7182C212.981 90.3043 212.646 89.9688 212.232 89.9688H207.619C207.206 89.9688 206.87 90.3043 206.87 90.7182V95.3304C206.87 95.7438 207.206 96.0798 207.619 96.0798Z" fill="#344CB7" stroke="#303030" stroke-width="0.759" stroke-miterlimit="10" stroke-linecap="round" stroke-linejoin="round"/>
<path d="M199.036 96.0798H203.649C204.063 96.0798 204.398 95.7443 204.398 95.3304V90.7182C204.398 90.3043 204.063 89.9688 203.649 89.9688H199.036C198.623 89.9688 198.287 90.3043 198.287 90.7182V95.3304C198.287 95.7438 198.623 96.0798 199.036 96.0798Z" fill="#303030" stroke="#303030" stroke-width="0.759" stroke-miterlimit="10" stroke-linecap="round" stroke-linejoin="round"/>
<path d="M198.544 96.0798H203.156C203.57 96.0798 203.905 95.7443 203.905 95.3304V90.7182C203.905 90.3043 203.57 89.9688 203.156 89.9688H198.544C198.13 89.9688 197.794 90.3043 197.794 90.7182V95.3304C197.794 95.7438 198.13 96.0798 198.544 96.0798Z" fill="#344CB7" stroke="#303030" stroke-width="0.759" stroke-miterlimit="10" stroke-linecap="round" stroke-linejoin="round"/>
<path d="M226.264 104.693H230.876C231.29 104.693 231.626 104.358 231.626 103.944V99.3318C231.626 98.9179 231.29 98.5825 230.876 98.5825H226.264C225.85 98.5825 225.515 98.9179 225.515 99.3318V103.944C225.515 104.358 225.85 104.693 226.264 104.693Z" fill="#303030" stroke="#303030" stroke-width="0.759" stroke-miterlimit="10" stroke-linecap="round" stroke-linejoin="round"/>
<path d="M225.771 104.693H230.384C230.797 104.693 231.133 104.358 231.133 103.944V99.3318C231.133 98.9179 230.797 98.5825 230.384 98.5825H225.771C225.357 98.5825 225.022 98.9179 225.022 99.3318V103.944C225.022 104.358 225.357 104.693 225.771 104.693Z" fill="white" stroke="#303030" stroke-width="0.759" stroke-miterlimit="10" stroke-linecap="round" stroke-linejoin="round"/>
<path d="M217.188 104.693H221.801C222.214 104.693 222.55 104.358 222.55 103.944V99.3318C222.55 98.9179 222.214 98.5825 221.801 98.5825H217.188C216.774 98.5825 216.439 98.9179 216.439 99.3318V103.944C216.439 104.358 216.774 104.693 217.188 104.693Z" fill="#303030" stroke="#303030" stroke-width="0.759" stroke-miterlimit="10" stroke-linecap="round" stroke-linejoin="round"/>
<path d="M216.696 104.693H221.308C221.722 104.693 222.057 104.358 222.057 103.944V99.3318C222.057 98.9179 221.722 98.5825 221.308 98.5825H216.696C216.282 98.5825 215.946 98.9179 215.946 99.3318V103.944C215.946 104.358 216.282 104.693 216.696 104.693Z" fill="white" stroke="#303030" stroke-width="0.759" stroke-miterlimit="10" stroke-linecap="round" stroke-linejoin="round"/>
<path d="M208.112 104.693H212.724C213.138 104.693 213.474 104.358 213.474 103.944V99.3318C213.474 98.9179 213.138 98.5825 212.724 98.5825H208.112C207.698 98.5825 207.363 98.9179 207.363 99.3318V103.944C207.363 104.358 207.698 104.693 208.112 104.693Z" fill="#303030" stroke="#303030" stroke-width="0.759" stroke-miterlimit="10" stroke-linecap="round" stroke-linejoin="round"/>
<path d="M207.619 104.693H212.232C212.646 104.693 212.981 104.358 212.981 103.944V99.3318C212.981 98.9179 212.646 98.5825 212.232 98.5825H207.619C207.206 98.5825 206.87 98.9179 206.87 99.3318V103.944C206.87 104.358 207.206 104.693 207.619 104.693Z" fill="white" stroke="#303030" stroke-width="0.759" stroke-miterlimit="10" stroke-linecap="round" stroke-linejoin="round"/>
<path d="M199.036 104.693H203.649C204.063 104.693 204.398 104.358 204.398 103.944V99.3318C204.398 98.9179 204.063 98.5825 203.649 98.5825H199.036C198.623 98.5825 198.287 98.9179 198.287 99.3318V103.944C198.287 104.358 198.623 104.693 199.036 104.693Z" fill="#303030" stroke="#303030" stroke-width="0.759" stroke-miterlimit="10" stroke-linecap="round" stroke-linejoin="round"/>
<path d="M198.544 104.693H203.156C203.57 104.693 203.905 104.358 203.905 103.944V99.3318C203.905 98.9179 203.57 98.5825 203.156 98.5825H198.544C198.13 98.5825 197.794 98.9179 197.794 99.3318V103.944C197.794 104.358 198.13 104.693 198.544 104.693Z" fill="#FF95FB" stroke="#303030" stroke-width="0.759" stroke-miterlimit="10" stroke-linecap="round" stroke-linejoin="round"/>
<path d="M226.264 113.308H230.876C231.29 113.308 231.626 112.972 231.626 112.558V107.946C231.626 107.532 231.29 107.197 230.876 107.197H226.264C225.85 107.197 225.515 107.532 225.515 107.946V112.558C225.515 112.972 225.85 113.308 226.264 113.308Z" fill="#303030" stroke="#303030" stroke-width="0.759" stroke-miterlimit="10" stroke-linecap="round" stroke-linejoin="round"/>
<path d="M225.771 113.308H230.384C230.797 113.308 231.133 112.972 231.133 112.558V107.946C231.133 107.532 230.797 107.197 230.384 107.197H225.771C225.357 107.197 225.022 107.532 225.022 107.946V112.558C225.022 112.972 225.357 113.308 225.771 113.308Z" fill="white" stroke="#303030" stroke-width="0.759" stroke-miterlimit="10" stroke-linecap="round" stroke-linejoin="round"/>
<path d="M217.188 113.308H221.801C222.214 113.308 222.55 112.972 222.55 112.558V107.946C222.55 107.532 222.214 107.197 221.801 107.197H217.188C216.774 107.197 216.439 107.532 216.439 107.946V112.558C216.439 112.972 216.774 113.308 217.188 113.308Z" fill="#303030" stroke="#303030" stroke-width="0.759" stroke-miterlimit="10" stroke-linecap="round" stroke-linejoin="round"/>
<path d="M216.696 113.308H221.308C221.722 113.308 222.057 112.972 222.057 112.558V107.946C222.057 107.532 221.722 107.197 221.308 107.197H216.696C216.282 107.197 215.946 107.532 215.946 107.946V112.558C215.946 112.972 216.282 113.308 216.696 113.308Z" fill="white" stroke="#303030" stroke-width="0.759" stroke-miterlimit="10" stroke-linecap="round" stroke-linejoin="round"/>
<path d="M208.112 113.308H212.724C213.138 113.308 213.474 112.972 213.474 112.558V107.946C213.474 107.532 213.138 107.197 212.724 107.197H208.112C207.698 107.197 207.363 107.532 207.363 107.946V112.558C207.363 112.972 207.698 113.308 208.112 113.308Z" fill="#303030" stroke="#303030" stroke-width="0.759" stroke-miterlimit="10" stroke-linecap="round" stroke-linejoin="round"/>
<path d="M207.619 113.308H212.232C212.646 113.308 212.981 112.972 212.981 112.558V107.946C212.981 107.532 212.646 107.197 212.232 107.197H207.619C207.206 107.197 206.87 107.532 206.87 107.946V112.558C206.87 112.972 207.206 113.308 207.619 113.308Z" fill="white" stroke="#303030" stroke-width="0.759" stroke-miterlimit="10" stroke-linecap="round" stroke-linejoin="round"/>
<path d="M199.036 113.308H203.649C204.063 113.308 204.398 112.972 204.398 112.558V107.946C204.398 107.532 204.063 107.197 203.649 107.197H199.036C198.623 107.197 198.287 107.532 198.287 107.946V112.558C198.287 112.972 198.623 113.308 199.036 113.308Z" fill="#303030" stroke="#303030" stroke-width="0.759" stroke-miterlimit="10" stroke-linecap="round" stroke-linejoin="round"/>
<path d="M198.544 113.308H203.156C203.57 113.308 203.905 112.972 203.905 112.558V107.946C203.905 107.532 203.57 107.197 203.156 107.197H198.544C198.13 107.197 197.794 107.532 197.794 107.946V112.558C197.794 112.972 198.13 113.308 198.544 113.308Z" fill="#FF95FB" stroke="#303030" stroke-width="0.759" stroke-miterlimit="10" stroke-linecap="round" stroke-linejoin="round"/>
<path d="M226.264 121.922H230.876C231.29 121.922 231.626 121.586 231.626 121.172V116.56C231.626 116.146 231.29 115.811 230.876 115.811H226.264C225.85 115.811 225.515 116.146 225.515 116.56V121.172C225.515 121.586 225.85 121.922 226.264 121.922Z" fill="#303030" stroke="#303030" stroke-width="0.759" stroke-miterlimit="10" stroke-linecap="round" stroke-linejoin="round"/>
<path d="M225.771 121.922H230.384C230.797 121.922 231.133 121.586 231.133 121.172V116.56C231.133 116.146 230.797 115.811 230.384 115.811H225.771C225.357 115.811 225.022 116.146 225.022 116.56V121.172C225.022 121.586 225.357 121.922 225.771 121.922Z" fill="white" stroke="#303030" stroke-width="0.759" stroke-miterlimit="10" stroke-linecap="round" stroke-linejoin="round"/>
<path d="M217.188 121.922H221.801C222.214 121.922 222.55 121.586 222.55 121.172V116.56C222.55 116.146 222.214 115.811 221.801 115.811H217.188C216.774 115.811 216.439 116.146 216.439 116.56V121.172C216.439 121.586 216.774 121.922 217.188 121.922Z" fill="#303030" stroke="#303030" stroke-width="0.759" stroke-miterlimit="10" stroke-linecap="round" stroke-linejoin="round"/>
<path d="M216.696 121.922H221.308C221.722 121.922 222.057 121.586 222.057 121.172V116.56C222.057 116.146 221.722 115.811 221.308 115.811H216.696C216.282 115.811 215.946 116.146 215.946 116.56V121.172C215.946 121.586 216.282 121.922 216.696 121.922Z" fill="white" stroke="#303030" stroke-width="0.759" stroke-miterlimit="10" stroke-linecap="round" stroke-linejoin="round"/>
<path d="M208.112 121.922H212.724C213.138 121.922 213.474 121.586 213.474 121.172V116.56C213.474 116.146 213.138 115.811 212.724 115.811H208.112C207.698 115.811 207.363 116.146 207.363 116.56V121.172C207.363 121.586 207.698 121.922 208.112 121.922Z" fill="#303030" stroke="#303030" stroke-width="0.759" stroke-miterlimit="10" stroke-linecap="round" stroke-linejoin="round"/>
<path d="M207.619 121.922H212.232C212.646 121.922 212.981 121.586 212.981 121.172V116.56C212.981 116.146 212.646 115.811 212.232 115.811H207.619C207.206 115.811 206.87 116.146 206.87 116.56V121.172C206.87 121.586 207.206 121.922 207.619 121.922Z" fill="white" stroke="#303030" stroke-width="0.759" stroke-miterlimit="10" stroke-linecap="round" stroke-linejoin="round"/>
<path d="M199.036 121.922H203.649C204.063 121.922 204.398 121.586 204.398 121.172V116.56C204.398 116.146 204.063 115.811 203.649 115.811H199.036C198.623 115.811 198.287 116.146 198.287 116.56V121.172C198.287 121.586 198.623 121.922 199.036 121.922Z" fill="#303030" stroke="#303030" stroke-width="0.759" stroke-miterlimit="10" stroke-linecap="round" stroke-linejoin="round"/>
<path d="M198.544 121.922H203.156C203.57 121.922 203.905 121.586 203.905 121.172V116.56C203.905 116.146 203.57 115.811 203.156 115.811H198.544C198.13 115.811 197.794 116.146 197.794 116.56V121.172C197.794 121.586 198.13 121.922 198.544 121.922Z" fill="#FF95FB" stroke="#303030" stroke-width="0.759" stroke-miterlimit="10" stroke-linecap="round" stroke-linejoin="round"/>
<path d="M226.264 130.535H230.876C231.29 130.535 231.626 130.2 231.626 129.786V125.174C231.626 124.76 231.29 124.424 230.876 124.424H226.264C225.85 124.424 225.515 124.76 225.515 125.174V129.786C225.515 130.2 225.85 130.535 226.264 130.535Z" fill="#303030" stroke="#303030" stroke-width="0.759" stroke-miterlimit="10" stroke-linecap="round" stroke-linejoin="round"/>
<path d="M225.771 130.535H230.384C230.797 130.535 231.133 130.2 231.133 129.786V125.174C231.133 124.76 230.797 124.424 230.384 124.424H225.771C225.357 124.424 225.022 124.76 225.022 125.174V129.786C225.022 130.2 225.357 130.535 225.771 130.535Z" fill="#FF95FB" stroke="#303030" stroke-width="0.759" stroke-miterlimit="10" stroke-linecap="round" stroke-linejoin="round"/>
<path d="M217.188 130.535H221.801C222.214 130.535 222.55 130.2 222.55 129.786V125.174C222.55 124.76 222.214 124.424 221.801 124.424H217.188C216.774 124.424 216.439 124.76 216.439 125.174V129.786C216.439 130.2 216.774 130.535 217.188 130.535Z" fill="#303030" stroke="#303030" stroke-width="0.759" stroke-miterlimit="10" stroke-linecap="round" stroke-linejoin="round"/>
<path d="M216.696 130.535H221.308C221.722 130.535 222.057 130.2 222.057 129.786V125.174C222.057 124.76 221.722 124.424 221.308 124.424H216.696C216.282 124.424 215.946 124.76 215.946 125.174V129.786C215.946 130.2 216.282 130.535 216.696 130.535Z" fill="white" stroke="#303030" stroke-width="0.759" stroke-miterlimit="10" stroke-linecap="round" stroke-linejoin="round"/>
<path d="M208.112 130.535H212.724C213.138 130.535 213.474 130.2 213.474 129.786V125.174C213.474 124.76 213.138 124.424 212.724 124.424H208.112C207.698 124.424 207.363 124.76 207.363 125.174V129.786C207.363 130.2 207.698 130.535 208.112 130.535Z" fill="#303030" stroke="#303030" stroke-width="0.759" stroke-miterlimit="10" stroke-linecap="round" stroke-linejoin="round"/>
<path d="M207.619 130.535H212.232C212.646 130.535 212.981 130.2 212.981 129.786V125.174C212.981 124.76 212.646 124.424 212.232 124.424H207.619C207.206 124.424 206.87 124.76 206.87 125.174V129.786C206.87 130.2 207.206 130.535 207.619 130.535Z" fill="#FF95FB" stroke="#303030" stroke-width="0.759" stroke-miterlimit="10" stroke-linecap="round" stroke-linejoin="round"/>
<path d="M199.036 130.535H203.649C204.063 130.535 204.398 130.2 204.398 129.786V125.174C204.398 124.76 204.063 124.424 203.649 124.424H199.036C198.623 124.424 198.287 124.76 198.287 125.174V129.786C198.287 130.2 198.623 130.535 199.036 130.535Z" fill="#303030" stroke="#303030" stroke-width="0.759" stroke-miterlimit="10" stroke-linecap="round" stroke-linejoin="round"/>
<path d="M198.544 130.535H203.156C203.57 130.535 203.905 130.2 203.905 129.786V125.174C203.905 124.76 203.57 124.424 203.156 124.424H198.544C198.13 124.424 197.794 124.76 197.794 125.174V129.786C197.794 130.2 198.13 130.535 198.544 130.535Z" fill="#FF95FB" stroke="#303030" stroke-width="0.759" stroke-miterlimit="10" stroke-linecap="round" stroke-linejoin="round"/>
<path d="M54.7568 82.9071C52.7971 82.5281 49.4706 80.7976 48.912 78.4007L48.9105 78.4017C48.9125 78.387 48.9135 78.3743 48.9155 78.3602C51.8716 74.6881 53.5384 69.9591 53.2287 64.8829C52.5684 54.0691 43.2671 45.8385 32.4533 46.4984C21.6396 47.1587 13.4085 56.46 14.0688 67.2737C14.7292 78.0874 24.0305 86.3185 34.8442 85.6582C38.0694 85.4614 41.0559 84.4823 43.6547 82.9369C46.1538 84.2789 48.7091 84.7641 51.5488 84.5319C54.8413 84.2617 55.7526 83.0999 54.7568 82.9071Z" fill="white" stroke="#303030" stroke-width="0.759" stroke-miterlimit="10" stroke-linecap="round" stroke-linejoin="round"/>
<path d="M38.4104 54.1071C38.1144 53.9877 37.8149 53.8794 37.5118 53.7822C36.2412 53.3754 34.9135 53.1674 33.5761 53.1674C26.4936 53.1674 20.6655 58.9956 20.6655 66.078C20.6655 73.1605 26.4936 78.9886 33.5761 78.9886C40.6586 78.9886 46.4867 73.1605 46.4867 66.078H33.5761L38.4104 54.1071Z" fill="#00826F" stroke="#303030" stroke-width="0.759" stroke-miterlimit="10" stroke-linecap="round" stroke-linejoin="round"/>
<path d="M47.2758 63.4357C47.2758 61.5088 46.6985 59.6255 45.6192 58.0296C44.5394 56.4337 43.0062 55.1975 41.218 54.4805L37.6284 63.4357H47.2758Z" fill="#344CB7" stroke="#303030" stroke-width="0.759" stroke-miterlimit="10" stroke-linecap="round" stroke-linejoin="round"/>
</svg>
