<svg width="40" height="40" viewBox="0 0 40 40" fill="none" xmlns="http://www.w3.org/2000/svg">
<circle cx="20" cy="20" r="20" fill="#314394"/>
<path d="M20.2168 19.6341C21.5403 19.6341 22.6864 19.1594 23.6228 18.2228C24.5592 17.2864 25.0339 16.1406 25.0339 14.8169C25.0339 13.4937 24.5592 12.3478 23.6226 11.4111C22.686 10.4748 21.5401 10.0001 20.2168 10.0001C18.8931 10.0001 17.7473 10.4748 16.8109 11.4112C15.8745 12.3476 15.3996 13.4936 15.3996 14.8169C15.3996 16.1406 15.8744 17.2865 16.811 18.223C17.7476 19.1592 18.8935 19.6341 20.2168 19.6341ZM28.6455 25.3789C28.6184 24.9892 28.5638 24.5641 28.4834 24.1152C28.4022 23.6629 28.2977 23.2354 28.1726 22.8446C28.0434 22.4407 27.8676 22.0419 27.6503 21.6596C27.4248 21.2629 27.1599 20.9175 26.8626 20.6332C26.5518 20.3358 26.1713 20.0967 25.7312 19.9223C25.2927 19.7488 24.8067 19.6609 24.2868 19.6609C24.0827 19.6609 23.8852 19.7447 23.5039 19.993C23.2329 20.1695 22.961 20.3447 22.6883 20.5187C22.4264 20.6857 22.0714 20.8421 21.633 20.9837C21.2054 21.1221 20.7711 21.1923 20.3425 21.1923C19.9139 21.1923 19.4798 21.1221 19.0516 20.9837C18.6137 20.8422 18.2588 20.6859 17.9971 20.5189C17.6936 20.325 17.419 20.148 17.1808 19.9928C16.7999 19.7445 16.6023 19.6608 16.3982 19.6608C15.8781 19.6608 15.3923 19.7488 14.9539 19.9225C14.5142 20.0966 14.1335 20.3357 13.8223 20.6334C13.5253 20.9178 13.2602 21.263 13.035 21.6596C12.8179 22.0419 12.6421 22.4406 12.5127 22.8448C12.3877 23.2355 12.2832 23.6629 12.202 24.1152C12.1216 24.5635 12.067 24.9888 12.04 25.3794C12.0131 25.7725 11.9997 26.1664 12 26.5604C12 27.6044 12.3319 28.4495 12.9863 29.0729C13.6327 29.688 14.4879 30 15.5279 30H25.158C26.198 30 27.0529 29.6881 27.6994 29.0729C28.354 28.45 28.6859 27.6047 28.6859 26.5602C28.6857 26.1573 28.6722 25.7598 28.6455 25.3789Z" fill="white"/>
</svg>
