<svg width="24" height="22" viewBox="0 0 24 22" fill="none" xmlns="http://www.w3.org/2000/svg">
<path d="M22.4989 11.3462C22.4917 11.252 22.4491 11.164 22.3798 11.0998C22.3105 11.0357 22.2195 11 22.125 11H16.7442L16.4995 6.10626C16.4947 6.01017 16.4532 5.9196 16.3835 5.85329C16.3137 5.78698 16.2212 5.75001 16.125 5.75001H13.5V3.87501C13.5002 3.33502 13.3708 2.80288 13.1226 2.32329C12.8744 1.84371 12.5148 1.4307 12.0739 1.11897C11.6329 0.807241 11.1236 0.605898 10.5887 0.531862C10.0539 0.457826 9.50902 0.51326 9 0.693506C8.49098 0.51326 7.94614 0.457826 7.41125 0.531862C6.87637 0.605898 6.36706 0.807241 5.92614 1.11897C5.48522 1.4307 5.12557 1.84371 4.8774 2.32329C4.62924 2.80288 4.49981 3.33502 4.5 3.87501V5.75001H1.875C1.77879 5.75001 1.68626 5.78698 1.61655 5.85329C1.54684 5.9196 1.50528 6.01017 1.50047 6.10626L0.750469 21.1063C0.747928 21.157 0.755732 21.2078 0.773407 21.2554C0.791081 21.3031 0.818258 21.3466 0.853287 21.3835C0.888315 21.4203 0.930464 21.4496 0.977173 21.4696C1.02388 21.4897 1.07418 21.5 1.125 21.5H22.875C22.9267 21.5 22.9778 21.4893 23.0251 21.4686C23.0725 21.448 23.1151 21.4177 23.1502 21.3798C23.1853 21.3419 23.2122 21.2971 23.2292 21.2483C23.2462 21.1995 23.2529 21.1477 23.2489 21.0962L22.4989 11.3462ZM21.375 19.551L22.1743 20.75H20.5759L21.375 19.551ZM22.3911 19.723L21.7388 18.7447L21.0394 11.75H21.7778L22.3911 19.723ZM20.2856 11.75L20.9888 18.7787L20.1656 20.0131L19.53 11.75H20.2856ZM15.9933 11H15.2875L15.0227 6.50001H15.768L15.9933 11ZM14.2714 6.50001L14.5362 11H13.744L13.519 6.50001H14.2714ZM10.125 1.25001C10.8209 1.2508 11.4882 1.52762 11.9803 2.01973C12.4724 2.51184 12.7492 3.17906 12.75 3.87501V5.75001H11.25V3.87501C11.25 3.37222 11.1375 2.8758 10.9207 2.42214C10.7039 1.96849 10.3884 1.56909 9.99717 1.25324C10.0397 1.25115 10.0824 1.25007 10.125 1.25001ZM9 1.50379C9.4485 1.71696 9.82743 2.05282 10.0929 2.47248C10.3584 2.89214 10.4995 3.37843 10.5 3.87501V5.75001H7.5V3.87501C7.50048 3.37843 7.64163 2.89214 7.9071 2.47248C8.17257 2.05282 8.5515 1.71696 9 1.50379ZM5.25 3.87501C5.25079 3.17906 5.52761 2.51184 6.01972 2.01973C6.51183 1.52762 7.17905 1.2508 7.875 1.25001C7.91789 1.25001 7.96045 1.25122 8.00283 1.25324C7.61163 1.56909 7.29607 1.96848 7.07928 2.42214C6.8625 2.87579 6.74999 3.37221 6.75 3.87501V5.75001H5.25V3.87501ZM9.77775 20.75H1.51922L2.23172 6.50001H4.5V8.92433L3.54197 9.56301C3.49061 9.59725 3.4485 9.64365 3.41937 9.69807C3.39024 9.7525 3.375 9.81328 3.375 9.87501V12.875C3.375 12.9745 3.41451 13.0698 3.48484 13.1402C3.55516 13.2105 3.65054 13.25 3.75 13.25H6C6.09946 13.25 6.19484 13.2105 6.26517 13.1402C6.33549 13.0698 6.375 12.9745 6.375 12.875V9.87501C6.375 9.81328 6.35976 9.7525 6.33063 9.69807C6.30151 9.64365 6.25939 9.59725 6.20803 9.56301L5.25 8.92433V6.50001H10.5V7.62501C10.5 7.72446 10.5395 7.81984 10.6098 7.89017C10.6802 7.9605 10.7755 8.00001 10.875 8.00001C10.9745 8.00001 11.0698 7.9605 11.1402 7.89017C11.2105 7.81984 11.25 7.72446 11.25 7.62501V6.50001H12.7683L12.9933 11H10.875C10.7805 11 10.6895 11.0357 10.6202 11.0998C10.5509 11.164 10.5083 11.252 10.5011 11.3462L9.77775 20.75ZM4.875 9.57571L5.625 10.0757V12.5H4.125V10.0757L4.875 9.57571ZM11.2223 11.75H18.7778L19.47 20.75H10.53L11.2223 11.75Z" fill="black"/>
<path d="M16.875 13.25C16.7755 13.25 16.6802 13.2895 16.6098 13.3598C16.5395 13.4302 16.5 13.5255 16.5 13.625V16.625C16.4997 16.9233 16.381 17.2092 16.1701 17.4201C15.9592 17.631 15.6733 17.7497 15.375 17.75H14.625C14.3267 17.7497 14.0408 17.631 13.8299 17.4201C13.619 17.2092 13.5003 16.9233 13.5 16.625V13.625C13.5 13.5255 13.4605 13.4302 13.3902 13.3598C13.3198 13.2895 13.2245 13.25 13.125 13.25C13.0255 13.25 12.9302 13.2895 12.8598 13.3598C12.7895 13.4302 12.75 13.5255 12.75 13.625V16.625C12.7506 17.1221 12.9483 17.5987 13.2998 17.9502C13.6513 18.3017 14.1279 18.4994 14.625 18.5H15.375C15.8721 18.4994 16.3487 18.3017 16.7002 17.9502C17.0517 17.5987 17.2494 17.1221 17.25 16.625V13.625C17.25 13.5255 17.2105 13.4302 17.1402 13.3598C17.0698 13.2895 16.9745 13.25 16.875 13.25Z" fill="#344CB7"/>
</svg>
