<svg width="24" height="24" viewBox="0 0 24 24" fill="none" xmlns="http://www.w3.org/2000/svg">
<path d="M12.0015 2.62985e-05C11.9488 0.000419236 11.8968 0.0112332 11.8483 0.0318447C11.7998 0.0524562 11.7559 0.0824576 11.7191 0.120119C11.6823 0.157781 11.6532 0.202358 11.6337 0.25128C11.6142 0.300203 11.6046 0.352503 11.6054 0.405166V0.820887C11.5933 1.3651 12.4173 1.3651 12.4052 0.820887V0.405166C12.406 0.351866 12.3961 0.298943 12.3761 0.249522C12.3562 0.200101 12.3265 0.155183 12.2889 0.117419C12.2512 0.0796559 12.2064 0.0498121 12.1571 0.0296495C12.1077 0.00948702 12.0548 -0.000585627 12.0015 2.62985e-05ZM9.98312 0.795188C9.6248 0.829957 9.47965 1.24417 9.72458 1.48151L10.1222 1.88362C10.5002 2.24643 11.052 1.69466 10.6907 1.31673L10.2885 0.917637C10.2488 0.877428 10.2011 0.845916 10.1485 0.825098C10.0959 0.804279 10.0396 0.794609 9.98312 0.7967V0.795188ZM13.9987 0.795188C13.8941 0.798437 13.7948 0.842365 13.7221 0.917637L13.3229 1.31673C12.9298 1.69466 13.5134 2.27818 13.8914 1.88362L14.289 1.48151C14.3458 1.42512 14.3844 1.35301 14.3999 1.27447C14.4153 1.19594 14.4069 1.11458 14.3756 1.04089C14.3444 0.967204 14.2918 0.904559 14.2246 0.861035C14.1574 0.81751 14.0788 0.795102 13.9987 0.7967V0.795188ZM14.6594 2.8224C14.5838 2.82391 14.4977 2.83147 14.3918 2.84507C13.911 2.93275 13.3698 3.44371 12.7061 3.9849C12.9026 4.09072 13.1173 4.18899 13.3592 4.26911C14.3797 4.54121 15.0011 4.48679 15.3126 4.34772C15.4728 4.28876 15.7087 4.07712 15.6981 3.78233C15.7027 3.33789 15.5016 3.08392 15.2249 2.94333C14.9981 2.85717 14.8817 2.81635 14.6594 2.8224ZM9.40255 2.83751C9.19101 2.81218 8.97668 2.84895 8.78569 2.94333C8.56495 3.05822 8.31246 3.28498 8.31246 3.78233C8.38957 4.9524 9.05632 6.05898 9.31485 7.20334C9.31485 7.20334 14.6549 7.1973 14.6851 7.19881C14.9119 6.50342 15.1644 5.84129 15.3882 5.17009C14.8394 5.33033 14.1121 5.30312 13.1415 5.0431L13.1203 5.03706C12.644 4.87794 12.194 4.64866 11.7853 4.35679C10.851 3.69768 10.2462 2.96601 9.74424 2.87833C9.6312 2.85797 9.51713 2.84536 9.40255 2.83751ZM2.79854 6.40365C2.69306 6.40404 2.592 6.44601 2.51727 6.52044C2.44255 6.59487 2.40019 6.69577 2.3994 6.80123V7.60244H0.399143C0.293145 7.60284 0.191625 7.64522 0.116814 7.7203C0.0420034 7.79539 -7.54702e-07 7.89705 0 8.00304V9.60092C0 9.82163 0.178405 10.0015 0.399143 10.003H2.40091V10.8042C2.40091 11.1414 2.79551 11.3258 3.05707 11.1111L5.45798 9.1081C5.50303 9.07065 5.53929 9.02374 5.56417 8.97071C5.58905 8.91767 5.60194 8.85981 5.60194 8.80122C5.60194 8.74264 5.58905 8.68478 5.56417 8.63175C5.53929 8.57871 5.50303 8.5318 5.45798 8.49435L3.05556 6.49586C2.98319 6.43641 2.8922 6.40279 2.79854 6.40365ZM21.1879 6.40365C21.0988 6.40555 21.013 6.43751 20.9444 6.49435L18.5435 8.49284C18.4984 8.53043 18.4622 8.57747 18.4373 8.63064C18.4124 8.68379 18.3995 8.74177 18.3995 8.80047C18.3995 8.85917 18.4124 8.91714 18.4373 8.9703C18.4622 9.02346 18.4984 9.07051 18.5435 9.1081L20.9444 11.1096C21.2045 11.3258 21.5991 11.1398 21.5991 10.8027V10.0015H23.5978C23.6506 10.0017 23.7028 9.99151 23.7516 9.97147C23.8004 9.95142 23.8448 9.92195 23.8821 9.88473C23.9195 9.84751 23.9491 9.80328 23.9694 9.75458C23.9896 9.70587 24 9.65366 24 9.60092V8.00455C24 7.95182 23.9896 7.8996 23.9694 7.8509C23.9491 7.80219 23.9195 7.75797 23.8821 7.72075C23.8448 7.68353 23.8004 7.65405 23.7516 7.63401C23.7028 7.61396 23.6506 7.60375 23.5978 7.60395H21.5991V6.80274C21.5987 6.74948 21.5877 6.69684 21.5667 6.64788C21.5458 6.59893 21.5152 6.55465 21.4769 6.51763C21.4387 6.48061 21.3934 6.45159 21.3437 6.43228C21.2941 6.41297 21.2411 6.40224 21.1879 6.40365ZM9.40557 8.00455C9.08202 7.9985 8.80534 8.26457 8.80534 8.6047C8.80534 8.94484 9.08202 9.20334 9.40557 9.20334H14.608C14.9134 9.20334 15.2068 8.94333 15.2068 8.6047C15.2068 8.26608 14.9301 8.00455 14.608 8.00455H9.40557ZM9.03213 9.95466C8.46063 11.1081 7.47486 12.1406 6.60854 13.3197C5.63488 14.65 4.81391 16.1134 4.80937 18.0212C4.79425 21.2986 7.58221 24 12.006 24C16.439 24 19.2194 21.2986 19.2057 18.0212C19.1997 16.1134 18.3787 14.65 17.4036 13.3197C16.5387 12.1406 15.556 11.1081 14.9845 9.95769C14.8616 9.98964 14.735 10.0049 14.608 10.003H9.40557C9.2796 10.005 9.15397 9.98972 9.03213 9.95769V9.95466ZM12.006 12.4006C14.6519 12.4006 16.8079 14.5518 16.8079 17.1973C16.8079 19.8428 14.6519 21.997 12.006 21.997C9.36021 21.997 7.20575 19.8428 7.20575 17.1958C7.20575 14.5488 9.36021 12.3991 12.006 12.3991V12.4006ZM12.006 13.2018C9.79262 13.2018 8.00554 14.9841 8.00554 17.1973C8.00554 19.4104 9.79262 21.1988 12.006 21.1988C14.221 21.1988 16.0081 19.4119 16.0081 17.1973C16.0081 14.9826 14.221 13.1988 12.006 13.1988V13.2018ZM12 14.3961C12.0533 14.3957 12.1061 14.4059 12.1553 14.4261C12.2046 14.4464 12.2493 14.4762 12.2869 14.5139C12.3245 14.5517 12.3542 14.5965 12.3742 14.6458C12.3943 14.6951 12.4043 14.748 12.4037 14.8012H12.883C13.5074 14.8012 14.0048 15.3107 14.0048 15.9531C14.0169 16.4974 13.2035 16.4974 13.2035 15.9531C13.2035 15.7612 13.0614 15.6024 12.883 15.6024H12.4037V16.709H12.883C13.0324 16.7106 13.18 16.7417 13.3174 16.8005C13.4548 16.8593 13.5792 16.9447 13.6834 17.0517C13.7877 17.1588 13.8697 17.2854 13.9249 17.4243C13.98 17.5631 14.0072 17.7115 14.0048 17.8609V18.4475C14.0048 19.0718 13.5361 19.6024 12.883 19.5994H12.4037C12.3734 20.1572 11.6387 20.0983 11.6054 19.5994H11.1291C10.476 19.5994 10.0073 19.0703 10.0073 18.4475C9.99521 17.9033 10.8192 17.9033 10.8086 18.4475C10.8086 18.6591 10.9674 18.7997 11.1291 18.7997H11.6039V17.5087H11.1291C10.9792 17.5079 10.8309 17.4773 10.693 17.4186C10.5551 17.3598 10.4302 17.2742 10.3258 17.1667C10.2213 17.0591 10.1393 16.9319 10.0847 16.7923C10.03 16.6527 10.0037 16.5036 10.0073 16.3537V15.9531C10.0073 15.3137 10.5047 14.8012 11.1291 14.8012H11.6039C11.6029 14.7021 11.6386 14.6062 11.7043 14.5319C11.7699 14.4576 11.8607 14.4103 11.9592 14.3991L12 14.3961ZM11.1291 15.6009C10.9507 15.6009 10.8071 15.7748 10.8071 15.9516V16.3537C10.8071 16.5654 10.9719 16.7075 11.1291 16.7075H11.6039V15.6009H11.1291ZM12.4037 17.5087V18.7982H12.883C13.0614 18.7982 13.205 18.6364 13.205 18.4475V17.8594C13.205 17.6705 13.0614 17.5087 12.883 17.5087H12.4037Z" fill="#9D9D9D"/>
</svg>
