<svg width="24" height="14" viewBox="0 0 24 14" fill="none" xmlns="http://www.w3.org/2000/svg">
<path d="M20.6055 13.644C20.1988 13.6443 19.8012 13.5239 19.4629 13.2982C19.1245 13.0725 18.8608 12.7515 18.7049 12.3758C18.5491 12.0002 18.5082 11.5867 18.5873 11.1878C18.6665 10.7889 18.8622 10.4224 19.1497 10.1347C19.4371 9.84702 19.8035 9.65105 20.2024 9.5716C20.6012 9.49215 21.0147 9.53277 21.3905 9.68834C21.7662 9.84391 22.0874 10.1074 22.3134 10.4456C22.5394 10.7837 22.66 11.1813 22.66 11.588C22.6597 12.1329 22.4433 12.6555 22.0581 13.041C21.6729 13.4264 21.1505 13.6433 20.6055 13.644ZM20.6055 10.282C20.3471 10.2817 20.0945 10.358 19.8795 10.5014C19.6646 10.6447 19.4969 10.8485 19.3979 11.0872C19.2988 11.3258 19.2727 11.5884 19.3229 11.8419C19.3731 12.0953 19.4974 12.3281 19.68 12.5109C19.8626 12.6937 20.0953 12.8183 20.3487 12.8688C20.6021 12.9193 20.8647 12.8935 21.1035 12.7947C21.3422 12.6959 21.5462 12.5285 21.6898 12.3137C21.8334 12.0989 21.91 11.8463 21.91 11.588C21.9099 11.2419 21.7724 10.91 21.5279 10.6652C21.2833 10.4203 20.9516 10.2825 20.6055 10.282ZM9.77101 13.644C9.36429 13.6444 8.96659 13.5241 8.62822 13.2985C8.28985 13.0728 8.02601 12.7518 7.87009 12.3762C7.71417 12.0005 7.67317 11.5871 7.75228 11.1881C7.83138 10.7891 8.02704 10.4226 8.31449 10.1349C8.60195 9.84714 8.96829 9.65113 9.36717 9.57164C9.76605 9.49214 10.1795 9.53274 10.5553 9.6883C10.9311 9.84385 11.2524 10.1074 11.4784 10.4455C11.7044 10.7837 11.825 11.1813 11.825 11.588C11.8246 12.1328 11.6082 12.6552 11.2231 13.0406C10.838 13.4261 10.3158 13.6431 9.77101 13.644ZM9.77101 10.282C9.51263 10.2816 9.25993 10.3578 9.04489 10.5011C8.82986 10.6444 8.66216 10.8482 8.563 11.0868C8.46385 11.3254 8.4377 11.5881 8.48786 11.8415C8.53803 12.095 8.66226 12.3279 8.84482 12.5108C9.02739 12.6936 9.2601 12.8182 9.51349 12.8687C9.76688 12.9193 10.0296 12.8935 10.2683 12.7948C10.5071 12.696 10.7112 12.5286 10.8548 12.3138C10.9984 12.099 11.075 11.8464 11.075 11.588C11.0747 11.242 10.9373 10.9103 10.6929 10.6655C10.4485 10.4207 10.117 10.2828 9.77101 10.282Z" fill="black"/>
<path d="M23.3105 11.9631H22.285C22.1855 11.9631 22.0901 11.9236 22.0198 11.8533C21.9495 11.7829 21.91 11.6876 21.91 11.5881C21.91 11.4886 21.9495 11.3933 22.0198 11.3229C22.0901 11.2526 22.1855 11.2131 22.285 11.2131H23.2045V9.2246C23.2042 8.95575 23.1354 8.69141 23.0045 8.4566L20.9745 4.8171C20.9571 4.78604 20.9318 4.76017 20.9011 4.74215C20.8705 4.72413 20.8355 4.71462 20.8 4.7146H18.0335V11.2146H18.9265C19.0259 11.2146 19.1213 11.2541 19.1916 11.3244C19.262 11.3948 19.3015 11.4901 19.3015 11.5896C19.3015 11.6891 19.262 11.7844 19.1916 11.8548C19.1213 11.9251 19.0259 11.9646 18.9265 11.9646H17.6585C17.559 11.9646 17.4636 11.9251 17.3933 11.8548C17.323 11.7844 17.2835 11.6891 17.2835 11.5896V4.3396C17.2835 4.24014 17.323 4.14476 17.3933 4.07443C17.4636 4.00411 17.559 3.9646 17.6585 3.9646H20.8C20.9691 3.96452 21.1353 4.00961 21.2812 4.09523C21.4271 4.18084 21.5475 4.30387 21.63 4.4516L23.6595 8.0916C23.8524 8.43807 23.9538 8.82803 23.954 9.2246V11.3196C23.9537 11.4902 23.8858 11.6537 23.7652 11.7743C23.6446 11.895 23.4811 11.9628 23.3105 11.9631ZM8.09147 11.9631H4.49597C4.39652 11.9631 4.30113 11.9236 4.23081 11.8533C4.16048 11.7829 4.12097 11.6876 4.12097 11.5881V8.7041C4.12097 8.60464 4.16048 8.50926 4.23081 8.43893C4.30113 8.36861 4.39652 8.3291 4.49597 8.3291C4.59543 8.3291 4.69081 8.36861 4.76114 8.43893C4.83146 8.50926 4.87097 8.60464 4.87097 8.7041V11.2131H8.09147C8.19093 11.2131 8.28631 11.2526 8.35664 11.3229C8.42696 11.3933 8.46647 11.4886 8.46647 11.5881C8.46647 11.6876 8.42696 11.7829 8.35664 11.8533C8.28631 11.9236 8.19093 11.9631 8.09147 11.9631ZM4.49597 7.3736C4.39652 7.3736 4.30113 7.33409 4.23081 7.26376C4.16048 7.19344 4.12097 7.09806 4.12097 6.9986V4.4806C4.12097 4.38114 4.16048 4.28576 4.23081 4.21543C4.30113 4.14511 4.39652 4.1056 4.49597 4.1056C4.59543 4.1056 4.69081 4.14511 4.76114 4.21543C4.83146 4.28576 4.87097 4.38114 4.87097 4.4806V7.0001C4.87057 7.0993 4.83089 7.19429 4.76061 7.26429C4.69033 7.3343 4.59517 7.3736 4.49597 7.3736Z" fill="black"/>
<path d="M17.6585 11.9631H11.45C11.3505 11.9631 11.2552 11.9236 11.1848 11.8533C11.1145 11.7829 11.075 11.6875 11.075 11.5881C11.075 11.4886 11.1145 11.3932 11.1848 11.3229C11.2552 11.2526 11.3505 11.2131 11.45 11.2131H17.2835V1.40259H4.87099V2.94709C4.87099 3.04654 4.83149 3.14193 4.76116 3.21225C4.69083 3.28258 4.59545 3.32209 4.49599 3.32209C4.39654 3.32209 4.30116 3.28258 4.23083 3.21225C4.1605 3.14193 4.12099 3.04654 4.12099 2.94709V1.33359C4.12126 1.15297 4.19316 0.979833 4.32092 0.852164C4.44869 0.724495 4.62188 0.65272 4.80249 0.652588H17.3525C17.533 0.652852 17.7061 0.724685 17.8337 0.85234C17.9614 0.979995 18.0332 1.15306 18.0335 1.33359V11.5881C18.0335 11.6875 17.994 11.7829 17.9237 11.8533C17.8533 11.9236 17.758 11.9631 17.6585 11.9631ZM5.97849 9.07909H1.21899C1.11954 9.07909 1.02416 9.03958 0.953829 8.96925C0.883503 8.89893 0.843994 8.80354 0.843994 8.70409C0.843994 8.60463 0.883503 8.50925 0.953829 8.43892C1.02416 8.3686 1.11954 8.32909 1.21899 8.32909H5.97849C6.07795 8.32909 6.17333 8.3686 6.24366 8.43892C6.31399 8.50925 6.35349 8.60463 6.35349 8.70409C6.35349 8.80354 6.31399 8.89893 6.24366 8.96925C6.17333 9.03958 6.07795 9.07909 5.97849 9.07909Z" fill="black"/>
<path d="M9.77097 7.37352H3.12947C3.03001 7.37352 2.93463 7.33401 2.8643 7.26369C2.79398 7.19336 2.75447 7.09798 2.75447 6.99852C2.75447 6.89907 2.79398 6.80368 2.8643 6.73336C2.93463 6.66303 3.03001 6.62352 3.12947 6.62352H9.77097C9.87042 6.62352 9.96581 6.66303 10.0361 6.73336C10.1065 6.80368 10.146 6.89907 10.146 6.99852C10.146 7.09798 10.1065 7.19336 10.0361 7.26369C9.96581 7.33401 9.87042 7.37352 9.77097 7.37352ZM2.92297 5.39352H0.329468C0.230012 5.39352 0.134629 5.35401 0.0643027 5.28369C-0.00602341 5.21336 -0.0455322 5.11798 -0.0455322 5.01852C-0.0455322 4.91907 -0.00602341 4.82368 0.0643027 4.75336C0.134629 4.68303 0.230012 4.64352 0.329468 4.64352H2.92297C3.02242 4.64352 3.11781 4.68303 3.18813 4.75336C3.25846 4.82368 3.29797 4.91907 3.29797 5.01852C3.29797 5.11798 3.25846 5.21336 3.18813 5.28369C3.11781 5.35401 3.02242 5.39352 2.92297 5.39352ZM7.08147 3.32202H2.50347C2.40401 3.32202 2.30863 3.28251 2.2383 3.21219C2.16798 3.14186 2.12847 3.04648 2.12847 2.94702C2.12847 2.84757 2.16798 2.75218 2.2383 2.68186C2.30863 2.61153 2.40401 2.57202 2.50347 2.57202H7.08147C7.18092 2.57202 7.27631 2.61153 7.34663 2.68186C7.41696 2.75218 7.45647 2.84757 7.45647 2.94702C7.45647 3.04648 7.41696 3.14186 7.34663 3.21219C7.27631 3.28251 7.18092 3.32202 7.08147 3.32202Z" fill="#344CB7"/>
</svg>
