<svg width="24" height="24" viewBox="0 0 24 24" fill="none" xmlns="http://www.w3.org/2000/svg">
<path d="M5.89532 7.21411C2.65063 7.21411 0.0108643 9.85388 0.0108643 13.0986C0.0108643 15.1131 0.969177 17.2791 2.85922 19.5364C3.1261 19.8547 3.40264 20.1648 3.68844 20.4661C2.4681 20.7992 1.7354 21.3977 1.7354 22.0962C1.7354 23.3327 3.87861 23.9999 5.89513 23.9999C7.91169 23.9999 10.0549 23.3326 10.0549 22.0962C10.0549 21.3983 9.3224 20.7997 8.10285 20.4664C8.59007 19.9521 9.11432 19.3469 9.61176 18.6719C9.63976 18.6347 9.66011 18.5924 9.67164 18.5473C9.68317 18.5022 9.68565 18.4553 9.67892 18.4093C9.6722 18.3632 9.65641 18.319 9.63247 18.2791C9.60853 18.2392 9.57691 18.2044 9.53945 18.1768C9.50199 18.1492 9.45942 18.1293 9.41422 18.1182C9.36901 18.1072 9.32207 18.1052 9.2761 18.1124C9.23012 18.1197 9.18604 18.1359 9.1464 18.1603C9.10675 18.1847 9.07233 18.2166 9.04513 18.2544C8.44457 19.0694 7.79451 19.7857 7.22727 20.3546C7.1614 20.388 7.10771 20.4413 7.0738 20.5069C6.56568 21.0062 6.13808 21.3767 5.89546 21.5791C5.65551 21.3787 5.23443 21.0132 4.73282 20.5204C4.6973 20.4424 4.63459 20.3801 4.55643 20.3451C2.96235 18.7418 0.714692 15.9716 0.714692 13.0987C0.714692 10.2421 3.03871 7.91808 5.89527 7.91808C8.75183 7.91808 11.0758 10.2421 11.0758 13.0987C11.0758 14.3461 10.6508 15.6933 9.81247 17.1028C9.78885 17.1425 9.77328 17.1865 9.76665 17.2323C9.76003 17.278 9.76247 17.3246 9.77386 17.3694C9.78524 17.4142 9.80533 17.4563 9.83299 17.4933C9.86065 17.5304 9.89533 17.5616 9.93505 17.5852C9.97478 17.6088 10.0188 17.6244 10.0645 17.631C10.1102 17.6377 10.1568 17.6352 10.2016 17.6238C10.2464 17.6124 10.2885 17.5923 10.3256 17.5647C10.3626 17.537 10.3938 17.5024 10.4174 17.4626C11.3214 15.9428 11.7797 14.4745 11.7797 13.0987C11.7798 9.85388 9.14001 7.21411 5.89532 7.21411ZM5.67993 22.3111C5.74157 22.3589 5.81734 22.3847 5.89532 22.3847C5.97329 22.3847 6.04907 22.3588 6.11071 22.3111C6.15388 22.2777 6.74197 21.8191 7.52586 21.0526C8.71283 21.2947 9.35108 21.7607 9.35108 22.0962C9.35108 22.3468 9.00768 22.6424 8.45488 22.8676C7.77688 23.1439 6.86783 23.2961 5.89518 23.2961C3.78552 23.2961 2.43927 22.5854 2.43927 22.0962C2.43927 21.7603 3.07771 21.2944 4.26533 21.0524C5.05358 21.8234 5.64252 22.2821 5.67993 22.3111Z" fill="black"/>
<path d="M5.89528 10.54C5.33864 10.54 4.80932 10.7158 4.36457 11.0482C4.28983 11.1042 4.24035 11.1874 4.22701 11.2798C4.21367 11.3722 4.23755 11.4661 4.29342 11.5409C4.34933 11.6156 4.43262 11.6651 4.52499 11.6784C4.61736 11.6917 4.71125 11.6679 4.78603 11.612C5.1081 11.3712 5.49168 11.2439 5.89523 11.2439C6.9179 11.2439 7.74989 12.0759 7.74989 13.0986C7.74989 14.1213 6.9179 14.9533 5.89523 14.9533C4.87256 14.9533 4.04057 14.1212 4.04057 13.0986C4.04057 12.9241 4.06471 12.7515 4.11229 12.5859C4.13805 12.4962 4.12711 12.3999 4.08189 12.3183C4.03667 12.2366 3.96087 12.1763 3.87117 12.1505C3.78145 12.1248 3.68521 12.1358 3.60358 12.181C3.52195 12.2262 3.4616 12.302 3.43579 12.3917C3.36997 12.6216 3.33665 12.8595 3.33679 13.0986C3.33679 14.5094 4.48453 15.6571 5.89532 15.6571C7.30607 15.6571 8.45385 14.5094 8.45385 13.0986C8.45381 11.6878 7.30603 10.54 5.89528 10.54ZM21.2323 10.2244C21.4206 10.0226 21.6035 9.81584 21.7808 9.60431C23.246 7.85433 23.9889 6.17203 23.9889 4.60402C23.9889 2.06541 21.9236 0 19.3849 0C17.5304 0 15.8653 1.10372 15.1429 2.81184C15.1249 2.8544 15.1154 2.90009 15.1151 2.94631C15.1147 2.99252 15.1235 3.03835 15.1408 3.08117C15.1582 3.124 15.1838 3.16299 15.2163 3.19591C15.2487 3.22883 15.2873 3.25504 15.3299 3.27305C15.4158 3.30939 15.5127 3.31011 15.5992 3.27504C15.6857 3.23998 15.7547 3.172 15.7911 3.08606C16.4032 1.63894 17.8138 0.703828 19.3849 0.703828C21.5355 0.703828 23.2851 2.45348 23.2851 4.60406C23.2851 7.51233 20.2318 10.2986 19.3848 11.0154C19.1981 10.8577 18.9043 10.5995 18.5598 10.2618C18.5257 10.1945 18.4708 10.1399 18.4033 10.1063C17.1882 8.88277 15.4847 6.77962 15.4847 4.60406C15.4847 4.51072 15.4477 4.42121 15.3816 4.35521C15.3156 4.2892 15.2261 4.25212 15.1328 4.25212C15.0395 4.25212 14.9499 4.2892 14.8839 4.35521C14.8179 4.42121 14.7809 4.51072 14.7809 4.60406C14.7809 6.17203 15.5238 7.85433 16.989 9.60436C17.1663 9.81576 17.3491 10.0224 17.5372 10.2242C16.63 10.4968 16.1063 10.9607 16.1063 11.5194C16.1063 11.9906 16.4885 12.4059 17.1826 12.6887C17.7765 12.9307 18.5587 13.064 19.3849 13.064C20.211 13.064 20.9932 12.9307 21.5871 12.6887C22.2811 12.4058 22.6633 11.9906 22.6633 11.5194C22.6633 10.9617 22.1392 10.4973 21.2323 10.2244ZM19.3848 12.3601C17.7189 12.3601 16.8102 11.8047 16.8102 11.5193C16.8102 11.3334 17.2236 10.9932 18.1063 10.8055C18.7003 11.3835 19.1411 11.7269 19.1696 11.7489C19.2312 11.7967 19.307 11.8226 19.385 11.8225C19.4629 11.8226 19.5387 11.7967 19.6004 11.7489C19.6288 11.727 20.0696 11.3835 20.6635 10.8056C21.0568 10.8895 21.3975 11.0123 21.6359 11.1575C21.8385 11.2809 21.9595 11.4162 21.9595 11.5193C21.9594 11.8047 21.0507 12.3601 19.3848 12.3601Z" fill="black"/>
<path d="M19.385 2.55615C18.2558 2.55615 17.3371 3.47481 17.3371 4.60407C17.3371 5.73325 18.2557 6.6519 19.385 6.6519C20.5142 6.6519 21.4328 5.73329 21.4328 4.60407C21.4328 3.47486 20.5142 2.55615 19.385 2.55615ZM19.385 5.94803C18.6438 5.94803 18.041 5.34512 18.041 4.60403C18.041 3.86293 18.6439 3.25998 19.385 3.25998C20.1261 3.25998 20.7291 3.86289 20.7291 4.60403C20.729 5.34512 20.1261 5.94803 19.385 5.94803ZM14.8198 11.1674H14.6591C14.5421 11.1674 14.4246 11.1752 14.3095 11.1905C14.2177 11.2036 14.1348 11.2525 14.0789 11.3264C14.0229 11.4004 13.9983 11.4934 14.0106 11.5853C14.0228 11.6773 14.0708 11.7606 14.1442 11.8174C14.2176 11.8741 14.3103 11.8996 14.4024 11.8883C14.4875 11.877 14.5733 11.8714 14.6592 11.8714H14.8198V11.8713C15.0142 11.8713 15.1717 11.7138 15.1717 11.5194C15.1717 11.325 15.0142 11.1674 14.8198 11.1674ZM13.6563 21.7263H13.6547L13.1899 21.7284C13.0965 21.7287 13.0071 21.7659 12.9412 21.8321C12.8754 21.8982 12.8385 21.9878 12.8387 22.0812C12.8389 22.1745 12.8762 22.2639 12.9423 22.3298C13.0085 22.3956 13.0981 22.4325 13.1914 22.4323H13.1931L13.6579 22.4302C13.7512 22.4298 13.8405 22.3923 13.9062 22.326C13.9719 22.2597 14.0086 22.17 14.0082 22.0767C14.0078 21.9836 13.9706 21.8945 13.9046 21.8288C13.8387 21.7632 13.7494 21.7263 13.6563 21.7263ZM15.2374 15.726H14.7726C14.6793 15.726 14.5897 15.7631 14.5237 15.8291C14.4577 15.8951 14.4207 15.9846 14.4207 16.0779C14.4207 16.1713 14.4577 16.2608 14.5237 16.3268C14.5897 16.3928 14.6793 16.4299 14.7726 16.4299H15.2374C15.2836 16.4299 15.3294 16.4208 15.3721 16.4031C15.4148 16.3854 15.4536 16.3595 15.4863 16.3268C15.519 16.2941 15.5449 16.2553 15.5626 16.2126C15.5803 16.1699 15.5894 16.1242 15.5894 16.0779C15.5894 16.0317 15.5803 15.986 15.5626 15.9433C15.5449 15.9006 15.519 15.8618 15.4863 15.8291C15.4536 15.7964 15.4148 15.7705 15.3721 15.7528C15.3294 15.7351 15.2836 15.726 15.2374 15.726ZM13.3726 11.8845C13.3093 11.8159 13.2214 11.7752 13.1281 11.7715C13.0349 11.7677 12.944 11.8011 12.8753 11.8644C12.7439 11.9857 12.625 12.12 12.5206 12.2653C12.4685 12.3412 12.4481 12.4345 12.464 12.5252C12.4798 12.616 12.5306 12.6969 12.6054 12.7506C12.6802 12.8044 12.7731 12.8266 12.8641 12.8127C12.9552 12.7987 13.0371 12.7496 13.0924 12.6759C13.169 12.5693 13.2561 12.4708 13.3526 12.3818C13.4212 12.3185 13.4618 12.2305 13.4656 12.1373C13.4694 12.044 13.4359 11.9531 13.3726 11.8845ZM15.5157 21.7178H15.514L15.0493 21.7199C14.9569 21.7216 14.8689 21.7595 14.8043 21.8255C14.7396 21.8915 14.7035 21.9803 14.7037 22.0726C14.7039 22.165 14.7404 22.2536 14.8054 22.3193C14.8703 22.385 14.9584 22.4225 15.0508 22.4238H15.0524L15.5172 22.4217C15.6096 22.42 15.6975 22.3821 15.7622 22.3161C15.8268 22.2501 15.8629 22.1614 15.8627 22.069C15.8625 21.9766 15.826 21.888 15.7611 21.8223C15.6962 21.7566 15.608 21.7191 15.5157 21.7178ZM11.797 21.7347H11.7954L11.3306 21.7368C11.2372 21.7373 11.1479 21.7748 11.0822 21.8411C11.0165 21.9074 10.9798 21.997 10.9802 22.0904C10.9806 22.1834 11.0179 22.2725 11.0838 22.3382C11.1498 22.4039 11.2391 22.4407 11.3321 22.4407H11.3338L11.7986 22.4386C11.8919 22.4382 11.9812 22.4007 12.0469 22.3344C12.1126 22.2681 12.1493 22.1784 12.1489 22.0851C12.1485 21.992 12.1113 21.9029 12.0453 21.8372C11.9794 21.7716 11.8901 21.7347 11.797 21.7347ZM13.6326 15.4302C13.5216 15.3602 13.4181 15.2791 13.3235 15.1882C13.2562 15.1235 13.166 15.0882 13.0727 15.09C12.9794 15.0918 12.8906 15.1306 12.8259 15.1978C12.7938 15.2311 12.7687 15.2704 12.7518 15.3134C12.735 15.3565 12.7268 15.4024 12.7277 15.4486C12.7286 15.4948 12.7385 15.5404 12.7571 15.5827C12.7756 15.6251 12.8022 15.6634 12.8355 15.6954C12.9645 15.8194 13.1057 15.93 13.257 16.0255C13.2961 16.0502 13.3396 16.067 13.3852 16.0748C13.4308 16.0826 13.4774 16.0814 13.5225 16.0712C13.5676 16.061 13.6103 16.042 13.648 16.0153C13.6857 15.9886 13.7178 15.9547 13.7425 15.9156C13.7671 15.8765 13.7839 15.8329 13.7917 15.7874C13.7995 15.7418 13.7983 15.6952 13.7881 15.6501C13.7778 15.605 13.7589 15.5624 13.7322 15.5247C13.7055 15.4869 13.6716 15.4548 13.6326 15.4302ZM12.7674 14.1697C12.7437 14.0474 12.7318 13.9232 12.7318 13.7987L12.7319 13.7792C12.7324 13.7329 12.7239 13.6871 12.7067 13.6442C12.6895 13.6013 12.664 13.5622 12.6317 13.5291C12.5994 13.4961 12.5609 13.4697 12.5185 13.4515C12.476 13.4333 12.4303 13.4237 12.3841 13.4232L12.3799 13.4231C12.2873 13.4232 12.1984 13.4597 12.1325 13.5248C12.0667 13.5899 12.0291 13.6784 12.0281 13.771L12.0279 13.7987C12.0279 13.9687 12.0443 14.1388 12.0765 14.3043C12.0854 14.3497 12.1031 14.3929 12.1286 14.4314C12.1541 14.4699 12.187 14.5031 12.2253 14.5289C12.2637 14.5547 12.3067 14.5727 12.352 14.5819C12.3973 14.5911 12.444 14.5913 12.4893 14.5824C12.5347 14.5736 12.5779 14.5559 12.6164 14.5304C12.6549 14.5049 12.688 14.472 12.7139 14.4337C12.7397 14.3953 12.7577 14.3523 12.7669 14.307C12.7761 14.2617 12.7763 14.215 12.7674 14.1697ZM17.0968 15.726H16.632C16.5387 15.726 16.4491 15.7631 16.3831 15.8291C16.3171 15.8951 16.2801 15.9846 16.2801 16.0779C16.2801 16.1713 16.3171 16.2608 16.3831 16.3268C16.4491 16.3928 16.5387 16.4299 16.632 16.4299H17.0968C17.1901 16.4299 17.2797 16.3928 17.3457 16.3268C17.4117 16.2608 17.4487 16.1713 17.4487 16.0779C17.4487 15.9846 17.4117 15.8951 17.3457 15.8291C17.2797 15.7631 17.1901 15.726 17.0968 15.726ZM22.7472 16.4425C22.6112 16.3353 22.4672 16.2387 22.3163 16.1537C22.1471 16.0583 21.9324 16.1182 21.8369 16.2876C21.8143 16.3278 21.7997 16.3722 21.7942 16.4181C21.7886 16.4639 21.7922 16.5105 21.8046 16.555C21.817 16.5995 21.8381 16.6411 21.8666 16.6775C21.8951 16.7138 21.9306 16.7442 21.9708 16.7669C22.0899 16.8341 22.2036 16.9103 22.3109 16.995C22.3729 17.0441 22.4497 17.0708 22.5288 17.0708C22.6019 17.0708 22.6733 17.0481 22.7329 17.0058C22.7926 16.9634 22.8376 16.9035 22.8616 16.8344C22.8856 16.7653 22.8875 16.6904 22.867 16.6202C22.8465 16.55 22.8046 16.4879 22.7472 16.4425ZM21.4408 21.97C21.4141 21.7775 21.2361 21.6427 21.044 21.6695C20.9287 21.6855 20.8107 21.6939 20.693 21.6943L20.6271 21.6947C20.5352 21.697 20.4478 21.7352 20.3837 21.8011C20.3196 21.867 20.2838 21.9554 20.284 22.0474C20.2842 22.1394 20.3204 22.2276 20.3849 22.2932C20.4493 22.3588 20.5368 22.3966 20.6288 22.3985H20.6305L20.6962 22.3982C20.8448 22.3976 20.9932 22.3871 21.1403 22.3668C21.1861 22.3605 21.2302 22.3452 21.2701 22.3218C21.31 22.2985 21.3449 22.2675 21.3728 22.2306C21.4007 22.1938 21.421 22.1518 21.4327 22.1071C21.4444 22.0624 21.4471 22.0158 21.4408 21.97ZM22.994 20.9803C22.9621 20.9468 22.924 20.92 22.8817 20.9013C22.8395 20.8825 22.794 20.8723 22.7477 20.8712C22.7015 20.8701 22.6556 20.8781 22.6125 20.8947C22.5693 20.9114 22.5299 20.9363 22.4965 20.9682C22.3974 21.0626 22.2912 21.1491 22.1788 21.2271C22.1021 21.2803 22.0496 21.3618 22.033 21.4536C22.0164 21.5455 22.0369 21.6402 22.09 21.7169C22.1224 21.7637 22.1657 21.8019 22.2161 21.8283C22.2666 21.8547 22.3227 21.8684 22.3796 21.8684C22.4511 21.8684 22.521 21.8465 22.5798 21.8057C22.7221 21.7069 22.8565 21.5973 22.982 21.4779C23.0154 21.446 23.0423 21.4079 23.061 21.3656C23.0797 21.3233 23.0899 21.2778 23.091 21.2316C23.0922 21.1854 23.0842 21.1394 23.0675 21.0963C23.0509 21.0532 23.0259 21.0138 22.994 20.9803ZM23.6789 19.2711C23.5872 19.2539 23.4924 19.2738 23.4154 19.3264C23.3383 19.379 23.2853 19.4601 23.268 19.5518C23.2427 19.6861 23.2069 19.8182 23.1611 19.9469C23.131 20.0345 23.1366 20.1305 23.1768 20.214C23.2169 20.2975 23.2884 20.3618 23.3757 20.393C23.463 20.4241 23.5591 20.4195 23.643 20.3803C23.727 20.341 23.7921 20.2702 23.8242 20.1833C23.8823 20.02 23.9277 19.8524 23.9598 19.6821C23.977 19.5903 23.9571 19.4955 23.9044 19.4185C23.8518 19.3414 23.7707 19.2884 23.6789 19.2711ZM23.888 18.1398C23.8401 17.9731 23.7792 17.8103 23.7059 17.6531C23.6655 17.5699 23.5941 17.506 23.507 17.4751C23.4199 17.4442 23.3241 17.4487 23.2404 17.4878C23.1566 17.5269 23.0916 17.5973 23.0593 17.6839C23.0271 17.7705 23.0302 17.8664 23.068 17.9507C23.1257 18.0745 23.1737 18.2027 23.2115 18.334C23.2325 18.4074 23.2769 18.472 23.3379 18.518C23.3989 18.564 23.4732 18.5889 23.5496 18.5889C23.6041 18.589 23.6579 18.5763 23.7067 18.552C23.7555 18.5277 23.798 18.4923 23.8308 18.4488C23.8636 18.4052 23.8858 18.3547 23.8958 18.301C23.9057 18.2474 23.903 18.1923 23.888 18.1398ZM18.9561 15.726H18.4913C18.398 15.726 18.3085 15.7631 18.2425 15.8291C18.1765 15.8951 18.1394 15.9846 18.1394 16.0779C18.1394 16.1713 18.1765 16.2608 18.2425 16.3268C18.3085 16.3928 18.398 16.4299 18.4913 16.4299H18.9561C19.0495 16.4299 19.139 16.3928 19.205 16.3268C19.271 16.2608 19.3081 16.1713 19.3081 16.0779C19.3081 15.9846 19.271 15.8951 19.205 15.8291C19.139 15.7631 19.0495 15.726 18.9561 15.726ZM17.375 21.7094H17.3734L16.9086 21.7115C16.8162 21.7132 16.7282 21.7511 16.6636 21.8171C16.5989 21.8831 16.5628 21.9718 16.563 22.0642C16.5632 22.1565 16.5997 22.2451 16.6647 22.3108C16.7296 22.3765 16.8177 22.4141 16.9101 22.4154H16.9117L17.3766 22.4132C17.4699 22.413 17.5593 22.3758 17.6252 22.3096C17.691 22.2435 17.7279 22.1539 17.7277 22.0605C17.7275 21.9672 17.6902 21.8778 17.6241 21.8119C17.5579 21.746 17.4683 21.7092 17.375 21.7094ZM20.831 15.7294C20.7811 15.7272 20.7311 15.726 20.6811 15.7261H20.3506C20.2573 15.7261 20.1678 15.7631 20.1018 15.8291C20.0358 15.8951 19.9987 15.9847 19.9987 16.078C19.9987 16.1713 20.0358 16.2609 20.1018 16.3269C20.1678 16.3929 20.2573 16.4299 20.3506 16.4299H20.6811V16.4299C20.7209 16.4299 20.7605 16.4308 20.7998 16.4325C20.846 16.4346 20.8921 16.4275 20.9356 16.4117C20.979 16.396 21.0189 16.3718 21.053 16.3406C21.0871 16.3094 21.1147 16.2718 21.1342 16.2299C21.1538 16.188 21.1649 16.1427 21.167 16.0966C21.169 16.0504 21.162 16.0043 21.1462 15.9608C21.1304 15.9174 21.1062 15.8775 21.075 15.8434C21.0438 15.8093 21.0062 15.7817 20.9643 15.7621C20.9225 15.7425 20.8771 15.7314 20.831 15.7294ZM19.2343 21.701H19.2327L18.7679 21.7031C18.6755 21.7048 18.5875 21.7427 18.5229 21.8087C18.4582 21.8747 18.4221 21.9634 18.4223 22.0558C18.4225 22.1482 18.459 22.2367 18.524 22.3024C18.5889 22.3681 18.677 22.4057 18.7694 22.407H18.771L19.2359 22.4049C19.3292 22.4044 19.4185 22.3669 19.4842 22.3006C19.5499 22.2343 19.5866 22.1447 19.5862 22.0513C19.5858 21.9583 19.5485 21.8691 19.4826 21.8035C19.4166 21.7378 19.3274 21.701 19.2343 21.701Z" fill="#344CB7"/>
</svg>
