<svg width="40" height="40" viewBox="0 0 40 40" fill="none" xmlns="http://www.w3.org/2000/svg">
<path d="M36.25 22.5V18.75C36.25 16.3381 34.2875 14.375 31.875 14.375H28.125V10.5862C28.125 9.495 27.5594 8.50812 26.6119 7.945C25.6437 7.37125 24.4756 7.35 23.5075 7.87875L22.5 8.38062V6.34312C22.5 5.05125 21.785 3.92375 20.6344 3.40187C19.5281 2.90062 18.2687 3.09062 17.3481 3.8975L5.39 14.375H5C2.5875 14.375 0.625 16.3381 0.625 18.75V35C0.625 37.4119 2.5875 39.375 5 39.375H31.875C34.2875 39.375 36.25 37.4119 36.25 35V31.25C37.9731 31.25 39.375 29.8481 39.375 28.125V25.625C39.375 23.9019 37.9731 22.5 36.25 22.5ZM24.0856 8.98625C24.3757 8.826 24.7028 8.74477 25.0342 8.75069C25.3656 8.75662 25.6896 8.84948 25.9737 9.02C26.248 9.17923 26.4756 9.40772 26.6338 9.68261C26.792 9.95749 26.8752 10.2691 26.875 10.5862V14.375H13.2788L24.0856 8.98625ZM18.1719 4.8375C18.7269 4.35125 19.4544 4.23937 20.1181 4.54062C20.4616 4.69846 20.7517 4.95303 20.9527 5.27318C21.1537 5.59333 21.2571 5.96515 21.25 6.34312V9.00375L10.4781 14.375H7.28688L18.1719 4.8375ZM35 35C35 36.7231 33.5981 38.125 31.875 38.125H5C3.27688 38.125 1.875 36.7231 1.875 35V18.75C1.875 17.0269 3.27688 15.625 5 15.625H31.875C33.5981 15.625 35 17.0269 35 18.75V22.5H28.75C25.625 22.5 25.625 25.7931 25.625 26.875C25.625 27.9569 25.625 31.25 28.75 31.25H35V35ZM38.125 28.125C38.125 29.1587 37.2837 30 36.25 30H28.75C27.6244 30 26.875 29.4681 26.875 26.875C26.875 24.2819 27.6244 23.75 28.75 23.75H36.25C37.2837 23.75 38.125 24.5912 38.125 25.625V28.125Z" fill="white"/>
<path d="M30.625 24.375C29.2462 24.375 28.125 25.4962 28.125 26.875C28.125 28.2537 29.2462 29.375 30.625 29.375C32.0038 29.375 33.125 28.2537 33.125 26.875C33.125 25.4962 32.0038 24.375 30.625 24.375ZM30.625 28.125C29.9356 28.125 29.375 27.5644 29.375 26.875C29.375 26.1856 29.9356 25.625 30.625 25.625C31.3144 25.625 31.875 26.1856 31.875 26.875C31.875 27.5644 31.3144 28.125 30.625 28.125ZM30.6938 10.48L30.3031 10.7144C30.2152 10.7671 30.1415 10.8406 30.0887 10.9284C30.0358 11.0163 30.0054 11.1158 30.0001 11.2182C29.9948 11.3206 30.0148 11.4227 30.0582 11.5155C30.1017 11.6084 30.1673 11.6891 30.2494 11.7506L32.7494 13.6256C32.8528 13.7032 32.9778 13.7469 33.1071 13.7504C33.2364 13.754 33.3636 13.7174 33.4713 13.6456L33.5812 13.5725C34.6998 12.8287 35.6327 11.8382 36.3081 10.6771C36.9836 9.51612 37.3837 8.21557 37.4775 6.87562H38.3C38.7325 6.87562 39.1187 6.6175 39.2838 6.21812C39.3612 6.0323 39.3842 5.82828 39.3501 5.62987C39.316 5.43146 39.2263 5.24683 39.0913 5.0975L36.2375 1.25875C36.0934 1.06307 35.9052 0.904191 35.688 0.79504C35.4709 0.685889 35.2311 0.629555 34.9881 0.630623C34.7451 0.629647 34.5047 0.686155 34.2876 0.795536C34.0706 0.904916 33.8825 1.06407 33.7387 1.26L30.9025 5.07875C30.766 5.22948 30.6751 5.41594 30.6406 5.61636C30.6061 5.81678 30.6293 6.02289 30.7075 6.21062C30.7885 6.40758 30.9264 6.57595 31.1035 6.69427C31.2806 6.81259 31.4889 6.87551 31.7019 6.875H32.5694C32.6192 7.59036 32.4704 8.30559 32.1394 8.94174C31.8085 9.57789 31.3082 10.1102 30.6938 10.48ZM33.7494 6.24875C33.7462 6.17854 33.731 6.1094 33.7044 6.04437L33.6925 6.01562L33.6919 6.01437C33.6356 5.875 33.5338 5.76687 33.4106 5.7C33.2875 5.63312 33.4106 5.69937 33.41 5.69937C33.375 5.68082 33.3384 5.66555 33.3006 5.65375C33.2357 5.63537 33.1687 5.6257 33.1013 5.625H32.0537L34.7425 2.00437C34.8219 1.89687 34.9306 1.88062 34.9881 1.88062C35.0456 1.88062 35.1544 1.89687 35.235 2.00437L37.9275 5.625H36.875C36.7092 5.625 36.5503 5.69085 36.4331 5.80806C36.3158 5.92527 36.25 6.08424 36.25 6.25C36.25 8.67687 35.0931 10.9369 33.1406 12.3562L31.725 11.2937C32.5 10.7259 33.1005 9.95228 33.4583 9.0606C33.8161 8.16891 33.9169 7.19482 33.7494 6.24875Z" fill="white"/>
</svg>
